<?xml version="1.0" standalone="no"?>
<!DOCTYPE svg PUBLIC "-//W3C//DTD SVG 1.1//EN" "http://www.w3.org/Graphics/SVG/1.1/DTD/svg11.dtd" >
<svg xmlns="http://www.w3.org/2000/svg">
<metadata></metadata>
<defs>
<font id="mgopen_cosmeticaoblique" horiz-adv-x="1103" >
<font-face units-per-em="2048" ascent="1638" descent="-410" />
<missing-glyph horiz-adv-x="552" />
<glyph horiz-adv-x="2048" />
<glyph horiz-adv-x="2048" />
<glyph unicode="&#xd;" horiz-adv-x="552" />
<glyph unicode=" "  horiz-adv-x="552" />
<glyph unicode="&#x09;" horiz-adv-x="552" />
<glyph unicode="&#xa0;" horiz-adv-x="552" />
<glyph unicode="!" horiz-adv-x="657" d="M92 106q0 49 37 86t86 37q53 0 89 -35.5t36 -89.5q0 -29 -19.5 -75.5t-99.5 -46.5q-55 0 -92 34.5t-37 89.5zM221 371l101 848q0 68 28.5 122t89.5 54q45 0 78 -24.5t33 -65.5q0 -31 -12.5 -71t-22.5 -77l-240 -790z" />
<glyph unicode="&#x22;" horiz-adv-x="561" d="M96 866v545h99v-545h-99zM365 866v545h100v-545h-100z" />
<glyph unicode="#" horiz-adv-x="1548" d="M115 473l35 105h325l94 274h-344l35 102h346l170 478h125l-166 -478h260l172 478h125l-168 -478h310l-37 -102h-312l-96 -274h332l-33 -105h-338l-166 -473h-127l168 473h-262l-170 -473h-125l168 473h-321zM602 575h262l94 277h-262z" />
<glyph unicode="$" d="M35 90q31 47 49.5 86t28.5 86l24 -4q35 -98 94.5 -150.5t157.5 -52.5l113 566q-139 55 -225.5 127.5t-86.5 193.5q0 174 134.5 277.5t318.5 123.5q4 33 8 65t4 60q23 -6 55.5 -8t34.5 -2q-8 -18 -17 -55t-15 -64q76 0 153.5 -25.5t137.5 -70.5q-45 -68 -70 -147h-25 q-16 68 -73.5 104.5t-141.5 54.5l-94 -501q162 -72 250 -142.5t88 -197.5q0 -199 -146.5 -320t-347.5 -121q-10 -47 -18 -96t-8 -92l-58 6l-32 -4q12 35 25.5 89t21.5 99q-90 0 -172 29t-168 86zM348 1006q0 -80 52.5 -136.5t131.5 -85.5l97 478q-113 0 -197 -72t-84 -184z M459 47q123 0 214 89t91 216q0 84 -54.5 143.5t-144.5 98.5z" />
<glyph unicode="%" horiz-adv-x="1585" d="M70 977q0 150 110.5 258t259.5 108q113 0 182.5 -60t96.5 -173l2 -31q0 -154 -108.5 -266.5t-264.5 -112.5q-123 0 -200.5 76t-77.5 201zM178 -184l1067 1681h119l-1065 -1681h-121zM221 926q0 -63 33 -115.5t92 -52.5q111 0 164 114.5t53 239.5q0 74 -29.5 122t-99.5 48 q-100 0 -150.5 -99.5t-60.5 -215.5zM846 238q0 150 109.5 259t261.5 109q109 0 183.5 -62.5t88.5 -168.5l2 -35q0 -154 -108.5 -260.5t-264.5 -106.5q-119 0 -195.5 73t-76.5 192zM993 176q0 -66 34 -108.5t97 -42.5q106 0 159.5 116.5t53.5 235.5q0 74 -26.5 123t-102.5 49 q-98 0 -150 -100.5t-63 -217.5z" />
<glyph unicode="&#x26;" horiz-adv-x="1380" d="M51 309q0 166 108.5 274.5t293.5 207.5q-43 63 -69 133.5t-26 140.5q0 139 107.5 232.5t253.5 93.5q106 0 183 -62.5t77 -167.5q0 -121 -93 -201.5t-247 -162.5q70 -111 136.5 -204t185.5 -255q80 76 135 174t88 215h20q4 -20 23.5 -55t40.5 -62q-35 -88 -100.5 -170 t-157.5 -168q90 -115 118.5 -151.5t100.5 -122.5q-63 6 -127 14q-23 0 -48.5 -3t-62.5 -11q-27 39 -45 68.5t-63 89.5q-109 -86 -221.5 -134.5t-237.5 -48.5q-154 0 -263.5 92.5t-109.5 243.5zM229 399q0 -131 84 -221t215 -90q82 0 157 35t155 98l-113 172l-240 334 q-113 -63 -180 -139t-78 -189zM508 1114q0 -51 18.5 -107.5t77.5 -148.5q117 72 182.5 135.5t65.5 161.5q0 66 -41 115t-106 49q-78 0 -137.5 -63.5t-59.5 -141.5z" />
<glyph unicode="'" horiz-adv-x="552" d="M164 819l213 473q16 49 44 77t77 28q39 0 60.5 -14.5t21.5 -51.5q0 -27 -13.5 -54.5t-34.5 -53.5l-327 -422z" />
<glyph unicode="(" horiz-adv-x="548" d="M70 430q0 299 151.5 550t411.5 439l49 -39q-231 -190 -354 -459.5t-123 -574.5t157 -547l-59 -28q-113 156 -173 318.5t-60 340.5z" />
<glyph unicode=")" horiz-adv-x="548" d="M-170 -188q231 178 353 452.5t122 579.5q0 143 -42 286.5t-118 260.5l62 28q111 -152 170 -316.5t59 -342.5q0 -299 -149.5 -551t-407.5 -438z" />
<glyph unicode="*" horiz-adv-x="995" d="M186 997q160 18 297 56q-57 43 -111.5 76.5t-144.5 82.5q61 47 105 121q33 -45 77 -99t119 -128q10 70 14.5 148.5t4.5 154.5q16 -10 62 -21.5t89 -11.5q-31 -70 -56.5 -141.5t-39.5 -138.5q70 23 118 48t154 87q0 -76 52 -154q-94 -10 -162 -21.5t-139 -33.5 q53 -41 120.5 -84t135.5 -78q-18 -10 -57.5 -54t-51.5 -67q-96 133 -194 232q-8 -43 -12.5 -84t-4.5 -90v-66t4 -63q-41 18 -58.5 23t-45.5 5h-51q23 57 46 128t50 159q-137 -57 -264 -137q-6 39 -19.5 79t-36.5 72z" />
<glyph unicode="+" horiz-adv-x="1679" d="M250 553v94h541v553h98v-553h541v-94h-541v-553h-98v553h-541z" />
<glyph unicode="," horiz-adv-x="552" d="M-100 -332l213 467q29 59 50 84t70 25q39 0 60.5 -14.5t21.5 -51.5q0 -23 -6 -38t-41 -74l-325 -420z" />
<glyph unicode="-" horiz-adv-x="657" d="M23 401q16 47 23 81t15 93q41 0 125 -4t127 -4q41 0 123 4t125 4q-12 -33 -21.5 -77.5t-15.5 -96.5q-57 0 -145 5.5t-103 5.5q-53 0 -143 -5.5t-110 -5.5z" />
<glyph unicode="." horiz-adv-x="552" d="M51 115q0 14 4 23t19.5 52t101.5 43q53 0 88 -34.5t35 -87.5t-35 -88t-88 -35t-89 35.5t-36 91.5z" />
<glyph unicode="/" horiz-adv-x="565" d="M-51 -186l545 1697h108l-545 -1697h-108z" />
<glyph unicode="0" d="M43 479q0 57 7 120t40 218.5t177.5 339.5t369.5 184q207 0 305 -140t98 -355q0 -317 -148.5 -595t-436.5 -278q-217 0 -314.5 138.5t-97.5 367.5zM215 391q0 -141 53.5 -242.5t180.5 -101.5q154 0 244.5 153.5t130.5 362.5t40 361q0 139 -53 240.5t-178 101.5 q-207 0 -276.5 -197t-97.5 -343t-36 -203.5t-8 -131.5z" />
<glyph unicode="1" d="M225 1104q143 49 297 113.5t293 132.5l29 -29q-164 -643 -273 -1321q-16 0 -51 6t-55 6t-48 -4t-52 -8q72 295 137 591.5t116 577.5q-164 -74 -222 -102.5t-148 -85.5q-2 31 -7 61.5t-16 61.5z" />
<glyph unicode="2" d="M-8 0l8 76q156 129 331 278.5t302 322.5t127 341q0 102 -58.5 172t-160.5 70q-92 0 -155.5 -56.5t-96.5 -150.5h-33q-8 29 -25.5 59.5t-40.5 58.5q160 170 383 170q168 0 279 -89t111 -255q0 -160 -124 -312.5t-303.5 -288.5t-332.5 -251h266q63 0 209.5 11.5t191.5 11.5 q-20 -61 -20 -115l2 -53l-416 10q-102 0 -261 -5t-183 -5z" />
<glyph unicode="3" d="M4 37q12 51 26.5 96t30.5 94l21 -12q33 -78 107.5 -119t166.5 -41q158 0 269.5 101.5t111.5 259.5q0 98 -56 168.5t-155 70.5q-29 0 -65.5 -6t-71.5 -12l19 108q23 -4 42 -4h39q129 0 217.5 90.5t88.5 219.5q0 94 -59.5 153.5t-155.5 59.5q-92 0 -158 -51.5t-98 -143.5 h-21q-6 31 -15 58.5t-38 84.5q166 131 362 131q143 0 250 -75.5t107 -214.5q0 -109 -73 -194t-280 -152q137 -18 224.5 -87t87.5 -200q0 -201 -179.5 -324t-392.5 -123q-92 0 -186 15.5t-166 48.5z" />
<glyph unicode="4" d="M29 362l14 78q49 55 224 251t352.5 395.5t224.5 254.5q8 -2 26.5 -5t36.5 -5l76 6q-51 -190 -82 -309t-65 -276l-52 -254q41 0 112 4t108 8q-33 -51 -33 -98l4 -52q-51 0 -129 5.5t-86 5.5q-27 -111 -42.5 -200t-15.5 -171l-94 10q-23 0 -61.5 -5t-46.5 -5 q25 80 48 174.5t50 200.5q-102 0 -284.5 -6.5t-284.5 -6.5zM203 492l424 6q41 154 96 385t61 258l-213 -226q-211 -240 -234.5 -267t-133.5 -156z" />
<glyph unicode="5" d="M8 55q23 96 53 181l15 -5q43 -84 96 -130t137 -46q168 0 279.5 112t111.5 277q0 117 -64.5 198t-178.5 81q-45 0 -102.5 -23.5t-106.5 -58.5l-39 27q33 137 63.5 311t51.5 330l319 -4l350 4q-12 -39 -18 -87t-6 -89q-72 0 -213.5 8t-208.5 8l-137 -2l-80 -383 q104 49 227 49q147 0 248.5 -95t101.5 -243q0 -215 -171 -358.5t-390 -143.5q-82 0 -166 21.5t-172 60.5z" />
<glyph unicode="6" d="M76 438q0 334 198.5 615.5t518.5 281.5q41 0 59 -2t86 -14l18 -96q-63 32 -147 32q-215 0 -353.5 -185t-181.5 -423q72 76 159 119t185 43q150 0 255.5 -99.5t105.5 -248.5q0 -203 -142.5 -345.5t-347.5 -142.5q-207 0 -310 127t-103 338zM240 340q0 -117 61 -205 t174 -88q150 0 237 121t87 278q0 109 -68.5 186t-177.5 77q-115 0 -200 -84t-103 -199q-10 -39 -10 -86z" />
<glyph unicode="7" d="M117 0q141 158 262 329t263 395t265 421l-450 -6l-252 -13q20 37 28.5 62.5t8.5 58.5v62l389 -4l477 4v-56q-51 -70 -72.5 -100.5t-54.5 -81.5l-301 -463q-104 -160 -188 -307t-156 -301q-25 0 -55.5 6t-55.5 6t-53.5 -6t-54.5 -6z" />
<glyph unicode="8" d="M39 330q0 168 118.5 278.5t293.5 143.5q-96 25 -155.5 93.5t-59.5 166.5q0 154 130 242.5t289 88.5q139 0 249 -67.5t110 -198.5t-92.5 -217t-231.5 -119q121 -14 200 -105t79 -212q0 -199 -149.5 -325t-354.5 -126q-176 0 -301 93.5t-125 263.5zM225 311 q0 -115 63.5 -188.5t176.5 -73.5q152 0 237.5 125t85.5 285q0 106 -65.5 171.5t-169.5 65.5q-117 0 -206 -85t-105.5 -165t-16.5 -135zM399 995q0 -96 53.5 -159.5t149.5 -63.5q109 0 173.5 86t64.5 201q0 92 -52.5 150.5t-144.5 58.5q-88 0 -152.5 -62.5t-80.5 -152.5 q-7 -19 -11 -58z" />
<glyph unicode="9" d="M61 190l19 5q49 -63 104.5 -100.5t124.5 -37.5q203 0 317.5 176.5t157.5 413.5q-66 -68 -141.5 -101.5t-167.5 -33.5q-158 0 -259 103.5t-101 261.5q0 195 144 330.5t343 135.5q195 0 303.5 -125.5t108.5 -324.5q0 -340 -195.5 -630t-515.5 -290q-47 0 -96 8.5t-103 18.5 q-14 47 -24 94t-19 96zM307 874q0 -111 61.5 -185.5t170.5 -74.5q141 0 224 110t83 255q0 123 -62.5 205t-183.5 82q-102 0 -181 -89.5t-93.5 -162t-16.5 -89t-2 -51.5z" />
<glyph unicode=":" horiz-adv-x="628" d="M76 115q0 14 4 23t12 29.5t39 43t70 22.5q53 0 88 -34.5t35 -87.5t-35 -88t-88 -35q-51 0 -88 36.5t-37 90.5zM229 825l7 49q14 37 44.5 57.5t71.5 20.5q49 0 86 -36.5t37 -86.5q0 -47 -37 -85.5t-86 -38.5t-86 34.5t-37 85.5z" />
<glyph unicode=";" horiz-adv-x="628" d="M-70 -332l211 467q29 61 49.5 85t71.5 24q41 0 62.5 -14.5t21.5 -51.5q0 -25 -11 -48.5t-38 -63.5l-324 -420zM219 827q0 27 19.5 75t101.5 48q51 0 88 -36.5t37 -86.5q0 -49 -38 -87t-87 -38q-51 0 -86 37t-35 88z" />
<glyph unicode="&#x3c;" horiz-adv-x="1679" d="M260 561v80l1157 475v-108l-1003 -406l1003 -412v-106z" />
<glyph unicode="=" horiz-adv-x="1679" d="M250 367v98h1180v-98h-1180zM250 735v96h1180v-96h-1180z" />
<glyph unicode="&#x3e;" horiz-adv-x="1679" d="M260 84v106l1006 412l-1006 406v108l1159 -475v-80z" />
<glyph unicode="?" horiz-adv-x="884" d="M193 104q0 27 21 76t103 49q84 0 101.5 -45t19.5 -55t2 -27q0 -16 -2 -26t-11 -30.5t-43 -42t-73 -21.5q-47 0 -82.5 33.5t-35.5 88.5zM219 580q0 121 111 219q102 76 205 153q113 98 112 215q0 66 -44 110t-111 44q-49 0 -89.5 -23.5t-89.5 -68.5l-24 4l8 70l-2 63 q90 31 203 31q129 0 218 -75t89 -202q0 -145 -111 -250q-106 -78 -220 -159.5t-124 -173.5q0 -57 35 -85t92 -28q29 0 51 8l-24 -86l-33 -2q-106 0 -179 64.5t-73 171.5z" />
<glyph unicode="@" horiz-adv-x="2013" d="M115 518q0 389 288.5 651.5t683.5 262.5q317 0 564 -186.5t247 -495.5q0 -238 -149.5 -432.5t-378.5 -194.5q-76 0 -139.5 30.5t-63.5 98.5l2 49q-45 -82 -123.5 -131t-166.5 -49q-152 0 -231 85t-79 238q0 205 127 371t324 166q92 0 156.5 -39t97.5 -121l59 121h97 l-138 -549l-20 -90q0 -49 32.5 -70.5t84.5 -21.5q176 0 287.5 179t111.5 368q0 268 -212 426.5t-491 158.5q-354 0 -605 -229t-251 -579q0 -332 218.5 -530t553.5 -198q162 0 331 48.5t298 138.5l37 -55q-141 -102 -306 -157.5t-339 -55.5q-375 0 -641 212t-266 580z M688 438q0 -98 54.5 -165.5t150.5 -67.5q109 0 187.5 72.5t109.5 183.5l61 244q-20 84 -76.5 138t-140.5 54q-162 0 -254 -144.5t-92 -314.5z" />
<glyph unicode="A" horiz-adv-x="1191" d="M-131 0q229 322 475 717t387 692l43 -12l49 12q74 -463 98.5 -606.5t73.5 -363.5t121 -439q-23 0 -63.5 5t-53.5 5q-43 0 -73.5 -4t-51.5 -6q0 119 -27.5 275.5t-41.5 240.5l-230 6l-231 -6l-113 -201q-45 -76 -88 -154.5t-84 -160.5q-23 0 -57.5 5t-38.5 5 q-31 0 -55.5 -4t-38.5 -6zM393 621l182 -7l207 7l-96 501z" />
<glyph unicode="B" horiz-adv-x="1120" d="M18 2q88 295 158 648t123 724l150 -6q37 0 127 4t96 4q158 0 272.5 -66.5t114.5 -211.5q0 -162 -116 -247t-296 -116q156 -14 255 -87t99 -218q0 -197 -156.5 -313.5t-359.5 -116.5l-292 6zM242 88q59 -4 87.5 -6t53.5 -2q168 0 297 88t129 248q0 135 -91 204.5 t-233 69.5l-133 -2q-39 -178 -65.5 -315t-44.5 -285zM367 768q215 0 361 59.5t146 245.5q0 109 -67.5 172.5t-175.5 63.5q-33 0 -74 -4.5t-76 -8.5q-27 -98 -59.5 -250.5t-54.5 -277.5z" />
<glyph unicode="C" horiz-adv-x="1292" d="M63 594q0 334 247 572.5t583 238.5q117 0 237.5 -26.5t221.5 -75.5q-23 -35 -42.5 -85.5t-27.5 -95.5h-27q-123 189 -356 189q-283 0 -456 -209t-173 -496q0 -236 109.5 -389.5t339.5 -153.5q131 0 244.5 55.5t228.5 155.5l16 -18q-20 -41 -36.5 -91t-26.5 -102 q-109 -43 -218.5 -66.5t-219.5 -23.5q-106 0 -230 27q-197 53 -305.5 218t-108.5 376z" />
<glyph unicode="D" horiz-adv-x="1490" d="M16 2q76 260 129.5 472t98.5 468t45 432l145 -2l361 4q289 0 459.5 -147.5t170.5 -433.5q0 -381 -275.5 -588t-668.5 -207l-311 6zM244 104q33 0 98 -6t98 -6q332 0 557.5 191.5t225.5 517.5q0 225 -127 356t-355 131q-43 0 -146 -4t-110 -4q-68 -209 -136 -553 t-105 -623z" />
<glyph unicode="E" horiz-adv-x="954" d="M20 0q76 244 161 665.5t120 708.5l346 -6l316 6q-31 -66 -31 -125q-59 10 -116.5 14.5t-125.5 4.5h-207q-18 -55 -38.5 -148.5t-30.5 -140.5l-41 -197h174q102 0 152.5 2t144.5 15q-25 -59 -25 -133q-55 8 -125.5 14t-130.5 6h-209l-47 -227q-16 -76 -31.5 -165 t-29.5 -183q211 0 320.5 5t205.5 17q-10 -27 -15 -48.5t-5 -43.5l2 -41l-459 12q-139 0 -275 -12z" />
<glyph unicode="F" horiz-adv-x="913" d="M20 0q94 322 161 657.5t120 716.5l369 -6l315 6q-23 -55 -35 -125q-57 10 -112.5 14.5t-124.5 4.5h-224q-20 -59 -37.5 -131t-33.5 -156l-39 -199h178q119 0 164 3t131 14q-12 -29 -17.5 -58.5t-9.5 -70.5q-63 8 -121.5 12t-130.5 4h-213l-49 -229q-6 -37 -39.5 -195 t-33.5 -262q-37 4 -64 7t-45 3q-23 0 -61.5 -5t-47.5 -5z" />
<glyph unicode="G" horiz-adv-x="1447" d="M78 575q0 360 240.5 595t601.5 235q125 0 245.5 -32t255.5 -91l-37 -49q-14 -16 -27.5 -49t-23.5 -62l-24 -2q-86 94 -188.5 142.5t-227.5 48.5q-270 0 -437 -214t-167 -491q0 -248 120.5 -398.5t362.5 -150.5q80 0 128 11.5t130 33.5q47 193 66.5 291.5t29.5 188.5 q61 -20 115 -21q25 0 46.5 4t62.5 17q-43 -139 -77 -274.5t-54 -268.5q-233 -33 -467 -66q-84 0 -121 3.5t-175.5 28t-258 192.5t-119.5 378z" />
<glyph unicode="H" horiz-adv-x="1490" d="M20 0q82 272 159 656t122 718l102 -8q20 0 66.5 4t48.5 4q-27 -82 -45 -159.5t-92 -428.5l369 -6l399 6l45 224q27 113 42 197.5t15 166.5q31 -4 63 -7t40 -3q37 0 62.5 3t56.5 7q-98 -301 -168 -651t-115 -723l-105 8q-18 0 -55 -4t-57 -4q33 121 55.5 211t44.5 205 l55 268l-383 2l-385 -2l-47 -225q-41 -217 -73 -459q-20 2 -55 6t-52 4q-25 0 -64.5 -5t-48.5 -5z" />
<glyph unicode="I" horiz-adv-x="567" d="M29 0q98 367 171.5 712t110.5 662q29 -4 53.5 -6t59.5 -2q45 0 71.5 4t39.5 4q-96 -324 -166 -671t-115 -703l-107 8q-49 0 -76.5 -4t-41.5 -4z" />
<glyph unicode="J" horiz-adv-x="567" d="M-229 -238q78 0 141 32t100 97q61 82 125 376t108 592t66 515q47 -4 69.5 -6t43.5 -2q27 0 60.5 3t52.5 5q-57 -227 -102.5 -434t-80.5 -420l-45 -260q-47 -276 -163.5 -427.5t-366.5 -151.5z" />
<glyph unicode="K" horiz-adv-x="1101" d="M20 0q100 346 170 684t111 690l102 -8q20 0 66.5 4t48.5 4q-57 -178 -96 -393l-49 -238l26 -6q55 45 111.5 100.5t89.5 86.5l172 178q61 61 118.5 125.5t123.5 146.5l96 -8l123 8l-99 -81t-118 -101l-150 -139l-317 -303l256 -385l153 -236l76 -102v-27q-27 0 -67.5 5 t-44.5 5q-39 0 -62.5 -3t-52.5 -7q-80 137 -150.5 254t-138.5 219l-135 197h-27l-43 -211q-41 -217 -73 -459q-20 2 -55 6t-52 4q-25 0 -64.5 -5t-48.5 -5z" />
<glyph unicode="L" horiz-adv-x="884" d="M20 0q98 334 173 692t108 682q25 -4 48.5 -6t58.5 -2q25 0 56.5 3t47.5 5q-76 -248 -157 -634t-105 -629q150 0 278.5 6t274.5 22q-27 -49 -27 -98l4 -41l-477 12q-141 0 -283 -12z" />
<glyph unicode="M" horiz-adv-x="1722" d="M2 0q98 326 183 691.5t130 682.5q16 0 56.5 -4t42.5 -4q23 0 51.5 3t44.5 5q6 -37 16.5 -83t20.5 -89l108 -407l140 -519l362 562q166 268 334 536l86 -8q25 0 54.5 3t47.5 5q-76 -266 -152.5 -678.5t-103.5 -695.5q-27 0 -67.5 5t-46.5 5q-23 0 -64 -5t-53 -5 q37 129 70.5 260t62.5 275l121 587l-457 -725l-115 -182q-23 -35 -53 -90t-69 -125h-68q-51 186 -102.5 372.5t-103.5 372t-103 371.5l-90 -436q-33 -164 -66 -349.5t-51 -330.5l-80 8q-12 0 -41 -4t-45 -4z" />
<glyph unicode="N" horiz-adv-x="1476" d="M4 0l96 373l86 370q45 178 74 332t47 318q31 -10 41 -11q6 0 20.5 4.5t22.5 6.5q119 -190 218.5 -340t239.5 -353.5t275 -392.5l121 615q20 98 41 224t33 228l72 -8q23 0 46 3t38 5q-96 -356 -170 -695t-131 -697q-4 2 -16.5 5t-22.5 5q-25 -4 -35 -10q-154 254 -318 483 l-422 594l-96 -451q-31 -150 -58.5 -308.5t-45.5 -299.5q-16 0 -44 5t-34 5q-20 0 -45 -5t-33 -5z" />
<glyph unicode="O" horiz-adv-x="1626" d="M63 571q0 78 40 272.5t271.5 378t532.5 183.5q276 0 466 -155.5t190 -430.5q0 -350 -246 -598t-596 -248q-287 0 -472.5 158t-185.5 440zM272 569q0 -221 121 -363.5t338 -142.5q279 0 452 216.5t173 500.5q0 98 -14.5 179t-62.5 166t-153.5 134.5t-232.5 49.5 q-279 0 -450 -224.5t-171 -515.5z" />
<glyph unicode="P" horiz-adv-x="1048" d="M20 0q100 340 172 686t109 688l119 -6q51 0 138 5t106 5q164 0 282.5 -85t118.5 -242q0 -152 -100.5 -264.5t-218 -135t-215 -29t-187.5 -6.5q-29 -154 -60.5 -326.5t-45.5 -289.5q-37 4 -64 7t-45 3q-23 0 -61.5 -5t-47.5 -5zM360 700q221 0 361.5 68.5t140.5 263.5 q0 123 -80 190.5t-207 67.5l-83 -6q-82 -295 -132 -584z" />
<glyph unicode="Q" horiz-adv-x="1626" d="M68 588q0 336 244.5 576.5t580.5 240.5q293 0 483.5 -163t190.5 -454q0 -213 -108.5 -401t-291.5 -299q-55 -29 -122.5 -52.5t-151.5 -45.5q137 -35 301 -69t293 -54v-12q-20 -29 -36.5 -67t-27.5 -75q-291 115 -429 166t-316 96q-96 8 -205 35q-195 51 -300 210 t-105 368zM274 610q0 -240 112 -392t343 -152q283 0 457 221t174 510q0 215 -127 365.5t-340 150.5q-238 0 -396.5 -164t-185 -305.5t-32 -177.5t-5.5 -56z" />
<glyph unicode="R" horiz-adv-x="1118" d="M20 0q94 322 161 657.5t120 716.5l150 -6l229 6q166 0 292 -73.5t126 -229.5q0 -188 -137.5 -278.5t-350.5 -116.5q217 -367 432 -676l-98 6q-31 0 -67.5 -4t-73.5 -8q-109 195 -234 401l-166 273h-49l-43 -211q-6 -37 -39.5 -195t-33.5 -262q-37 4 -64 7t-45 3 q-23 0 -61.5 -5t-47.5 -5zM369 739q231 0 383.5 61.5t152.5 256.5q0 121 -85 177t-214 56l-112 -8q-35 -121 -68 -265.5t-57 -277.5z" />
<glyph unicode="S" horiz-adv-x="966" d="M-51 115q54 90 74 196h34q31 -111 110 -177t193 -66q135 0 230.5 87t95.5 222q0 133 -139 227q-129 76 -258 154q-141 102 -142 254q0 178 141.5 280.5t327.5 102.5q111 0 199 -22.5t168 -80.5q-20 -37 -38.5 -83t-26.5 -87l-27 4q-49 90 -121 142.5t-168 52.5 q-117 0 -196.5 -69.5t-79.5 -186.5q0 -123 133 -209t262 -164q139 -106 139 -256q0 -205 -155.5 -330.5t-364.5 -125.5q-104 0 -213 34.5t-178 100.5z" />
<glyph unicode="T" horiz-adv-x="987" d="M100 1245q6 14 14.5 62.5t8.5 66.5q74 0 223.5 -7t202.5 -7q100 0 305 7t281 7q-8 -20 -16.5 -42.5t-8.5 -41.5l-2 -20l2 -25q-72 10 -179.5 14.5t-201.5 4.5q-88 -338 -153.5 -659.5t-94.5 -604.5q-29 2 -54.5 5t-57.5 3q-29 0 -61 -3t-50 -5q78 272 145.5 597 t124.5 667q-143 0 -235 -3.5t-193 -15.5z" />
<glyph unicode="U" horiz-adv-x="1462" d="M111 362q0 53 6 88t42 197t74.5 362.5t59.5 364.5l100 -8q23 0 64 4t59 4q-68 -215 -108.5 -353t-69.5 -285.5t-29 -293.5l-2 -34l2 -54q0 -133 106.5 -206.5t248.5 -73.5q117 0 215 47t164.5 150.5t117.5 300t83 413.5t46 389l46.5 -6t39.5 -2q20 0 46 3t40 5 q-78 -307 -137 -594.5t-115.5 -440.5t-192.5 -257.5t-388 -104.5q-213 0 -365.5 91.5t-152.5 293.5z" />
<glyph unicode="V" horiz-adv-x="1091" d="M72 1374q16 0 63 -4t51 -4q18 0 62.5 4t46.5 4q16 -150 36.5 -288t53.5 -343l90 -505l293 548q86 160 152.5 298.5t126.5 289.5l83 -8q25 0 56 3t47 5l-209 -354l-217 -381q-102 -186 -174 -322.5t-160 -316.5l-51 8h-53q-20 -6 -35 -8q-20 225 -57 439t-81 409.5 t-124 525.5z" />
<glyph unicode="W" horiz-adv-x="1738" d="M104 1374l101 -8q18 0 55 4t55 4q0 -137 9.5 -259t29.5 -290l62 -530q143 285 269 549t241 530l75 -8q14 0 43 4t48 4q0 -172 16 -347t45 -372.5t57 -380.5l236 508q133 279 237 592l78 -8q27 0 58.5 3t50.5 5l-103 -168l-131 -272l-202 -412q-59 -119 -115.5 -241.5 t-126.5 -280.5l-62 8q-29 0 -45 -4t-24 -4q-27 279 -58.5 543t-74.5 565q-160 -309 -292 -583.5t-228 -524.5q-31 4 -62 10q-12 0 -29.5 -3t-37.5 -7q-71 708 -175 1374z" />
<glyph unicode="X" horiz-adv-x="1030" d="M-141 0q109 117 163.5 181.5t204.5 242.5l217 262l-174 365l-86 182l-80 141l115 -8q49 0 77 4t42 4q25 -74 59.5 -159t59.5 -140l106 -246l166 230q115 152 217 315l92 -8q49 0 77 4t42 4q-88 -84 -161.5 -165t-170.5 -191l-223 -270l205 -451q68 -152 145 -297l-88 8 l-149 -8q-25 82 -44.5 136t-56.5 140l-131 318l-221 -303q-45 -59 -86 -120.5t-110 -170.5l-86 8q-31 0 -47.5 -1t-73.5 -7z" />
<glyph unicode="Y" horiz-adv-x="983" d="M45 1374q49 -6 62.5 -7t50.5 -1q18 0 64 4t50 4q41 -150 70 -234.5t180 -475.5l217 331q51 82 111.5 184.5t105.5 194.5l86 -8q43 0 67 4t38 4l-158 -203l-137 -192l-289 -408l-45 -223q-33 -174 -49 -348q-27 2 -60.5 6t-52.5 4q-37 0 -60.5 -3t-51.5 -7 q43 133 76.5 294t56.5 267q-84 215 -118 300t-95.5 231.5t-118.5 281.5z" />
<glyph unicode="Z" horiz-adv-x="1157" d="M-39 0v35q272 336 498.5 626.5t460.5 614.5l-250 -4q-111 0 -215.5 -9.5t-247.5 -25.5q12 35 17 59.5t12 77.5q68 0 229.5 -4t173.5 -4l158 2l405 6v-24q-176 -223 -304 -389t-291 -379t-359 -476l239 5q137 0 251 8t362 31q-14 -25 -25.5 -67t-15.5 -83q-115 0 -342.5 6 t-341.5 6q-104 0 -199.5 -1t-214.5 -11z" />
<glyph unicode="[" horiz-adv-x="548" d="M-10 -201q168 770 321 1590l135 -5l136 5l-15 -80l-84 6l-47 -2q-49 -231 -87 -412.5t-100.5 -498t-103.5 -529.5l76 -4l72 4l-19 -74l-141 2z" />
<glyph unicode="\" horiz-adv-x="565" d="M82 1511h106l271 -1697h-105z" />
<glyph unicode="]" horiz-adv-x="548" d="M-68 -201l13 78l82 -6l47 2q33 150 82 387.5t115.5 577.5t93.5 477l-70 4l-72 -4l13 76l145 -2l143 2q-35 -160 -92 -438.5t-124.5 -618.5t-104.5 -535l-135 2z" />
<glyph unicode="^" horiz-adv-x="493" d="M12 1098l305 344h113l164 -344h-74l-162 211l-247 -211h-99z" />
<glyph unicode="_" horiz-adv-x="1007" d="M0 -377h1008v-100h-1008v100z" />
<glyph unicode="`" horiz-adv-x="552" d="M166 866q0 27 11 51.5t36 59.5l328 420l41 -19l-213 -469q-12 -45 -44 -76.5t-77 -31.5q-37 0 -59.5 11t-22.5 54z" />
<glyph unicode="a" horiz-adv-x="944" d="M-18 215q0 184 159 252q154 39 317 83t181 177q0 84 -46 134t-130 50q-176 0 -264 -157l-33 8q6 25 10 46t4 48l-2 51q88 43 149.5 63.5t135.5 20.5q133 0 233.5 -57t100.5 -182q0 -39 -8.5 -96.5t-18.5 -100.5l-65 -344q-6 -37 -13 -74q0 -18 18.5 -40.5t37.5 -24.5 q14 0 31.5 4t37.5 10l29 -51q-84 -51 -176 -51q-66 0 -97.5 38.5t-46.5 108.5q-68 -76 -133 -113.5t-153 -37.5q-109 0 -183.5 63t-74.5 172zM150 238q0 -68 43 -111t110 -43q80 0 157 61.5t93 141.5l43 225q-231 -49 -338.5 -93t-107.5 -181z" />
<glyph unicode="b" horiz-adv-x="1128" d="M-16 0q51 190 99 414.5t85 416t86 465.5l39 215q23 -4 50.5 -9t47.5 -5q25 0 53.5 6t44.5 8q-49 -164 -102 -405.5t-61 -282.5q68 80 153.5 122t188.5 42q164 0 256 -117.5t92 -289.5q0 -242 -146.5 -422.5t-382.5 -180.5q-94 0 -171.5 34t-151.5 102q-59 -43 -113 -113 h-67zM238 330q0 -111 60 -189t171 -78q135 0 221 113t106.5 218.5t25.5 137t5 72.5q0 117 -53 199t-166 82q-188 0 -279 -173t-91 -382z" />
<glyph unicode="c" horiz-adv-x="923" d="M18 403q0 238 159 411t392 173q84 0 166 -20.5t170 -59.5q-20 -45 -33.5 -85t-21.5 -85h-33q-39 80 -98.5 126t-140.5 46q-178 0 -274.5 -165.5t-96.5 -358.5q0 -127 67.5 -221t190.5 -94q88 0 173 34.5t130 102.5l33 -23q-18 -39 -29.5 -64.5t-21.5 -64.5 q-139 -78 -297 -78q-186 0 -310.5 120t-124.5 306z" />
<glyph unicode="d" horiz-adv-x="1128" d="M25 383q0 236 147 420t379 184q94 0 177 -59.5t118 -149.5l47 223q16 80 45 240t45 270q35 -6 60.5 -10t39.5 -4q25 0 54.5 6t46.5 8q-109 -356 -185.5 -732t-132.5 -779l-86 4l-94 -4l41 139q-90 -80 -169 -119.5t-181 -39.5q-164 0 -258 117.5t-94 285.5zM213 354 q0 -117 51 -197.5t166 -80.5q162 0 250 131t101.5 228t15.5 123t2 40q0 51 -1 64.5t-5 21.5q-14 86 -76 137t-150 51q-135 0 -221 -110.5t-104.5 -202.5t-23.5 -139.5t-5 -65.5z" />
<glyph unicode="e" horiz-adv-x="978" d="M16 399q0 236 156 412t387 176q152 0 250 -110.5t98 -264.5q0 -20 -4 -69t-4 -51l-338 4l-340 -4q-6 -31 -8 -67t-2 -77q0 -123 72.5 -201.5t193.5 -78.5q80 0 164 44t154 113l22 -22q-29 -63 -47 -131q-70 -45 -155 -72t-171 -27q-190 0 -309 117t-119 309zM238 573 l241 -2l244 2l6 97q0 96 -48 168.5t-142 72.5q-121 0 -197 -101t-104 -237z" />
<glyph unicode="f" horiz-adv-x="563" d="M10 872q14 35 19.5 49.5t11.5 45.5q47 -6 93 -10.5t91 -4.5q35 211 141.5 385t284.5 174q49 0 59.5 -3t47.5 -27q-10 -35 -16.5 -58.5t-26.5 -119.5l-15 -7q-20 25 -49.5 47.5t-81.5 30.5q-127 0 -156.5 -119.5t-29.5 -302.5l233 17q-6 -18 -8 -45t-2 -52q-41 0 -134 4.5 t-99 4.5l-68 -377q-23 -125 -45 -264.5t-22 -239.5l-103 6l-96 -6q47 207 93 442.5t79 438.5h-125q-51 -6 -76 -9z" />
<glyph unicode="g" horiz-adv-x="940" d="M-135 -244q0 102 73.5 178t182.5 117q-59 18 -90 55t-31 99q14 72 65.5 117t135.5 81q-66 49 -99.5 103.5t-33.5 128.5q0 162 127 258t294 96q43 0 138.5 -23.5t128.5 -23.5q49 0 125.5 5t91.5 5q-8 -16 -17.5 -45.5t-13.5 -46.5q-47 4 -83 6t-87 2q39 -49 58.5 -90 t19.5 -92q0 -164 -128 -253t-300 -89q-29 0 -90.5 11.5t-79.5 11.5q-37 0 -69.5 -37t-32.5 -76q0 -80 218 -107.5t324.5 -64.5t106.5 -203q0 -190 -168 -308t-369 -118q-154 0 -275.5 78t-121.5 225zM2 -238q0 -109 83 -168t194 -59q139 0 246.5 78t107.5 211 q0 166 -242 190q-156 8 -211 13q-82 -53 -130 -116t-48 -149zM244 623q0 -84 45 -142.5t129 -58.5q117 0 187.5 85t70.5 206q0 90 -50.5 148.5t-140.5 58.5q-109 0 -175 -92.5t-66 -204.5z" />
<glyph unicode="h" horiz-adv-x="1128" d="M6 0q98 334 188.5 791.5t90.5 719.5q29 -6 43 -8t45 -2q18 0 35.5 1t68.5 9q-23 -82 -57.5 -257t-38.5 -193l-51 -273q68 94 166 146.5t211 52.5q115 0 196.5 -67.5t81.5 -178.5q0 -137 -55.5 -411.5t-63.5 -329.5l-98 12q-20 0 -47 -4t-51 -8q61 195 97 366t36 326 q0 78 -46 128t-124 50l-25 -2q-176 -27 -258 -166t-106.5 -334.5t-42.5 -367.5q-16 0 -52 5t-45 5q-23 0 -58.5 -5t-39.5 -5z" />
<glyph unicode="i" horiz-adv-x="493" d="M12 0q78 266 128 514t50 453q55 -12 107 -13q55 0 104 13q-80 -266 -127 -507t-47 -460q-23 2 -54.5 6t-49.5 4q-37 0 -64.5 -4t-46.5 -6zM246 1317q0 41 28.5 71.5t71.5 30.5q39 0 67.5 -28.5t28.5 -71.5q0 -41 -27.5 -70.5t-68.5 -29.5q-43 0 -71.5 28.5t-28.5 69.5z " />
<glyph unicode="j" horiz-adv-x="497" d="M-207 -496q113 10 161 93.5t73 220.5l63 340q33 201 69 420t36 389q53 -12 104 -13q51 0 94 13q-41 -190 -73.5 -383t-67.5 -423.5t-68.5 -362.5t-124 -242.5t-254.5 -110.5zM240 1317q0 41 30.5 71.5t73.5 30.5q39 0 66.5 -27.5t27.5 -68.5q0 -43 -28.5 -73.5 t-71.5 -30.5q-41 0 -69.5 28.5t-28.5 69.5z" />
<glyph unicode="k" horiz-adv-x="976" d="M6 0q205 747 273 1511q23 -4 42 -7t52 -3q18 0 35.5 1t68.5 9l-39 -143l-57 -307l-90 -492l35 -4q123 68 226 162t236 240q57 -10 107 -11q39 0 94 11l4 -23q-47 -29 -135 -90t-170 -121l-219 -162q197 -283 428 -571q-20 0 -63 5t-54 5q-39 0 -68.5 -4t-47.5 -6 q-98 154 -174 262.5t-175 235.5l-41 -2q-18 -109 -37.5 -241t-35.5 -255q-16 0 -52 5t-45 5q-23 0 -58.5 -5t-39.5 -5z" />
<glyph unicode="l" horiz-adv-x="497" d="M12 0q96 346 172 747.5t111 763.5q33 -6 47 -8t47 -2q47 0 109 10q-88 -346 -165 -749.5t-120 -761.5q-25 2 -53.5 6t-46.5 4q-33 0 -54.5 -3t-46.5 -7z" />
<glyph unicode="m" horiz-adv-x="1765" d="M6 0q74 238 126 502t52 465l86 -13q51 0 101 13q-37 -106 -54 -195q78 104 172.5 159.5t210.5 55.5q225 0 256 -215q78 98 178.5 156.5t215.5 58.5q113 0 192.5 -67.5t79.5 -180.5q0 -23 -4 -61.5t-8 -56.5l-76 -416l-31 -205q-47 6 -92 12q-16 0 -49 -6t-51 -6 q53 176 90 360.5t37 331.5q0 84 -38 130t-128 46q-176 0 -263 -145t-122 -377q-18 -174 -35 -346q-14 0 -47 6t-49 6q-18 0 -48 -5t-49 -7q53 178 90 362.5t37 329.5q0 80 -44 128t-121 48q-178 0 -264.5 -143t-113 -348t-44.5 -377q-20 0 -54 5t-41 5q-23 0 -58.5 -5 t-39.5 -5z" />
<glyph unicode="n" horiz-adv-x="1128" d="M6 0q74 238 126 502t52 465l86 -13q51 0 101 13q-33 -94 -52 -195q84 102 176.5 158.5t209.5 56.5q119 0 198.5 -67.5t79.5 -186.5q0 -41 -6 -88t-16 -90l-54 -291q-12 -63 -23.5 -142t-17.5 -122l-98 12q-20 0 -47 -4t-51 -8q53 178 93 366.5t40 325.5q-8 82 -51 129 t-123 47q-178 0 -266.5 -145t-116 -348t-45.5 -375q-16 0 -52 5t-45 5q-23 0 -58.5 -5t-39.5 -5z" />
<glyph unicode="o" horiz-adv-x="1122" d="M16 401q0 55 11.5 110.5t53.5 166t171 210t297 99.5q213 0 347 -107.5t134 -318.5q0 -227 -157.5 -404t-380.5 -177q-211 0 -343.5 106.5t-132.5 314.5zM199 348q0 -127 62.5 -210t184.5 -83q190 0 292 181.5t102 386.5q0 121 -69 205.5t-189 84.5q-131 0 -221.5 -103 t-127.5 -247q-34 -109 -34 -215z" />
<glyph unicode="p" horiz-adv-x="1128" d="M-121 -551q33 111 55.5 195t32.5 141q63 293 130 610.5t91 569.5q43 -8 88 -9q23 0 51.5 3.5t43.5 5.5l-39 -144q66 78 153.5 122t186.5 44q166 0 262 -117.5t96 -289.5q0 -233 -147.5 -416.5t-376.5 -183.5q-98 0 -177 56t-116 150l-45 -223q-25 -117 -47.5 -243 t-46.5 -271q-20 4 -47 8t-47 4q-23 0 -48.5 -4t-52.5 -8zM258 354q0 -113 58.5 -188.5t166.5 -75.5q141 0 228.5 109.5t103.5 203t23.5 138.5t7.5 59q0 115 -54.5 201t-164.5 86q-182 0 -275.5 -168t-93.5 -365z" />
<glyph unicode="q" horiz-adv-x="1128" d="M35 387q0 238 150.5 419t383.5 181q98 0 170 -53t113 -150q16 96 19 120t3 61q16 -4 41 -6.5t48 -2.5t50 3.5t44 5.5q-53 -205 -90 -385.5t-172 -913.5l-37 -217q-25 6 -44.5 9t-54.5 3q-37 0 -55 -3t-43 -9q49 166 86 326l58 270l22 96q-76 -76 -156 -118.5t-176 -42.5 q-166 0 -263 117.5t-97 289.5zM221 356q0 -113 53.5 -195.5t161.5 -82.5q182 0 275.5 167t93.5 365q0 115 -60.5 191t-173.5 76q-135 0 -220 -111t-107.5 -223.5t-22.5 -186.5z" />
<glyph unicode="r" horiz-adv-x="667" d="M6 0q72 233 125 500.5t53 468.5l86 -13q47 0 95 13q-29 -106 -43 -199q59 90 131.5 153.5t156.5 63.5q37 -6 58 -8q-14 -41 -21.5 -81t-7.5 -87q-47 6 -92 12q-197 0 -245 -194.5t-101 -628.5q-16 0 -52 5t-45 5q-23 0 -58.5 -5t-39.5 -5z" />
<glyph unicode="s" horiz-adv-x="776" d="M-35 76q12 49 25.5 94t34.5 94h36q12 -90 74 -147.5t154 -57.5q82 0 143.5 47.5t61.5 126.5q0 121 -207 213.5t-207 237.5q0 135 99.5 219t238.5 84q74 0 142.5 -16.5t129.5 -55.5q-31 -74 -51 -163h-27q-29 80 -76 118.5t-128 38.5q-63 0 -119 -51t-56 -115 q0 -100 208 -195t208 -226q0 -156 -109.5 -250.5t-269.5 -94.5q-80 0 -163.5 26t-141.5 73z" />
<glyph unicode="t" horiz-adv-x="638" d="M49 864q8 20 12.5 47t4.5 56q31 -6 71.5 -10.5t108.5 -4.5q10 49 23.5 119t21.5 129q51 10 86 22.5t94 41.5l16 -21l-55 -209l-18 -82q121 0 229 15q-2 -6 -10 -46t-8 -57q-59 8 -109.5 10.5t-120.5 2.5l-106 -482q-16 -59 -23.5 -101t-7.5 -89q0 -57 35 -90t92 -33 q35 0 54.5 6t72.5 31l-8 -76q-51 -27 -102.5 -44t-102.5 -17q-90 0 -154.5 49t-64.5 137q0 45 13 108.5t20 92.5l116 508q-53 0 -94 -2.5t-86 -10.5z" />
<glyph unicode="u" horiz-adv-x="1128" d="M63 229q0 102 37 301t84 437q53 -14 95 -15q23 0 48 4.5t52 10.5q-74 -272 -103.5 -405.5t-29.5 -289.5q0 -72 33.5 -120t105.5 -56q279 0 349.5 219.5t113.5 651.5q47 -12 98 -13q49 0 98 13q-66 -215 -122 -498t-56 -469l-90 8q-23 0 -51.5 -3t-44.5 -5q35 92 49 190 q-78 -102 -171 -156t-214 -54t-201 65.5t-80 183.5z" />
<glyph unicode="v" horiz-adv-x="892" d="M23 967q55 -12 104 -13q51 0 104 13q18 -209 58 -398l73 -393l183 322q61 106 110.5 211.5t112.5 257.5q41 -12 80 -13q49 0 96 13q-158 -227 -296 -464t-271 -503q-25 4 -41.5 7t-28.5 3q-25 0 -44 -4t-32 -6q-25 156 -60.5 328t-64 295t-83.5 344z" />
<glyph unicode="w" horiz-adv-x="1497" d="M33 967q47 -12 102 -13q49 0 96 13q18 -176 45 -359.5t62 -388.5l149 273q59 109 114.5 224t111.5 251q37 -12 80 -13q41 0 71 13q0 -127 37 -305.5t55 -268.5l41 -207l144 269q76 154 125 265t98 247q16 -4 35.5 -7.5t34.5 -5.5q47 0 94 13q-135 -240 -279.5 -499 t-240.5 -468q-16 0 -42 5t-32 5q-12 0 -37 -5t-33 -5q-25 160 -46 269.5t-97 486.5q-190 -358 -377 -756l-70 8q-16 0 -37.5 -3t-35.5 -5q-62 488 -168 967z" />
<glyph unicode="x" horiz-adv-x="907" d="M-98 0l288 305l156 168q-63 125 -127.5 244t-140.5 250q53 -12 108 -13q53 0 107 13q37 -98 72.5 -178t91.5 -195q125 156 174 217t110 156q37 -12 76 -13q45 0 101 13l-250 -262l-172 -187l100 -199q45 -96 72.5 -145t103.5 -174q-25 0 -65.5 5t-47.5 5q-25 0 -63.5 -5 t-44.5 -5q-33 86 -52.5 133t-115.5 262q-74 -86 -157 -193.5t-146 -201.5q-18 0 -49 5t-39 5q-18 0 -50 -5t-40 -5z" />
<glyph unicode="y" horiz-adv-x="892" d="M-72 -551q68 88 129 176q49 78 74 115l121 209l-80 377l-76 362l-76 279q31 -6 56.5 -10.5t52.5 -4.5q20 0 44 3t65 12q25 -240 61 -422l78 -383l145 268q72 125 134.5 250t134.5 287q47 -14 88 -15q18 0 39.5 3t48.5 12q-244 -369 -463 -754t-395 -764l-60 10 q-31 0 -61.5 -2t-59.5 -8z" />
<glyph unicode="z" horiz-adv-x="933" d="M-51 -6v51q256 269 510 580l200 243q-164 0 -264 -2t-231 -14l6 74l-2 41q90 -8 118.5 -9.5t63.5 -1.5q133 0 339 5.5t241 5.5v-37q-168 -186 -250 -279.5t-209 -246t-244 -302.5q154 0 288 6.5t286 22.5q-10 -31 -20.5 -65.5t-12.5 -65.5q-70 0 -207 6t-207 6 q-193 0 -405 -18z" />
<glyph unicode="{" horiz-adv-x="1007" d="M172 469v104q158 0 224.5 60.5t66.5 218.5v235q0 156 37 245t164 110q80 8 174 8v-102l-113 -5q-68 -8 -104.5 -57t-36.5 -115v-71v-240q0 -135 -40 -220t-155 -120q111 -31 153 -118t42 -218v-237q0 -109 25.5 -169.5t86 -70.5t87 -10h55.5v-105q-160 0 -266.5 53.5 t-106.5 196.5l-2 115v236q0 94 -27.5 167.5t-103.5 92.5q-47 14 -93 15t-67 1z" />
<glyph unicode="|" horiz-adv-x="1007" d="M449 -346v745h108v-745h-108zM449 662v747h108v-747h-108z" />
<glyph unicode="}" horiz-adv-x="1007" d="M170 -303q121 0 187.5 35t66.5 145v70v237q0 133 40 217t152 119q-121 41 -156.5 118t-35.5 222v240q0 104 -25.5 166.5t-115.5 79.5l-113 2v102q223 0 298 -63.5t75 -184.5l2 -115v-235q0 -135 53 -207t182 -72h56v-104q-154 0 -222.5 -59.5t-68.5 -216.5v-236 q0 -229 -72 -297t-303 -68v105z" />
<glyph unicode="~" horiz-adv-x="2015" d="M420 961q0 170 83 285.5t251 115.5q139 0 274 -147.5t232 -147.5q121 0 170 82t49 213h114q0 -174 -83 -287.5t-253 -113.5q-113 0 -276.5 145t-226.5 145q-117 0 -169.5 -83t-52.5 -207h-112z" />
<glyph unicode="&#xa3;" d="M-23 0l17 145l26 -2q186 0 246 150.5t60 374.5h-96.5t-102.5 -6l16 90q31 0 92.5 -4.5t92.5 -4.5q0 23 1 42.5t9 80.5q0 188 136 332.5t327 144.5q94 0 180 -41.5t133 -119.5q-72 -61 -119 -123l-37 10q0 88 -37.5 143.5t-119.5 55.5q-156 0 -220.5 -168t-64.5 -357 l176 -2l199 11q-12 -20 -16.5 -45t-4.5 -58q-170 14 -360 15q-20 -193 -78.5 -299.5t-212.5 -223.5l238 -4q102 0 290.5 8.5t229.5 8.5l-14 -164q-109 0 -309.5 9t-223.5 9q-80 0 -261 -4t-192 -4z" />
<glyph unicode="&#xa5;" d="M57 424l21 80q55 0 138 -3t85 -3h127l27 145l-346 -4l14 82l311 -6q-61 160 -111.5 277.5t-140.5 316.5q14 0 49 -4.5t54 -4.5q14 0 44.5 4.5t47.5 4.5q27 -88 57.5 -174t63.5 -172l86 -232l147 219q111 168 211 359l80 -9q18 0 59 4.5t43 4.5q-90 -111 -152.5 -192 t-135.5 -183l-162 -219l311 6l-14 -82l-353 4l-26 -145q84 0 172 2l176 4l-16 -80q-57 0 -173 2t-173 2q-23 -100 -41.5 -224t-30.5 -204q-29 2 -53.5 5t-59.5 3l-94 -8q33 96 58.5 197.5t52.5 230.5q-59 0 -177 -2t-176 -2z" />
<glyph unicode="&#xa6;" horiz-adv-x="1468" d="M23 449q0 281 191.5 401.5t490.5 120.5q29 123 48 241.5t40 276.5q31 -6 50 -8t54 -2q27 0 45.5 2t52.5 8q-43 -170 -71.5 -291t-49.5 -235q215 -29 355.5 -145t140.5 -320q0 -242 -179 -380t-427 -138l-82 4q-49 -233 -86 -535q-37 10 -68 10q-35 0 -64.5 -1t-70.5 -9 q43 156 74 282t49 255q-201 0 -347 130t-146 333zM213 444q0 -156 85 -270.5t232 -114.5l162 840q-221 0 -350 -116t-129 -339zM702 57h52q203 0 315.5 128t112.5 335q0 150 -85 251t-235 122z" />
<glyph unicode="&#xa7;" horiz-adv-x="995" d="M10 -104q27 51 39 87.5t12 79.5l25 -2q51 -94 123 -149t170 -55q102 0 173 59t71 160q0 115 -127 207q-119 76 -238 151q-129 100 -129 234q0 84 48 149.5t130 120.5q-18 35 -28.5 66.5t-10.5 68.5q0 131 107.5 228.5t245.5 97.5q76 0 149.5 -25.5t122.5 -73.5 q-10 -16 -22.5 -37.5t-41.5 -78.5h-26q-41 61 -91 97t-116 36q-82 0 -142.5 -54.5t-60.5 -136.5q0 -102 122 -182t241 -151q127 -98 127 -232q0 -74 -45 -141.5t-113 -120.5q43 -66 43 -156q0 -156 -118 -267.5t-271 -111.5q-205 0 -369 132zM250 741q0 -98 150.5 -203.5 t279.5 -191.5q33 31 57.5 73t24.5 83q0 82 -144.5 189.5t-265.5 197.5q-45 -25 -73.5 -63t-28.5 -85z" />
<glyph unicode="&#xa8;" horiz-adv-x="892" d="M158 866q0 25 15 54.5t30 56.5l329 420l41 -19l-213 -469q-31 -68 -56 -88t-64 -20l-41 6q-18 6 -29.5 15t-11.5 44zM547 868q0 33 15.5 59.5t33.5 49.5l326 420l41 -19l-211 -469l-25 -53q-14 -31 -36.5 -43t-61.5 -12t-60.5 15t-21.5 52z" />
<glyph unicode="&#xa9;" horiz-adv-x="1679" d="M119 711q0 295 213 508t508 213q190 -1 362 -99q166 -94 261.5 -261t95.5 -361q0 -295 -214.5 -507t-506.5 -212q-293 0 -506 213t-213 506zM197 711q0 -258 190.5 -450.5t448.5 -192.5q260 0 452.5 190.5t192.5 448.5q0 172 -84 322.5t-235.5 237.5t-321.5 87 q-262 0 -452.5 -190.5t-190.5 -452.5zM461 702q0 186 100.5 320.5t284.5 134.5q123 0 213 -69.5t112 -190.5h-114q-16 78 -74.5 123t-138.5 45q-127 0 -191.5 -104.5t-64.5 -237.5q0 -139 58.5 -251t180.5 -112q86 0 153 52.5t85 132.5h115q-16 -127 -116.5 -203t-234.5 -76 q-172 0 -270 129t-98 307z" />
<glyph unicode="&#xab;" horiz-adv-x="884" d="M68 522q160 186 210.5 246t159.5 193q6 -20 14.5 -37t22.5 -33q-59 -96 -130 -192.5t-146 -188.5q53 -129 85.5 -226.5t55.5 -215.5q-14 -14 -28.5 -36t-22.5 -32q-51 133 -103.5 256t-117.5 266zM440 522l373 439q10 -41 35 -70q-57 -96 -121.5 -183t-155.5 -198 q41 -102 80 -219t64 -223q-16 -14 -30.5 -36t-22.5 -32q-51 133 -103.5 256t-118.5 266z" />
<glyph unicode="&#xac;" horiz-adv-x="794" d="M72 1104q154 51 279.5 103.5t312.5 142.5l26 -29q-162 -651 -270 -1321q-18 0 -53 6t-54 6q-20 0 -47.5 -4t-54.5 -8q147 587 256 1169q-150 -68 -218.5 -100.5t-152.5 -85.5q-4 31 -8 59.5t-16 61.5z" />
<glyph unicode="&#xad;" horiz-adv-x="1007" d="M-49 428l22 125h1004l-21 -125h-1005z" />
<glyph unicode="&#xae;" horiz-adv-x="1679" d="M119 711q0 295 213 508t508 213q190 -1 362 -99q166 -94 261.5 -261t95.5 -361q0 -295 -214.5 -507t-506.5 -212q-293 0 -506 213t-213 506zM197 711q0 -258 190.5 -450.5t448.5 -192.5q260 0 452.5 190.5t192.5 448.5q0 172 -84 322.5t-235.5 237.5t-321.5 87 q-262 0 -452.5 -190.5t-190.5 -452.5zM557 309v828h301q143 0 242.5 -47.5t99.5 -174.5q0 -84 -56.5 -145t-137.5 -80l186 -381h-141l-177 365h-192v-365h-125zM682 756h154q100 0 168.5 28.5t68.5 114.5q0 92 -68.5 124t-170.5 32h-152v-299z" />
<glyph unicode="&#xb0;" horiz-adv-x="1007" d="M375 1284q0 113 78.5 196t189.5 83q90 0 155.5 -56.5t65.5 -144.5q0 -115 -83 -200t-197 -85q-84 0 -146.5 60.5t-62.5 146.5zM473 1268q6 -55 35 -91t80 -36q78 0 127 66.5t49 148.5q0 63 -32 104t-93 41q-82 0 -124 -72.5t-42 -160.5z" />
<glyph unicode="&#xb1;" horiz-adv-x="1679" d="M250 49v98h1180v-98h-1180zM250 711v96h541v344h100v-344h539v-96h-539v-344h-100v344h-541z" />
<glyph unicode="&#xb2;" horiz-adv-x="731" d="M-4 522l4 49q250 184 376 302t126 262q0 63 -39 104t-105 41q-57 0 -102 -34t-68 -91h-18q-10 37 -43 72q53 53 116.5 77.5t139.5 24.5q102 0 178 -54t76 -153q0 -168 -193.5 -302t-308.5 -210h55h50q61 0 136.5 1.5t196.5 15.5q-4 -12 -10 -36t-6 -36l4 -33 q-47 0 -156.5 4t-115.5 4q-49 0 -168 -4t-125 -4z" />
<glyph unicode="&#xb3;" horiz-adv-x="731" d="M2 543l35 114l16 -4q27 -51 73 -74.5t107 -23.5q102 0 179 59.5t77 159.5q0 61 -38.5 102.5t-102.5 41.5l-90 -9q8 27 12 64l52 -2q68 0 130 47t70 115q0 70 -34.5 110.5t-104.5 40.5q-121 0 -170 -117h-14q-6 41 -35 84q104 80 242 80q90 0 161.5 -45t71.5 -135 q0 -84 -66.5 -130t-164.5 -71q84 -8 145 -51t61 -123q0 -135 -128 -203.5t-275 -68.5q-57 0 -90 7t-119 32z" />
<glyph unicode="&#xb4;" horiz-adv-x="552" d="M162 819l215 473q16 49 45 78t76 29q39 0 61.5 -14.5t22.5 -53.5q0 -27 -13.5 -52.5t-38.5 -55.5l-325 -422z" />
<glyph unicode="&#xb6;" horiz-adv-x="870" d="M256 1059q0 117 135 242.5t352 125.5h344l-18 -86h-86l-283 -1335h-86l283 1335h-162l-282 -1335h-86l172 817q-123 0 -203 64.5t-80 171.5z" />
<glyph unicode="&#xb9;" horiz-adv-x="731" d="M201 1186q231 82 247.5 88t143.5 59l18 -14q-51 -188 -96 -387t-84 -410q-31 8 -68 8q-31 0 -47 -4t-22 -4q103 355 166 705q-61 -27 -124 -53.5t-122 -61.5q0 37 -12 74z" />
<glyph unicode="&#xbb;" horiz-adv-x="884" d="M-10 70q53 96 106.5 168.5t165.5 214.5q-96 217 -141 440l53 68q45 -123 95 -243t124 -282l-373 -436q-8 35 -30 70zM360 70q57 98 109.5 169.5t165.5 213.5q-51 127 -85 226t-56 214q14 14 29.5 34.5t23.5 33.5q49 -133 80.5 -209t140.5 -316q-80 -90 -184.5 -212 t-190.5 -224q-8 31 -33 70z" />
<glyph unicode="&#xbd;" horiz-adv-x="1728" d="M199 1194q117 39 195.5 67.5t176.5 71.5l19 -14q-51 -178 -87 -336t-85 -405l-68 6l-63 -6q49 162 88.5 326.5t70.5 328.5q-92 -35 -134 -53.5t-99 -53.5q0 18 -6 38t-8 30zM258 -184l1112 1681h123l-1116 -1681h-119zM1024 0l8 41q281 211 379 300t98 228 q0 57 -36.5 96.5t-98.5 39.5q-55 0 -98 -31t-62 -84h-20q-16 41 -43 65q102 98 246 99q94 0 167.5 -52.5t73.5 -144.5q0 -152 -184 -279.5t-293 -199.5q82 0 229.5 7t190.5 7q-14 -37 -14 -65l2 -27l-260 4z" />
<glyph unicode="&#xc4;" horiz-adv-x="1193" d="M-133 0q145 201 311 455t312.5 503.5t240.5 450.5l45 -10l49 10q37 -236 78 -481.5t93.5 -483t119.5 -444.5q-23 0 -63.5 5t-53.5 5q-41 0 -72.5 -4t-52.5 -6q0 117 -27.5 273.5t-41.5 242.5l-227 6l-236 -6l-111 -199q-109 -190 -114.5 -201.5t-59.5 -115.5q-18 0 -51 5 t-43 5q-29 0 -54.5 -4t-41.5 -6zM393 621q31 0 92.5 -2.5t92.5 -2.5q33 0 100 2.5t104 2.5l-94 501zM535 1669q0 45 32.5 76t77.5 31q43 0 72 -33q33 -33 33 -78t-33 -72.5t-74 -27.5q-43 0 -75.5 30.5t-32.5 73.5zM885 1669q0 43 29.5 75t74.5 32q41 0 74 -33t33 -76 t-33 -72.5t-74 -29.5q-43 0 -73.5 30.5t-30.5 73.5z" />
<glyph unicode="&#xc9;" horiz-adv-x="954" d="M20 0q78 250 162 671.5t117 702.5l350 -4l314 4q-23 -53 -33 -125q-66 12 -119 16.5t-121 4.5h-207q-23 -70 -34 -120t-33 -171l-43 -197h172q121 0 166 3t131 14q-23 -61 -23 -133q-82 12 -135 17t-119 5l-215 -2l-43 -227q-16 -80 -29.5 -160t-29.5 -188q207 0 318.5 6 t207.5 16q-12 -35 -16 -51t-4 -43v-39l-459 12q-139 0 -275 -12zM506 1509l289 293q35 33 59.5 48.5t54.5 15.5q31 0 53.5 -27t22.5 -57q0 -27 -18.5 -43.5t-55.5 -38.5l-317 -191h-88z" />
<glyph unicode="&#xd6;" horiz-adv-x="1626" d="M63 573q0 82 40 273.5t271.5 375t534.5 183.5q276 0 466 -155.5t190 -430.5q0 -352 -247 -599t-597 -247q-289 0 -473.5 159t-184.5 441zM274 571q0 -223 119 -365.5t338 -142.5q281 0 453 215.5t172 501.5q0 98 -14.5 180t-62.5 167t-151.5 133.5t-230.5 48.5 q-285 0 -454 -223.5t-169 -514.5zM713 1669q0 45 30.5 76t75.5 31q41 0 73 -34t32 -77t-33 -71.5t-74 -28.5q-43 0 -73.5 30.5t-30.5 73.5zM1059 1669q0 43 31.5 75t76.5 32q43 0 73 -34t30 -77t-32 -71.5t-75 -28.5t-73.5 30.5t-30.5 73.5z" />
<glyph unicode="&#xd7;" horiz-adv-x="1679" d="M299 127l475 475l-475 473l68 68l473 -475l473 475l71 -68l-473 -473l473 -475l-71 -70l-473 473l-473 -473z" />
<glyph unicode="&#xdc;" horiz-adv-x="1464" d="M111 360q0 45 14 114t44 202t64.5 316.5t59.5 381.5l100 -6l123 6q-78 -248 -130 -477t-77 -455l-2 -36l2 -58q0 -131 107.5 -203.5t247.5 -72.5q117 0 215 47t184 179t155.5 477t69.5 599l90 -6l86 6q-78 -307 -138 -594.5t-116.5 -441.5t-192.5 -259.5t-388 -105.5 q-215 0 -366.5 92.5t-151.5 294.5zM680 1669q0 43 31.5 75t76.5 32q43 0 72 -33q33 -33 33 -76q0 -47 -33 -74.5t-72 -27.5q-43 0 -75.5 30.5t-32.5 73.5zM1026 1669q0 43 32 75t77 32q41 0 71.5 -32t30.5 -79q0 -43 -29.5 -71.5t-74.5 -28.5q-41 0 -74 30.5t-33 73.5z" />
<glyph unicode="&#xdf;" horiz-adv-x="1101" d="M12 0l62 276q39 242 88 536t161.5 496.5t354.5 202.5q125 0 221 -60t96 -179t-147.5 -235.5t-147.5 -180.5q0 -68 155 -206t155 -257q0 -164 -135.5 -282.5t-303.5 -118.5q-94 0 -190 53q8 41 20.5 86t30.5 94q33 -68 80 -104.5t121 -36.5q90 0 152.5 70.5t62.5 164.5 q0 109 -154.5 237t-154.5 230q0 94 163.5 225.5t163.5 252.5q0 78 -54 126t-134 48q-172 0 -222 -131t-98 -414l-84 -471q-14 -76 -35.5 -211t-29.5 -211q-49 6 -98 14q-29 0 -51.5 -5t-47.5 -9z" />
<glyph unicode="&#xe0;" horiz-adv-x="946" d="M-16 217q0 182 159 252q152 39 315 83t181 175q0 84 -44 134t-130 50q-88 0 -154.5 -40t-111.5 -117l-35 10q16 45 16 92l-4 53q113 51 171.5 66.5t117.5 15.5q133 0 231.5 -57t98.5 -180q0 -47 -9.5 -113t-11.5 -88l-69 -342q-6 -37 -13 -74q0 -20 18.5 -42.5 t39.5 -22.5q31 0 67 16l27 -53q-78 -49 -176 -49q-66 0 -97.5 37.5t-42.5 109.5q-70 -78 -135 -115.5t-155 -37.5q-106 0 -180 63t-74 174zM152 236q0 -66 42 -108t107 -42q82 0 159 60.5t93 140.5l41 223q-225 -47 -333.5 -91t-108.5 -183zM297 1380q0 25 25.5 48.5 t50.5 23.5q23 0 42 -12.5t40 -34.5l243 -307h-82l-262 194q-23 12 -40 38t-17 50z" />
<glyph unicode="&#xe2;" horiz-adv-x="946" d="M-16 217q0 182 159 252q152 39 315 83t181 175q0 84 -44 134t-130 50q-88 0 -154.5 -40t-111.5 -117l-35 10q16 45 16 92l-4 53q113 51 171.5 66.5t117.5 15.5q133 0 231.5 -57t98.5 -180q0 -47 -9.5 -113t-11.5 -88l-69 -342q-6 -37 -13 -74q0 -20 18.5 -42.5 t39.5 -22.5q31 0 67 16l27 -53q-78 -49 -176 -49q-66 0 -97.5 37.5t-42.5 109.5q-70 -78 -135 -115.5t-155 -37.5q-106 0 -180 63t-74 174zM152 236q0 -66 42 -108t107 -42q82 0 159 60.5t93 140.5l41 223q-225 -47 -333.5 -91t-108.5 -183zM219 1098l303 344h115l162 -344 h-70l-164 211l-252 -211h-94z" />
<glyph unicode="&#xe4;" horiz-adv-x="946" d="M-16 217q0 182 159 252q152 39 315 83t181 175q0 84 -44 134t-130 50q-88 0 -154.5 -40t-111.5 -117l-35 10q16 45 16 92l-4 53q113 51 171.5 66.5t117.5 15.5q133 0 231.5 -57t98.5 -180q0 -47 -9.5 -113t-11.5 -88l-69 -342q-6 -37 -13 -74q0 -20 18.5 -42.5 t39.5 -22.5q31 0 67 16l27 -53q-78 -49 -176 -49q-66 0 -97.5 37.5t-42.5 109.5q-70 -78 -135 -115.5t-155 -37.5q-106 0 -180 63t-74 174zM152 236q0 -66 42 -108t107 -42q82 0 159 60.5t93 140.5l41 223q-225 -47 -333.5 -91t-108.5 -183zM276 1257q0 43 31 74t74 31 q45 0 74.5 -29.5t29.5 -81.5q0 -35 -28.5 -67.5t-75.5 -32.5q-43 0 -74 30.5t-31 75.5zM621 1257q0 45 31.5 75t76.5 30q43 0 72.5 -29.5t29.5 -81.5q0 -35 -28.5 -67.5t-73.5 -32.5t-76.5 31.5t-31.5 74.5z" />
<glyph unicode="&#xe7;" horiz-adv-x="923" d="M16 406q0 236 160 408.5t395 172.5q88 0 159 -17.5t175 -60.5q-20 -49 -34.5 -89t-22.5 -81h-31q-35 78 -95 125t-142 47q-176 0 -274.5 -169t-98.5 -361q0 -131 66.5 -222t193.5 -91q88 0 172 34.5t131 102.5l31 -23q-31 -63 -49 -131q-72 -37 -146.5 -57.5 t-150.5 -20.5q-188 0 -313.5 121t-125.5 312zM174 -301q70 -31 119 -46t100 -15q53 0 90 17t37 64q0 35 -20.5 63t-53.5 32q-41 0 -72.5 -4.5t-51.5 -6.5l63 195h68l-37 -121q12 6 29.5 8t37.5 2q74 0 126.5 -44t52.5 -115q0 -86 -66 -131.5t-156 -45.5q-78 0 -133 15.5 t-133 56.5v76z" />
<glyph unicode="&#xe8;" horiz-adv-x="978" d="M14 403q0 233 156 408.5t387 175.5q152 0 252 -110.5t100 -262.5l-8 -122l-340 4l-342 -4q-8 -64 -8 -146q0 -121 73.5 -198.5t192.5 -77.5q80 0 164 44t154 111l22 -20q-12 -31 -24.5 -67t-18.5 -64q-78 -49 -160 -75t-168 -26q-195 0 -313.5 117t-118.5 313zM236 573 h243h242q10 55 10 95q0 94 -50 168.5t-142 74.5q-121 0 -195 -99t-108 -239zM348 1376q0 23 25.5 48.5t50.5 25.5q23 0 42 -12.5t40 -34.5l244 -307h-82l-262 194q-25 14 -41.5 37t-16.5 49z" />
<glyph unicode="&#xe9;" horiz-adv-x="978" d="M14 403q0 233 156 408.5t387 175.5q152 0 252 -110.5t100 -262.5q0 -23 -3 -54.5t-5 -67.5l-340 4l-342 -4q-8 -64 -8 -146q0 -121 73.5 -198.5t192.5 -77.5q80 0 164 44t154 111l22 -20q-12 -31 -24.5 -67t-18.5 -64q-78 -49 -160 -75t-168 -26q-195 0 -313.5 117 t-118.5 313zM236 573h243h242q10 55 10 95q0 94 -50 168.5t-142 74.5q-121 0 -195 -99t-108 -239zM406 1096l284 293q29 27 54.5 42t58.5 15q31 0 56.5 -21.5t25.5 -52.5q0 -20 -28 -49t-52 -41l-316 -186h-83z" />
<glyph unicode="&#xea;" horiz-adv-x="978" d="M14 403q0 233 156 408.5t387 175.5q152 0 252 -110.5t100 -262.5q0 -20 -4 -70t-4 -52l-340 4l-342 -4q-8 -64 -8 -146q0 -121 73.5 -198.5t192.5 -77.5q80 0 164 44t154 111l22 -20q-12 -31 -24.5 -67t-18.5 -64q-78 -49 -160 -75t-168 -26q-195 0 -313.5 117 t-118.5 313zM236 573h243h242q10 55 10 95q0 94 -50 168.5t-142 74.5q-121 0 -195 -99t-108 -239zM270 1096l303 344h115l162 -344h-72l-162 211l-254 -211h-92z" />
<glyph unicode="&#xeb;" horiz-adv-x="978" d="M14 403q0 233 156 408.5t387 175.5q152 0 252 -110.5t100 -262.5q0 -29 -4 -69.5t-4 -52.5l-340 4l-342 -4q-8 -64 -8 -146q0 -121 73.5 -198.5t192.5 -77.5q80 0 164 44t154 111l22 -20q-12 -31 -24.5 -67t-18.5 -64q-78 -49 -160 -75t-168 -26q-195 0 -313.5 117 t-118.5 313zM236 573h243h242q10 55 10 95q0 94 -50 168.5t-142 74.5q-121 0 -195 -99t-108 -239zM326 1257q0 43 30.5 74t75.5 31q39 0 74 -31q12 -14 22.5 -32.5t10.5 -43.5t-10.5 -42t-32 -39.5t-62.5 -22.5q-47 0 -77.5 30.5t-30.5 75.5zM674 1257q0 43 30.5 74t73.5 31 q39 0 74 -31q12 -16 22.5 -34.5t10.5 -45.5q0 -29 -11.5 -45t-32 -35.5t-61.5 -19.5q-45 0 -75.5 30.5t-30.5 75.5z" />
<glyph unicode="&#xee;" horiz-adv-x="493" d="M12 0q45 152 86 322t68 337t27 306q25 -2 55.5 -6.5t48.5 -4.5q35 0 57.5 3.5t51.5 7.5q-86 -272 -133.5 -506t-47.5 -459q-20 2 -55 6t-47 4q-16 0 -31.5 -1t-79.5 -9zM12 1098l305 344h113l164 -344h-74l-162 211l-247 -211h-99z" />
<glyph unicode="&#xef;" horiz-adv-x="493" d="M12 0q45 152 86 322t68 337t27 306q25 -2 55.5 -6.5t48.5 -4.5q35 0 57.5 3.5t51.5 7.5q-86 -272 -133.5 -506t-47.5 -459q-25 2 -54.5 6t-47.5 4q-39 0 -61.5 -3t-49.5 -7zM66 1257q0 43 32.5 74t75.5 31q41 0 76 -31q10 -16 20.5 -36.5t10.5 -43.5q0 -27 -11.5 -44 t-31 -36.5t-64.5 -19.5q-43 0 -75.5 30.5t-32.5 75.5zM418 1257q0 43 28.5 74t73.5 31q39 0 74 -31q12 -14 22.5 -32.5t10.5 -43.5t-10.5 -42t-32 -39.5t-64.5 -22.5t-72.5 31.5t-29.5 74.5z" />
<glyph unicode="&#xf4;" horiz-adv-x="1122" d="M14 406q0 68 10.5 108.5t53.5 157t174 216t295 99.5q213 0 347 -106.5t134 -315.5q0 -233 -155.5 -410.5t-380.5 -177.5q-215 0 -346.5 108t-131.5 321zM199 346q0 -121 64.5 -207t182.5 -86q193 0 293.5 180.5t100.5 389.5q0 123 -67.5 206.5t-188.5 83.5 q-131 0 -220.5 -102t-127 -229t-37.5 -236zM342 1098l303 344h117l162 -344h-74l-162 211l-248 -211h-98z" />
<glyph unicode="&#xf6;" horiz-adv-x="1122" d="M14 406q0 41 14.5 108.5t53.5 170.5t170 202.5t295 99.5q213 0 347 -106.5t134 -315.5q0 -233 -155.5 -410.5t-380.5 -177.5q-213 0 -345.5 109t-132.5 320zM199 346q0 -121 64.5 -207t182.5 -86q193 0 293.5 180.5t100.5 389.5q0 123 -67.5 206.5t-188.5 83.5 q-131 0 -220.5 -102t-127 -229t-37.5 -236zM397 1257q4 45 34 75t73 30q39 0 76 -31q6 -8 18 -27.5t12 -48.5q0 -35 -12 -52t-32.5 -34.5t-59.5 -17.5q-45 0 -77 31.5t-32 74.5zM745 1257q0 43 31 74t74 31q41 0 76 -31q12 -14 22 -32.5t10 -43.5q0 -23 -8 -43 q-12 -16 -33.5 -38.5t-64.5 -22.5t-75 31.5t-32 74.5z" />
<glyph unicode="&#xf7;" horiz-adv-x="1679" d="M250 553v96h1180v-96h-1180zM733 252q0 43 32 74.5t73 31.5q10 0 18 -2t35 -10t39 -28.5t12 -65.5q0 -43 -28.5 -74t-73.5 -31q-41 0 -74 31t-33 74zM733 948q0 43 31 74t74 31l39 -6q31 -14 50 -41t19 -56q0 -43 -32.5 -75.5t-77.5 -32.5q-43 0 -73 31.5t-30 74.5z" />
<glyph unicode="&#xf9;" horiz-adv-x="1130" d="M63 229q0 123 42 336t79 400q23 -4 55.5 -8.5t41.5 -4.5q49 6 98 13q-74 -276 -102.5 -406.5t-28.5 -284.5q0 -74 32.5 -122t102.5 -56q281 0 351.5 219.5t113.5 649.5q25 -4 53.5 -7.5t46.5 -3.5q33 0 53.5 3.5t45.5 7.5q-68 -211 -124.5 -493t-56.5 -472l-88 8 q-25 0 -54.5 -3t-45.5 -5q8 20 23.5 73.5t29.5 119.5q-80 -106 -173 -161t-216 -55q-117 0 -198 68t-81 184zM408 1380q0 25 25.5 48.5t49.5 23.5q23 0 43.5 -12.5t40.5 -34.5l240 -307h-78l-262 194q-59 31 -59 88z" />
<glyph unicode="&#xfb;" horiz-adv-x="1130" d="M63 229q0 123 42 336t79 400q23 -4 55.5 -8.5t41.5 -4.5q49 6 98 13q-74 -276 -102.5 -406.5t-28.5 -284.5q0 -74 32.5 -122t102.5 -56q281 0 351.5 219.5t113.5 649.5q25 -4 53.5 -7.5t46.5 -3.5q16 0 47 4.5t52 6.5q-68 -211 -124.5 -493t-56.5 -472l-88 8 q-25 0 -54.5 -3t-45.5 -5q8 20 23.5 73.5t29.5 119.5q-80 -106 -173 -161t-216 -55q-117 0 -198 68t-81 184zM332 1098l305 344h113l161 -344h-73l-162 211l-248 -211h-96z" />
<glyph unicode="&#xfc;" horiz-adv-x="1130" d="M63 229q0 123 42 336t79 400q23 -4 55.5 -8.5t41.5 -4.5q49 6 98 13q-74 -276 -102.5 -406.5t-28.5 -284.5q0 -74 32.5 -122t102.5 -56q281 0 351.5 219.5t113.5 649.5q25 -4 53.5 -7.5t46.5 -3.5q16 0 47 4.5t52 6.5q-68 -211 -124.5 -493t-56.5 -472l-88 8 q-25 0 -54.5 -3t-45.5 -5q8 20 23.5 73.5t29.5 119.5q-80 -106 -173 -161t-216 -55q-117 0 -198 68t-81 184zM385 1257q0 45 32 75t75 30q39 0 75 -31q10 -16 19.5 -34.5t9.5 -45.5q0 -35 -16 -61q-6 -4 -27 -21.5t-61 -17.5q-43 0 -75 31.5t-32 74.5zM731 1257q0 45 32 75 t75 30q41 0 75 -31q10 -16 19.5 -34.5t9.5 -45.5q0 -35 -16 -61q-6 -4 -24.5 -21.5t-63.5 -17.5q-43 0 -75 31.5t-32 74.5z" />
<glyph unicode="&#x153;" horiz-adv-x="1775" d="M14 406q0 231 164 407t395 176q242 0 390 -176q90 90 180 134t207 44q158 0 256 -111.5t98 -271.5l-4 -116l-346 4l-344 -4q-9 -44 -9 -103q0 -137 70 -228t203 -91q82 0 164 43t155 112l23 -20q-29 -59 -47 -131q-78 -49 -160 -75t-166 -26q-115 0 -213 45t-156 140 q-160 -182 -417 -183q-197 0 -320 117t-123 314zM199 346q0 -121 64.5 -207t182.5 -86q193 0 293.5 180.5t100.5 389.5q0 123 -67.5 206.5t-188.5 83.5q-131 0 -220.5 -102t-127 -229t-37.5 -236zM1034 573h246h242l6 105q0 92 -50.5 163.5t-142.5 71.5q-119 0 -192.5 -101 t-108.5 -239z" />
<glyph unicode="&#x2000;" horiz-adv-x="933" />
<glyph unicode="&#x2001;" horiz-adv-x="1866" />
<glyph unicode="&#x2002;" horiz-adv-x="933" />
<glyph unicode="&#x2003;" horiz-adv-x="1866" />
<glyph unicode="&#x2004;" horiz-adv-x="622" />
<glyph unicode="&#x2005;" horiz-adv-x="466" />
<glyph unicode="&#x2006;" horiz-adv-x="311" />
<glyph unicode="&#x2007;" horiz-adv-x="311" />
<glyph unicode="&#x2008;" horiz-adv-x="233" />
<glyph unicode="&#x2009;" horiz-adv-x="373" />
<glyph unicode="&#x200a;" horiz-adv-x="103" />
<glyph unicode="&#x2010;" horiz-adv-x="657" d="M23 401q16 47 23 81t15 93q41 0 125 -4t127 -4q41 0 123 4t125 4q-12 -33 -21.5 -77.5t-15.5 -96.5q-57 0 -145 5.5t-103 5.5q-53 0 -143 -5.5t-110 -5.5z" />
<glyph unicode="&#x2011;" horiz-adv-x="657" d="M23 401q16 47 23 81t15 93q41 0 125 -4t127 -4q41 0 123 4t125 4q-12 -33 -21.5 -77.5t-15.5 -96.5q-57 0 -145 5.5t-103 5.5q-53 0 -143 -5.5t-110 -5.5z" />
<glyph unicode="&#x2012;" horiz-adv-x="657" d="M23 401q16 47 23 81t15 93q41 0 125 -4t127 -4q41 0 123 4t125 4q-12 -33 -21.5 -77.5t-15.5 -96.5q-57 0 -145 5.5t-103 5.5q-53 0 -143 -5.5t-110 -5.5z" />
<glyph unicode="&#x2013;" horiz-adv-x="1143" d="M23 401q30 47 43.5 81t28.5 93q78 0 238 -4t242 -4q78 0 234 4t238 4q-23 -33 -41 -77.5t-29 -96.5q-109 0 -276.5 5.5t-195.5 5.5q-101 0 -272.5 -5.5t-209.5 -5.5z" />
<glyph unicode="&#x2014;" horiz-adv-x="2013" d="M287 428l20 123h1340l-17 -123h-1343z" />
<glyph unicode="&#x2018;" horiz-adv-x="552" d="M164 866q0 25 12 49.5t37 61.5l328 422l43 -19l-215 -469q-14 -49 -44 -79.5t-77 -30.5q-39 0 -61.5 11t-22.5 54z" />
<glyph unicode="&#x2019;" horiz-adv-x="552" d="M162 819l215 473q16 49 45 78t76 29q39 0 61.5 -14.5t22.5 -53.5q0 -27 -13.5 -52.5t-38.5 -55.5l-325 -422z" />
<glyph unicode="&#x201c;" horiz-adv-x="892" d="M158 866q0 25 15 54.5t30 56.5l329 420l41 -19l-213 -469q-31 -68 -56 -88t-64 -20l-41 6q-18 6 -29.5 15t-11.5 44zM547 868q0 33 15.5 59.5t33.5 49.5l326 420l41 -19l-211 -469l-25 -53q-14 -31 -36.5 -43t-61.5 -12t-60.5 15t-21.5 52z" />
<glyph unicode="&#x201d;" horiz-adv-x="892" d="M152 819l215 473q27 55 49 80t71 25q39 0 60.5 -14.5t21.5 -51.5q0 -29 -13 -55.5t-36 -52.5l-325 -422zM545 819l211 473q25 51 49 78t74 27q39 0 59 -13.5t20 -50.5q0 -27 -9 -46t-36 -64l-327 -422z" />
<glyph unicode="&#x2022;" horiz-adv-x="1482" d="M307 729q0 86 33 165t92.5 141.5t140 95t168.5 32.5q180 0 308.5 -128t128.5 -306q0 -180 -128 -308t-309 -128q-182 0 -308 128t-126 308z" />
<glyph unicode="&#x2026;" horiz-adv-x="1710" d="M92 92q0 23 12 39q25 68 97 68q43 0 73.5 -31t30.5 -76q0 -41 -30.5 -71.5t-73.5 -30.5q-45 0 -77 29.5t-32 72.5zM639 92l6 39q34 68 100 68q43 0 75 -32t32 -75t-32 -72.5t-75 -29.5q-45 0 -75.5 28.5t-30.5 73.5zM1184 92q0 25 8 39q26 68 100 68q41 0 72 -31t31 -76 q0 -41 -29 -71.5t-74 -30.5t-76.5 29.5t-31.5 72.5z" />
<glyph unicode="&#x202f;" horiz-adv-x="373" />
<glyph unicode="&#x205f;" horiz-adv-x="466" />
<glyph unicode="&#x2122;" horiz-adv-x="1679" d="M260 1372v60h424v-60h-172v-465h-78v465h-174zM809 907v525h113l163 -416l154 416h115v-525h-70v461l-174 -461h-51l-182 461v-461h-68z" />
<glyph unicode="&#xe000;" horiz-adv-x="962" d="M0 0v963h963v-963h-963z" />
</font>
</defs>
</svg>
