<?xml version="1.0" standalone="no"?>
<!DOCTYPE svg PUBLIC "-//W3C//DTD SVG 1.1//EN" "http://www.w3.org/Graphics/SVG/1.1/DTD/svg11.dtd" >
<svg xmlns="http://www.w3.org/2000/svg">
<metadata></metadata>
<defs>
<font id="mgopen_cosmeticabold" horiz-adv-x="1103" >
<font-face units-per-em="2048" ascent="1638" descent="-410" />
<missing-glyph horiz-adv-x="552" />
<glyph horiz-adv-x="2048" />
<glyph horiz-adv-x="2048" />
<glyph unicode="&#xd;" horiz-adv-x="552" />
<glyph unicode=" "  horiz-adv-x="552" />
<glyph unicode="&#x09;" horiz-adv-x="552" />
<glyph unicode="&#xa0;" horiz-adv-x="552" />
<glyph unicode="!" horiz-adv-x="655" d="M152 152q0 72 51 123t125 51q72 0 123 -49.5t51 -122.5q0 -74 -51.5 -125.5t-122.5 -51.5q-72 0 -124 50.5t-52 124.5zM166 1206q0 80 43 136.5t121 56.5q74 0 118 -40t44 -110q0 -76 -12.5 -155.5t-28.5 -167.5l-43 -244q-25 -137 -35 -246h-88q-60 385 -119 770z" />
<glyph unicode="&#x22;" horiz-adv-x="665" d="M78 864v549h188v-549h-188zM399 864v549h189v-549h-189z" />
<glyph unicode="#" horiz-adv-x="1546" d="M45 399l72 197h280l84 235h-293l70 199h295l143 408h217l-143 -408h240l143 408h219l-145 -408h276l-71 -199h-277l-84 -235h287l-70 -197h-287l-145 -407h-217l143 407h-239l-144 -407h-219l146 407h-281zM610 594h248l84 237h-248z" />
<glyph unicode="$" d="M63 117q49 127 91 258h34q33 -113 110 -185.5t189 -72.5v422q-240 66 -327.5 161t-87.5 220q0 168 119.5 271t295.5 120q0 88 -12 178q10 -2 32.5 -5t39.5 -5q16 2 31.5 3t35.5 7q-6 -39 -8 -81t-2 -93q137 -16 214 -34.5t157 -66.5q-53 -115 -90 -233h-45 q-47 182 -238 223v-387q248 -63 336 -160.5t88 -230.5q0 -178 -120 -290.5t-304 -135.5l-2 -92q0 -33 2 -51.5t8 -57.5l-65 4l-66 -4q4 35 5 98.5t3 102.5q-231 0 -424 117zM307 1012q0 -61 54.5 -104.5t125.5 -57.5v354q-78 0 -129 -57t-51 -135zM596 115q84 16 137 66 t53 132t-51 128t-139 71v-397z" />
<glyph unicode="%" horiz-adv-x="1654" d="M41 987q0 158 96 256t254 98q154 0 250 -96t96 -254q0 -162 -95 -259t-261 -97q-154 0 -247 99.5t-93 252.5zM272 -186l953 1683h127l-951 -1683h-129zM276 987q1 -80 13 -160q0 -43 26.5 -82.5t69.5 -39.5q29 0 53.5 17t37.5 52t18.5 91.5t5.5 121.5q0 41 -2 80t-8.5 84 t-30 82t-70.5 37q-61 0 -88 -60q-14 -51 -19.5 -100t-5.5 -123zM903 328q0 164 93 259t257 95q156 0 251 -91t95 -251q0 -168 -91 -265.5t-261 -97.5q-152 0 -248 98.5t-96 252.5zM1139 328q0 -31 1 -57.5t9 -104.5q0 -43 27.5 -82t72.5 -39q39 0 71 42t32 81q8 72 8 160v78 q-6 55 -10 93t-28 74.5t-71 36.5q-31 0 -53 -14t-31 -43q-16 -41 -22 -93t-6 -104v-28z" />
<glyph unicode="&#x26;" horiz-adv-x="1435" d="M74 317q0 147 96 256t244 168q-55 66 -94 157t-39 169q0 147 112.5 227t265.5 80q133 0 232.5 -62.5t99.5 -189.5q0 -109 -74.5 -190.5t-187.5 -132.5q145 -190 318 -363q61 78 113 185.5t87 216.5q23 -43 51.5 -75t79.5 -79q-68 -113 -123 -187.5t-133 -152.5 q74 -86 141.5 -162t135.5 -143v-37q-90 8 -130 9t-63 1q-57 0 -90 -2t-98 -8l-115 133q-98 -76 -209.5 -119t-226.5 -43q-162 0 -277.5 92.5t-115.5 251.5zM342 420q0 -104 78 -184t182 -80q61 0 112.5 18.5t114.5 54.5q-137 160 -207.5 247t-134.5 177q-68 -47 -106.5 -102 t-38.5 -131zM539 1135q0 -43 27.5 -106.5t95.5 -147.5q66 45 105.5 105t39.5 134q0 63 -36 105.5t-101 42.5q-27 0 -52 -8q-37 -6 -58 -45t-21 -80z" />
<glyph unicode="'" horiz-adv-x="552" d="M106 780l119 471q10 59 47 103.5t90 44.5q57 0 96.5 -37t39.5 -92q0 -49 -33 -94l-299 -420z" />
<glyph unicode="(" horiz-adv-x="661" d="M135 539q0 260 99.5 469t295.5 391l66 -64q-109 -143 -166 -300.5t-57 -327.5l-4 -148l4 -149q0 -172 56 -330t165 -313l-68 -64q-193 178 -292 382t-99 454z" />
<glyph unicode=")" horiz-adv-x="661" d="M106 -233q125 162 177.5 353.5t52.5 420.5q0 227 -52.5 426.5t-170.5 367.5l65 64q195 -180 291 -380t96 -456q0 -266 -96 -470t-299 -390z" />
<glyph unicode="*" horiz-adv-x="1007" d="M135 936q72 23 141.5 45.5t143.5 48.5q-61 27 -137 52.5t-148 45.5q51 76 94 168l230 -190l-17 86l-34 207l94 -2l98 2l-55 -299l231 196q41 -84 92 -168q-131 -41 -280 -98q63 -27 136 -50.5t144 -43.5q-20 -33 -44.5 -78t-47.5 -90l-229 190q16 -102 28.5 -179 t22.5 -126l-98 4l-94 -4l53 305l-230 -190q-23 43 -39 74.5t-55 93.5z" />
<glyph unicode="+" horiz-adv-x="1677" d="M250 502v196h489v500h199v-500h489v-196h-489v-502h-199v502h-489z" />
<glyph unicode="," horiz-adv-x="552" d="M37 -352l125 530q14 70 54 121t106 51q61 0 105 -44t44 -105q0 -27 -9 -51.5t-28 -55.5l-342 -469z" />
<glyph unicode="-" horiz-adv-x="659" d="M88 365q0 27 5 73t5 56q0 27 -5 72.5t-5 56.5h483l-10 -131l10 -127h-483z" />
<glyph unicode="." horiz-adv-x="552" d="M100 152q0 72 51 123t125 51q63 0 119 -51.5t56 -120.5q0 -63 -52.5 -120t-122.5 -57q-74 0 -125 49.5t-51 125.5z" />
<glyph unicode="/" horiz-adv-x="565" d="M-49 -186l549 1695h118l-548 -1695h-119z" />
<glyph unicode="0" d="M51 643q0 307 110.5 502.5t395.5 195.5q289 0 389.5 -184t100.5 -504q0 -305 -108.5 -493.5t-395.5 -188.5q-283 0 -387.5 182.5t-104.5 489.5zM383 659q0 -96 2 -171.5t12.5 -173t40 -165t115.5 -67.5q82 0 117 77t35 167q2 49 6 98q4 115 4 252q0 125 -4 194.5 t-6 110.5q0 92 -36 169t-118 77q-109 0 -135.5 -98.5t-26.5 -245.5q0 -55 -3 -138.5t-3 -85.5z" />
<glyph unicode="1" d="M82 1112q348 139 614 274l39 -18l-8 -700v16v-385v18q0 -55 7 -166.5t7 -150.5l-176 8q-31 0 -101.5 -4t-74.5 -4q0 188 9.5 530t9.5 379q0 31 -4.5 94.5t-4.5 98.5q-70 -31 -107.5 -50.5t-125.5 -68.5z" />
<glyph unicode="2" d="M49 111q176 137 301 256.5t211 269t86 326.5q0 104 -36 176.5t-130 72.5q-109 0 -154.5 -80.5t-74.5 -222.5h-23q-70 111 -163 187q90 119 213.5 183t271.5 64q188 0 315 -94t127 -278q0 -162 -78.5 -263.5t-465.5 -418.5l186 -2l182 2l225 8q-25 -78 -24 -158 q0 -41 10 -82t14 -57q-113 0 -282.5 5t-198.5 5q-115 0 -293 -5t-202 -5z" />
<glyph unicode="3" d="M45 86q55 92 89 152.5t69 130.5h24q0 -121 46 -207t159 -86q111 0 166 86t55 200q0 121 -65.5 193t-186.5 72l-59 -2v120l55 -2q113 0 181.5 67t68.5 179q0 100 -45 170t-139 70q-102 0 -147.5 -84t-45.5 -195l-18 -14q-37 45 -73 83t-116 114q76 106 202.5 156t273.5 50 q168 0 288.5 -79.5t120.5 -239.5q0 -117 -72.5 -186.5t-201.5 -116.5v-15q145 -18 237.5 -97t92.5 -220q0 -205 -158 -310.5t-375 -105.5q-242 0 -426 117z" />
<glyph unicode="4" d="M63 311l3 125l-3 123q102 145 191.5 278.5t165.5 251t160 250.5q72 -8 159 -8h76q53 6 78 8q0 -96 -8 -278t-8 -275v-241q33 0 85.5 7t81.5 11l-10 -123q0 -41 4 -74.5t6 -54.5q-86 12 -172 13v-66q0 -72 4.5 -135.5t16.5 -122.5q-39 0 -96.5 5t-63.5 5q-35 0 -94 -5 t-72 -5q8 66 12.5 155t4.5 169l-127 2q-70 0 -207 -7.5t-187 -7.5zM209 545h373v563z" />
<glyph unicode="5" d="M68 47q41 78 70.5 149.5t51.5 153.5h31q0 -117 42 -189.5t155 -72.5t167 86t54 207q0 111 -43 197t-143 86q-102 0 -183 -91l-96 52q12 66 15.5 150.5t3.5 119.5q0 115 -7.5 210t-25.5 189l14 15q82 0 221.5 -7.5t175.5 -7.5q195 0 365 15l-6 -140q0 -80 8 -143 q-84 0 -232.5 9t-166.5 9l-207 -4q-18 -145 -19 -301q131 63 275 64q168 0 283.5 -98.5t115.5 -264.5q0 -236 -162.5 -353.5t-410.5 -117.5q-86 0 -183.5 19.5t-162.5 58.5z" />
<glyph unicode="6" d="M59 535q0 336 177.5 572t502.5 236q63 0 119.5 -11t130.5 -36q-10 -49 -18 -98t-8 -94l-13 -2q-47 55 -95 85t-114 30q-176 0 -253.5 -160t-77.5 -357q47 53 120.5 79t153.5 26q166 0 269.5 -103.5t103.5 -269.5q0 -211 -129 -336t-340 -125q-254 0 -391.5 152.5 t-137.5 411.5zM414 379q0 -123 27.5 -213t123.5 -90q98 0 128 87t30 214q0 121 -30 203t-126 82t-124.5 -82t-28.5 -201z" />
<glyph unicode="7" d="M141 27q121 150 197 250t154 229l317 510q-55 0 -161.5 6t-162.5 6q-84 0 -158.5 -4t-181.5 -8q8 68 9.5 97.5t1.5 47.5q0 31 -5.5 84t-5.5 64l447 -6l502 6l26 -56q-395 -586 -659 -1253l-142 2l-163 -2z" />
<glyph unicode="8" d="M51 367q0 137 81 233t216 127v14q-104 20 -173 97t-69 180q0 166 139.5 243.5t319.5 77.5q172 0 299 -74.5t127 -236.5q0 -111 -62.5 -181.5t-172.5 -105.5v-14q129 -31 211 -119t82 -215q0 -203 -152 -313.5t-365 -110.5q-193 0 -337 105.5t-144 292.5zM379 379 q0 -121 34 -209t134 -88q102 0 139 92t37 209q0 113 -35 202t-127 89q-96 0 -139 -94.5t-43 -200.5zM391 1008q0 -90 40 -160t122 -70q86 0 122 66.5t36 165.5q0 94 -34 158.5t-120 64.5q-88 0 -127 -65.5t-39 -159.5z" />
<glyph unicode="9" d="M45 887q0 211 135 333.5t350 122.5q256 0 383 -160.5t127 -422.5q0 -330 -179 -560.5t-501 -230.5q-74 0 -126 12.5t-123 32.5q12 49 19 96.5t7 96.5l15 4q37 -55 90 -86t118 -31q176 0 253 160t77 356q-47 -55 -118.5 -79.5t-155.5 -24.5q-168 0 -269.5 105.5 t-101.5 275.5zM379 932q0 -115 29.5 -199t121.5 -84q96 0 126 82t30 199q0 125 -28.5 215t-125.5 90q-98 0 -125.5 -86t-27.5 -217z" />
<glyph unicode=":" horiz-adv-x="659" d="M156 152q0 72 51 123t123 51t124 -52.5t52 -121.5q0 -72 -53.5 -123.5t-122.5 -51.5q-72 0 -123 49.5t-51 125.5zM156 788q0 74 51 125.5t123 51.5q70 0 123 -53.5t53 -125.5q0 -70 -53.5 -121t-122.5 -51q-72 0 -123 49.5t-51 124.5z" />
<glyph unicode=";" horiz-adv-x="659" d="M76 -352l123 530q16 74 56 123t105 49q59 0 102.5 -43t43.5 -104q0 -31 -8.5 -54.5t-26.5 -54.5l-340 -469zM160 788q0 74 51 125.5t123 51.5t125 -51.5t53 -125.5q0 -72 -51 -123t-125 -51t-125 49.5t-51 124.5z" />
<glyph unicode="&#x3c;" horiz-adv-x="1677" d="M258 502v194l1157 478v-216l-878 -358l878 -358v-215z" />
<glyph unicode="=" horiz-adv-x="1677" d="M250 289v196h1177v-196h-1177zM250 715v192h1177v-192h-1177z" />
<glyph unicode="&#x3e;" horiz-adv-x="1677" d="M258 27v215l881 358l-881 358v216l1159 -478v-194z" />
<glyph unicode="?" horiz-adv-x="880" d="M137 1315q131 84 297 84q150 0 255.5 -86t105.5 -236q0 -127 -162 -260t-162 -217q0 -43 27.5 -64.5t70.5 -21.5q25 0 51.5 6t41.5 8l-23 -102q-33 -12 -82 -16t-57 -4q-115 0 -203 79.5t-88 192.5q0 104 142.5 236.5t142.5 232.5q0 51 -36 89t-85 38q-61 0 -114.5 -37 t-82.5 -94l-26 4q0 96 -13 168zM258 152q0 63 53 118.5t125 55.5q66 0 120 -50.5t54 -121.5q0 -63 -52 -120t-122 -57q-74 0 -126 50.5t-52 124.5z" />
<glyph unicode="@" horiz-adv-x="2013" d="M88 514q0 401 299 671.5t705 270.5q332 0 582.5 -193.5t250.5 -517.5q0 -244 -161.5 -441.5t-405.5 -197.5h-37q-72 0 -113 27t-61 133q-55 -78 -126 -119t-163 -41q-156 0 -239.5 88.5t-83.5 245.5q0 205 137 378t338 173q74 0 129 -31.5t106 -95.5l49 99h179l-148 -588 l-6 -37q0 -35 27.5 -53.5t66.5 -18.5q145 0 238.5 161t93.5 316q0 242 -181.5 395.5t-424.5 153.5q-362 0 -615.5 -207.5t-253.5 -564.5q0 -313 213 -490t535 -177q152 0 308.5 49t285.5 135l76 -113q-293 -225 -670 -225q-383 0 -656.5 220t-273.5 595zM745 434 q0 -72 41 -128t109 -56q92 0 156.5 64.5t89.5 160.5l53 213q-6 72 -52 118t-118 46q-137 0 -208 -133t-71 -285z" />
<glyph unicode="A" horiz-adv-x="1222" d="M-43 0l205 475q49 115 123.5 306.5t125 326.5t107.5 291l103 -6l102 6q139 -389 268 -735.5t262 -663.5l-196 6l-201 -6l-43 135l-80 248q-72 0 -145.5 2t-145.5 4l-143 -6q-59 -184 -133 -383l-133 6zM358 547l164 -4l162 4q-35 115 -69.5 207t-90.5 223 q-88 -211 -166 -430z" />
<glyph unicode="B" horiz-adv-x="1202" d="M135 0q8 76 16.5 154.5t8.5 152.5l2 379q0 207 -5 367.5t-22 320.5l236 -4l245 4q211 0 351.5 -69.5t140.5 -257.5q0 -131 -86 -208t-221 -94v-18q139 0 239.5 -88t100.5 -229q0 -205 -139.5 -307.5t-354.5 -102.5l-276 6q-57 0 -145.5 -3t-90.5 -3zM485 797 q123 0 202 57t79 176q0 96 -57.5 155.5t-153.5 59.5l-57 -6q-12 -109 -13 -225v-217zM489 408l7 -273l67 -6q102 0 161.5 73.5t59.5 178.5q0 119 -68.5 197.5t-183.5 78.5l-43 -2v-247z" />
<glyph unicode="C" horiz-adv-x="1327" d="M63 684q0 334 218.5 524.5t558.5 190.5q123 0 226 -24.5t249 -82.5q-18 -53 -38 -122.5t-30 -122.5h-28q-41 104 -136.5 159.5t-216.5 55.5q-215 0 -330.5 -165t-115.5 -390q0 -231 112.5 -408.5t331.5 -177.5q121 0 227.5 40t170.5 126l32 -15q-14 -47 -24 -94t-23 -110 q-88 -49 -199.5 -72t-228.5 -23q-338 0 -547 187.5t-209 523.5z" />
<glyph unicode="D" horiz-adv-x="1521" d="M131 -2q8 90 15.5 177.5t7.5 150.5l2 360q0 272 -5.5 408.5t-19.5 279.5l188 -6l99 2l235 4q68 0 133.5 -2t133.5 -4q266 -25 402 -193.5t136 -443.5q0 -406 -228.5 -569.5t-651.5 -163.5l-279 4zM489 891l5 -741q29 -6 59 -10.5t61 -4.5q244 0 361 152.5t117 404.5 q0 272 -111 408.5t-377 136.5l-108 -4z" />
<glyph unicode="E" horiz-adv-x="1036" d="M135 0q8 80 16.5 169t8.5 159l2 358q0 229 -5 361.5t-22 326.5l393 -8q72 0 241 4t183 4q-4 -23 -6 -42t-2 -46q0 -23 1 -35t7 -57q-55 0 -167.5 8t-170.5 8l-112 -2l-6 -403l442 16q-4 -23 -6 -43t-2 -49l6 -94q-90 0 -255 9t-185 9v-217q0 -47 4 -156.5t4 -113.5 q221 0 440 24l-6 -96l6 -94q-113 0 -302 5t-228 5q-63 0 -161.5 -5t-117.5 -5z" />
<glyph unicode="F" horiz-adv-x="1011" d="M135 0q16 152 21.5 309.5t5.5 376.5q0 229 -5 361.5t-22 326.5l393 -8q72 0 241 4t183 4l-10 -88q0 -41 10 -92q-55 0 -176 8t-160 8l-112 -2q0 -61 -4 -230t-4 -173l440 16l-6 -92l6 -94q-88 0 -252 9t-186 9v-305q0 -127 3 -191.5t15 -156.5l-190 4z" />
<glyph unicode="G" horiz-adv-x="1497" d="M63 680q0 342 224.5 534.5t572.5 192.5q141 0 266 -32t244 -99q-49 -119 -74 -248h-24q-63 111 -165.5 175.5t-227.5 64.5q-182 0 -302 -133.5t-133.5 -238.5t-16.5 -139t-3 -65q0 -63 4 -96t6 -43q25 -184 141.5 -307t296.5 -123q90 0 181 24q0 254 -21 488 q102 -10 185 -10q92 0 182 12q0 -53 -8.5 -159.5t-8.5 -162.5q0 -43 4.5 -141t4.5 -104q-152 -45 -290.5 -69t-285.5 -24q-336 0 -544 185.5t-208 517.5z" />
<glyph unicode="H" horiz-adv-x="1546" d="M135 0q0 59 10.5 216t10.5 204l2 260q0 109 -5.5 281t-5.5 200l-12 213q25 0 93.5 -7t101.5 -7q45 0 98 6t84 8q-8 -68 -12 -153.5t-4 -169.5v-220l266 -6l287 6v220q0 178 -17 323q33 0 101.5 -7t91.5 -7q33 0 98.5 7t89.5 7q-14 -152 -20.5 -338t-6.5 -356 q0 -227 5.5 -358.5t21.5 -321.5q-39 0 -107.5 5t-80.5 5q-37 0 -109 -5t-84 -5q8 53 12.5 143t4.5 154v358q-49 0 -163 4.5t-124 4.5l-266 -9v-358q0 -119 3 -166t13 -131q-33 0 -98.5 4t-94.5 4q-31 0 -92 -4t-92 -4z" />
<glyph unicode="I" horiz-adv-x="659" d="M139 0q12 131 18.5 295t6.5 299q0 305 -5 461.5t-20 318.5q45 -4 99.5 -9t87.5 -5q37 0 105.5 7t88.5 7q-14 -166 -19 -317.5t-5 -370.5q0 -205 5 -359.5t19 -326.5q-35 0 -119 4t-86 4z" />
<glyph unicode="J" horiz-adv-x="659" d="M-55 -211l73 -2q92 0 123 73.5t31 182.5l2 281q0 197 -12 590t-12 460l165 -8q35 0 118 4t93 4q0 -111 -11 -372t-11 -338q0 -57 4 -199.5t4 -149.5l-2 -159q0 -209 -142.5 -345.5t-353.5 -136.5l-51 7z" />
<glyph unicode="K" horiz-adv-x="1261" d="M133 0q0 102 13.5 348t13.5 332q0 80 -6.5 239.5t-6.5 241.5l-14 213q35 0 99.5 -7t91.5 -7q49 0 93 4t89 10q0 -37 -7 -148.5t-7 -168.5v-297l348 401q74 86 97.5 116t68.5 97l127 -8q25 0 73.5 4t77.5 4q-119 -119 -269.5 -273.5t-271.5 -283.5l177 -260 q193 -293 397 -557l-205 8q-39 0 -132 -4t-101 -4q-74 145 -163 280.5t-222 315.5v-311q0 -145 18 -285q-33 0 -114 4t-85 4z" />
<glyph unicode="L" horiz-adv-x="958" d="M135 0q16 152 21.5 309.5t5.5 376.5q0 229 -5 361.5t-22 326.5l184 -6l199 6q-20 -219 -20 -463v-475v-140.5t6 -129.5q221 0 440 24l-6 -96l6 -94q-113 0 -302 5t-228 5q-63 0 -161.5 -5t-117.5 -5z" />
<glyph unicode="M" horiz-adv-x="1794" d="M47 0q68 381 109 686l92 688q33 -4 63.5 -6t73.5 -2q25 0 72 4t71 4q76 -209 123 -327.5t91 -222t155 -357.5l252 551q82 174 137 356q23 0 70 -4t69 -4q59 0 90 4t48 4l67 -676q18 -176 38 -343t50 -355q-37 0 -102.5 5t-79.5 5q-39 0 -105.5 -5t-80.5 -5q0 211 -29 430 l-45 479q-92 -201 -196.5 -441.5t-198.5 -467.5l-68 2l-76 -2q-51 129 -134 322.5t-135 307t-120 263.5l-59 -555q-8 -82 -15.5 -177t-7.5 -161q-23 0 -68.5 5t-50.5 5q-33 0 -58.5 -4t-41.5 -6z" />
<glyph unicode="N" horiz-adv-x="1488" d="M127 0q12 156 17.5 307t5.5 348q0 117 -5.5 297.5t-5.5 208.5l-6 213l129 -8l135 8q186 -233 379 -458.5t391 -436.5v379q0 88 -7 268.5t-7 247.5q43 -4 63.5 -6t43.5 -2q33 0 53 2t59 8q-10 -66 -16 -140.5t-6 -148.5q0 -203 -2 -407.5t-5 -407.5q0 -55 3.5 -114.5 t11.5 -157.5q-29 4 -66 7t-55 3q-39 0 -64.5 -3t-56.5 -7q-184 223 -385 455.5t-405 455.5v-555l10 -356q-20 2 -48 6t-52 4q-37 0 -59.5 -3t-49.5 -7z" />
<glyph unicode="O" horiz-adv-x="1665" d="M59 686q0 342 219.5 527.5t573.5 185.5q334 0 542 -176t208 -506q0 -356 -212 -548t-575 -192q-352 0 -554 180.5t-202 528.5zM424 686q0 -225 98 -402.5t307 -177.5q213 0 311.5 179.5t98.5 410.5q0 223 -98.5 397.5t-304.5 174.5q-215 0 -313.5 -174t-98.5 -408z" />
<glyph unicode="P" horiz-adv-x="1181" d="M135 0q14 166 19.5 313.5t5.5 366.5q0 129 -12.5 387t-12.5 305q31 0 103.5 -4t78.5 -4l267 10l73 2q213 0 342 -84t129 -286q0 -172 -107.5 -288t-216 -128t-178 -14.5t-130.5 -2.5v-276q0 -78 2 -105.5t18 -191.5q-45 0 -112.5 5t-77.5 5q-45 0 -113 -5t-78 -5z M492 717q150 0 224.5 63.5t74.5 206.5q0 106 -54.5 176t-158.5 70l-82 -4l-4 -207v-305z" />
<glyph unicode="Q" horiz-adv-x="1665" d="M59 674q0 342 221.5 533.5t571.5 191.5q334 0 542 -176t208 -506q0 -254 -121 -443.5t-361 -257.5l183 -122q141 -84 317 -162v-27q-66 -25 -137.5 -60.5t-145.5 -78.5q-121 100 -250 197.5t-301 218.5q-332 0 -529.5 181t-197.5 511zM424 686q0 -225 98 -402.5 t307 -177.5q213 0 311.5 179.5t98.5 410.5q0 223 -98.5 397.5t-304.5 174.5q-213 0 -312.5 -175t-99.5 -407z" />
<glyph unicode="R" horiz-adv-x="1232" d="M129 0q0 96 14.5 293t14.5 295q0 129 -14.5 391t-14.5 395l141 -6q37 0 166 7t185 7q303 0 411.5 -93t108.5 -261q0 -139 -87 -234.5t-227 -107.5q98 -170 208 -339t235 -347l-158 8l-258 -8q-70 147 -160 298t-219 347v-264q0 -154 3 -212t14 -169q-39 0 -103.5 5 t-75.5 5q-39 0 -105.5 -5t-78.5 -5zM474 745q152 0 240.5 63t88.5 208q0 104 -56.5 169.5t-158.5 65.5l-109 2l-5 -227v-281z" />
<glyph unicode="S" horiz-adv-x="1093" d="M82 39q14 61 27 133t36 199h31q43 -137 106.5 -198.5t198.5 -61.5q92 0 170 56t78 144q0 123 -160.5 206t-314.5 163q-168 115 -168 299q0 203 154.5 311.5t367.5 108.5q186 0 361 -84q-27 -63 -46.5 -127t-35.5 -137h-23q-35 98 -108.5 155.5t-173.5 57.5 q-92 0 -159 -44t-67 -130q0 -106 165 -191.5t325 -165.5q172 -119 172 -297q0 -225 -173 -344t-411 -119q-94 0 -180 14.5t-172 51.5z" />
<glyph unicode="T" d="M12 1182l6 104l-6 88q92 0 281.5 -7t257.5 -7q106 0 294.5 7t244.5 7l-7 -90l7 -102q-183 24 -363 24q0 -41 -4 -139t-4 -104q0 -182 5 -332t10.5 -333t6.5 -298q-31 0 -94 4t-94 4q-35 0 -84 -3t-109 -5q0 131 12.5 393t12.5 309q0 84 -4 287t-4 217q-98 0 -142.5 -3 t-222.5 -21z" />
<glyph unicode="U" horiz-adv-x="1472" d="M121 1374q31 0 107.5 -4t82.5 -4q31 0 94.5 4t94.5 4q-14 -156 -20.5 -369.5t-6.5 -383.5q0 -264 77 -361.5t218 -97.5q133 0 232.5 75.5t113.5 173t18.5 208t4.5 188.5q0 315 -25 567l86 -8l143 8q0 -74 -10 -240.5t-10 -226.5l4 -198q0 -27 -2 -79t-2 -77 q0 -287 -150.5 -431.5t-441.5 -144.5q-252 0 -417 104.5t-165 340.5q0 143 -13 487t-13 465z" />
<glyph unicode="V" horiz-adv-x="1206" d="M-29 1374q35 0 119 -4t88 -4l187 8q35 -135 75 -241l262 -697l252 701q23 61 40.5 119.5t27.5 117.5l108 -8q23 0 68 4t66 4q-82 -166 -154 -332l-274 -700q-68 -160 -115 -342q-37 4 -63.5 7t-47.5 3q-25 0 -66.5 -5t-47.5 -5q-20 70 -47 143.5t-72 196.5z" />
<glyph unicode="W" horiz-adv-x="1955" d="M-12 1374q33 0 111.5 -4t84.5 -4q33 0 96.5 4t96.5 4q33 -152 66.5 -288t84 -320t90.5 -326q53 154 126 368t106 311.5t84 254.5l115 -8q23 0 67.5 4t67.5 4q49 -184 82.5 -298.5t80 -254t126.5 -383.5q141 453 247 936l121 -8q47 0 74 4t39 4l-139 -426l-312 -948 q-53 6 -68.5 7t-52.5 1q-49 0 -77.5 -4t-42.5 -4q-35 119 -92.5 295t-77.5 242l-129 383q-86 -217 -161 -439.5t-151 -480.5q-27 0 -70.5 5t-50.5 5q-43 0 -75.5 -4t-53.5 -6q-74 283 -129 473.5t-113 376.5t-171 524z" />
<glyph unicode="X" horiz-adv-x="1153" d="M-2 0l252 356l194 287l-421 731q35 0 116.5 -4t89.5 -4q35 0 118 4t93 4q14 -37 23.5 -56.5t64.5 -133.5l129 -242q100 162 150.5 246t97.5 186q20 0 61.5 -4t63.5 -4q20 0 61.5 4t63.5 4q-109 -145 -144.5 -194.5t-101.5 -145.5l-168 -250l441 -784q-37 0 -129 4t-99 4 l-192 -8l-68 160l-168 321q-59 -92 -134 -224t-140 -257q-25 0 -78 5t-59 5q-37 0 -68 -4t-49 -6z" />
<glyph unicode="Y" horiz-adv-x="1101" d="M-45 1374l180 -8q41 0 136.5 4t105.5 4q72 -158 132 -281.5t142 -275.5q74 121 145.5 260.5t141.5 296.5l111 -8q20 0 61 4t64 4q-121 -176 -225.5 -357t-215.5 -396l6 -410l9 -211l-138 8l-233 -8q0 74 9 204t9 146l-2 244l-194 364q-18 33 -101.5 180.5t-142.5 235.5z " />
<glyph unicode="Z" horiz-adv-x="1224" d="M37 0v80q84 131 238.5 380t247.5 399.5t208 338.5h-297q-160 0 -289 -16l11 75q0 61 -11 117l510 -8q96 0 314.5 4t232.5 4v-43q-176 -276 -356 -568t-357 -589h347q129 0 205.5 5t185.5 22q-8 -59 -8 -138l2 -63q-98 0 -326.5 4t-241.5 4q-106 0 -353 -4t-263 -4z" />
<glyph unicode="[" horiz-adv-x="669" d="M154 -242q0 168 9 470t9 337q0 168 -9 472t-9 339q51 0 133 -5t94 -5q39 0 132 4t99 4q-8 -30 -8 -71l8 -46l-227 5l-6 -463q0 -160 7 -485.5t7 -440.5l90 -2l129 4l-8 -45q0 -39 8 -70l-231 9z" />
<glyph unicode="\" horiz-adv-x="565" d="M-47 1509h119l551 -1695h-123z" />
<glyph unicode="]" horiz-adv-x="669" d="M113 -125l223 -4q0 109 6 328t6 327q0 121 -8 367t-8 369h-90l-129 -2l6 45v34q-4 25 -6 35l227 -8l229 10l-14 -540l-4 -306l4 -235l14 -537l-229 11q-47 0 -129 -5.5t-98 -5.5l6 52z" />
<glyph unicode="^" horiz-adv-x="645" d="M-4 1114l223 365h180l228 -365h-101l-215 180l-219 -180h-96z" />
<glyph unicode="_" horiz-adv-x="1007" d="M0 -272h1008v-203h-1008v203z" />
<glyph unicode="`" horiz-adv-x="552" d="M98 883q0 53 33 98l301 418l57 -23l-116 -471q-16 -66 -51 -107.5t-95 -41.5q-51 0 -90 36.5t-39 90.5z" />
<glyph unicode="a" horiz-adv-x="1040" d="M70 250q0 195 245.5 270.5t278.5 102.5q10 16 10 26q0 94 -53 149.5t-148 55.5q-61 0 -112 -25.5t-84 -76.5h-8l-31 112q154 143 369 144q170 0 264 -86t94 -254l-4 -351v-66.5t4 -74.5q14 -63 74 -63q12 0 30.5 5t36.5 13l8 -72q-93 -75 -210 -75h-3q-70 0 -125 27.5 t-85 82.5q-49 -59 -120 -88t-151 -29q-123 0 -201.5 75t-78.5 198zM354 293q0 -59 31 -104.5t88 -45.5q66 0 96.5 50.5t30.5 119.5v205q-109 -20 -177.5 -72.5t-68.5 -152.5z" />
<glyph unicode="b" horiz-adv-x="1216" d="M117 2q0 193 7 525.5t7 426.5q0 96 -7 291t-7 264q39 -4 85 -8t83 -4t83 4t85 8l-13 -442v-215q59 78 133 117t172 39q195 0 294.5 -150.5t99.5 -355.5q0 -219 -114 -372t-331 -153q-104 0 -192 45.5t-152 131.5q-33 -25 -51 -43.5t-98 -108.5h-84zM430 500 q0 -147 38 -260t159 -113q117 0 153.5 108.5t36.5 253.5q0 152 -33.5 263.5t-148.5 111.5q-123 0 -164 -108.5t-41 -255.5z" />
<glyph unicode="c" horiz-adv-x="972" d="M53 479q0 236 154.5 382.5t392.5 146.5q160 0 320 -66q-8 -27 -23.5 -100.5t-30.5 -159.5h-37q-16 88 -68 145.5t-138 57.5q-115 0 -171.5 -102.5t-56.5 -227.5q0 -162 67.5 -294t215.5 -132q57 0 117.5 17.5t101.5 52.5l14 -13l-43 -155q-59 -27 -127.5 -40.5 t-142.5 -13.5q-236 0 -390.5 135.5t-154.5 366.5z" />
<glyph unicode="d" horiz-adv-x="1216" d="M80 496q0 217 103.5 364.5t312.5 147.5q170 0 278 -148v227l-10 422q53 -6 94 -10t72 -4q35 0 71.5 3t96.5 11q0 -59 -6.5 -182t-6.5 -184q0 -217 3.5 -548t3.5 -335l6 -260q-33 0 -94.5 5t-73.5 5q-33 0 -91.5 -5t-70.5 -5q4 25 6 58.5t2 66.5q-70 -78 -139.5 -113 t-165.5 -35q-209 0 -300 147.5t-91 371.5zM397 467q0 -131 39 -233.5t150 -102.5q113 0 154.5 115.5t41.5 253.5q0 143 -38.5 254.5t-157.5 111.5q-61 0 -101.5 -35.5t-57.5 -93t-23.5 -133.5t-6.5 -137z" />
<glyph unicode="e" horiz-adv-x="1075" d="M63 496q0 225 141.5 368.5t366.5 143.5q215 0 328 -119t113 -336l-2 -64h-613q0 -150 85.5 -250t232.5 -100q70 0 121 22.5t114 76.5l27 -11q-23 -72 -32 -103.5t-17 -64.5q-76 -43 -157 -62.5t-175 -19.5q-242 0 -387.5 137.5t-145.5 381.5zM395 647l2 -41h312l2 49 q0 102 -33 182.5t-119 80.5q-90 0 -127 -83t-37 -188z" />
<glyph unicode="f" horiz-adv-x="626" d="M12 858l2 60l-2 63q31 -6 65 -8t79 -2q0 186 115.5 362t291.5 176q47 0 76 -6q31 -10 45 -14q-10 -33 -29.5 -112t-36.5 -158h-10q-41 35 -73.5 52t-75.5 17q-115 0 -115 -90q0 -57 38 -121.5t62 -105.5h25q29 0 55.5 1t108.5 9l-4 6v-41q0 -25 1 -50.5t3 -45.5l-105 10 l-75 -2v-455q0 -109 3 -157.5t21 -245.5q-35 0 -95 5t-73 5q-35 0 -96 -5t-76 -5q10 76 14.5 188.5t4.5 214.5v455l-72 4z" />
<glyph unicode="g" horiz-adv-x="1032" d="M35 -258q0 96 60.5 162.5t158.5 85.5v10q-61 12 -101 58t-40 108q0 76 61.5 132t140.5 73v30q-104 10 -175.5 88t-71.5 185q0 158 122.5 246t286.5 88l88 -4l223 -25l107 -6q51 0 89 4t71 6v-121l-197 6q43 -27 62.5 -67.5t19.5 -95.5q0 -182 -140.5 -260t-340.5 -78 q-43 0 -77 -16.5t-34 -55.5q0 -72 221.5 -84t350.5 -58.5t129 -252.5q0 -221 -176.5 -336t-409.5 -115q-168 0 -298 69.5t-130 223.5zM250 -211q0 -106 78 -164.5t190 -58.5q113 0 196 59.5t83 169.5q0 47 -23.5 86t-76 60.5t-131.5 31t-169 9.5h-43q-104 -62 -104 -193z M365 686q0 -102 22.5 -169.5t104.5 -67.5q88 0 116.5 69.5t28.5 175.5q0 94 -26.5 160t-106.5 66t-109.5 -70t-29.5 -164z" />
<glyph unicode="h" horiz-adv-x="1191" d="M119 0q0 125 8 377t8 381q0 125 -8 376.5t-8 374.5l149 -8h25q92 0 164 8q0 -70 -5.5 -179t-5.5 -128v-342q116 148 306 148q137 0 224 -83t87 -220l2 -109l-4 -231q0 -145 3 -203t13 -162q-29 0 -94 4t-70 4q-29 0 -97 -4t-75 -4q10 109 13.5 218.5t3.5 273.5l-6 137 q-8 84 -39 134t-105 50q-47 0 -81.5 -24.5t-50 -65.5t-24 -91t-8.5 -143q0 -80 6.5 -243.5t6.5 -245.5q-35 0 -94.5 5t-73.5 5q-35 0 -96.5 -5t-73.5 -5z" />
<glyph unicode="i" horiz-adv-x="583" d="M119 983q43 -4 89 -8t83 -4q39 0 84 4l90 8l-19 -178l-2 -334q0 -166 3.5 -256t15.5 -215l-174 6l-168 -6q6 49 10 95t4 93v613zM127 1331q0 66 49 115t115 49t115 -49t49 -115t-48.5 -114t-115.5 -48q-66 0 -115 47.5t-49 114.5z" />
<glyph unicode="j" horiz-adv-x="583" d="M-92 -451q125 0 176 95.5t51 234.5l4 498q0 98 -8 301t-8 305q88 -10 166 -10q29 0 57.5 1t106.5 9l-2 -260q0 -178 5 -453.5t5 -316.5q0 -242 -141.5 -363.5t-393.5 -121.5zM121 1331q0 66 49 115t115 49t115 -49t49 -115t-48.5 -114t-115.5 -48q-66 0 -115 47.5 t-49 114.5z" />
<glyph unicode="k" horiz-adv-x="1114" d="M119 0q0 168 9 472t9 339q0 145 -9 408.5t-9 289.5q68 -8 153 -8q100 0 181 8q0 -94 -8.5 -311t-8.5 -309v-316q106 84 190.5 180.5t178.5 229.5q25 0 74 -2t73 -2l95 4l8 -14l-127 -119l-226 -223q100 -178 238 -400l141 -227q-39 0 -105.5 5t-78.5 5q-41 0 -104.5 -5 t-73.5 -5q-68 123 -149 258t-134 227q0 -82 4 -276.5t4 -208.5l-161 6z" />
<glyph unicode="l" horiz-adv-x="600" d="M127 0q0 154 9 431t9 308q0 115 -5 295t-5 209l-8 266q57 -6 100 -10t70 -4q45 0 93 6t75 8q0 -160 -9.5 -448.5t-9.5 -321.5l7 -473l12 -266q-10 2 -76.5 8t-91.5 6q-47 0 -92 -5t-78 -9z" />
<glyph unicode="m" horiz-adv-x="1794" d="M119 0q0 80 8 241.5t8 243.5q0 96 -8 277.5t-8 220.5l153 -6l160 6v-141q61 72 147.5 119t176.5 47q100 0 171.5 -44t106.5 -139q49 90 135 136.5t193 46.5q133 0 217 -86t84 -217l-2 -216q0 -84 7 -256t7 -233q-27 0 -94.5 4t-75.5 4q-29 0 -95.5 -4t-72.5 -4 q0 76 7.5 229.5t7.5 210.5v129q0 106 -28 177t-116 71q-57 0 -93 -38t-52 -99q-8 -51 -11 -117.5t-3 -91.5q0 -80 7 -245t7 -226q-37 0 -94.5 5t-69.5 5q-35 0 -94.5 -5t-71.5 -5q0 76 7.5 229.5t7.5 210.5l-3 129q0 104 -26.5 176t-114.5 72q-57 0 -93 -38t-52 -99 q-8 -51 -11.5 -117.5t-3.5 -91.5q0 -80 7.5 -245t7.5 -226q-39 0 -99.5 5t-70.5 5q-37 0 -98.5 -5t-71.5 -5z" />
<glyph unicode="n" horiz-adv-x="1191" d="M119 0q0 96 8 277.5t8 222.5q0 78 -8 255t-8 228q68 -6 85 -7t62 -1h103q43 6 63 8v-145q59 72 145.5 119t174.5 47q135 0 223 -84t88 -220l-2 -215q0 -61 7 -230t7 -255q-27 0 -80 4t-82 4t-97 -4t-75 -4q0 86 7.5 258t7.5 234v36q0 51 -6 101q0 74 -36 129t-106 55 q-47 0 -83 -25.5t-54 -69.5t-23.5 -99.5t-5.5 -131.5q0 -98 7 -268t8 -219q-35 0 -95.5 5t-72.5 5q-37 0 -98.5 -5t-71.5 -5z" />
<glyph unicode="o" horiz-adv-x="1140" d="M45 492q0 244 146.5 380t392.5 136q229 0 369.5 -140.5t140.5 -369.5q0 -242 -139.5 -381.5t-385.5 -139.5q-236 0 -380 138.5t-144 376.5zM379 492q0 -125 20 -236q8 -80 52.5 -130t119.5 -50q74 0 115 50t57 128q4 33 10.5 95.5t6.5 146.5q0 82 -6 141t-11 92 q-16 80 -57 129t-117 49q-102 0 -138 -75.5t-44 -153.5t-8 -186z" />
<glyph unicode="p" horiz-adv-x="1216" d="M121 -567q0 63 7 195t7 177l-6 914l-8 264q88 -10 168 -10q31 0 58.5 1t105.5 9q-10 -72 -11 -127q61 74 133 113t164 39q199 0 299.5 -160t100.5 -373q0 -211 -104.5 -354.5t-309.5 -143.5q-178 0 -281 148v-229l11 -463q-45 4 -87 8t-79 4t-83 -4t-85 -8zM438 483 q0 -150 38 -258t159 -108q33 0 61.5 11t63.5 53t48 121t13 196q0 139 -36.5 245.5t-149.5 106.5q-119 0 -158 -109.5t-39 -257.5z" />
<glyph unicode="q" horiz-adv-x="1216" d="M76 477q0 215 98 373t303 158q182 0 295 -152v37q0 39 -10 90q78 -8 104.5 -9t59.5 -1q72 0 168 10q0 -156 -4.5 -370t-8.5 -428t-4 -369q0 -59 8.5 -180t8.5 -185q-33 8 -79 12.5t-87 4.5q-70 0 -96.5 -3.5t-71.5 -13.5l12 463v211q-59 -74 -126 -111t-157 -37 q-207 0 -310 142.5t-103 357.5zM393 483q0 -145 32.5 -254.5t145.5 -109.5q98 0 145.5 80t57.5 186l2 57v76t-2 62q0 100 -48 185t-144 85q-117 0 -153 -108.5t-36 -258.5z" />
<glyph unicode="r" horiz-adv-x="768" d="M119 0q0 80 8 239.5t8 241.5t-8 250t-8 252l149 -8q29 0 95.5 4t74.5 4q-14 -53 -19 -109.5t-5 -130.5h12q35 115 102.5 190t171.5 75l45 -4q-10 -76 -14 -163t-4 -167q-31 16 -65.5 29.5t-61.5 13.5q-92 0 -126 -68.5t-34 -171.5q0 -170 3 -260t16 -217q-33 0 -93.5 5 t-76.5 5q-35 0 -96.5 -5t-73.5 -5z" />
<glyph unicode="s" horiz-adv-x="860" d="M63 39l50 252h28q31 -94 89.5 -150.5t148.5 -56.5q66 0 121 30.5t55 92.5q0 82 -239.5 176t-239.5 291q0 158 115.5 246t279.5 88q70 0 135.5 -16.5t153.5 -49.5l-76 -225h-20q-25 84 -77 132t-138 48q-57 0 -101.5 -28.5t-44.5 -86.5q0 -76 249 -166t249 -280 q0 -170 -116 -264.5t-292 -94.5q-96 0 -174 13.5t-156 48.5z" />
<glyph unicode="t" horiz-adv-x="681" d="M14 858l2 66l-2 65q23 -4 67 -5t71 -1v31v24q0 90 -13 176q78 23 144.5 53.5t156.5 80.5h43q-6 -35 -12 -89.5t-6 -91.5v-184h43q63 0 131 6l-4 -61l4 -70l-178 2l-4 -526q0 -113 19.5 -175.5t105.5 -62.5q49 0 110 10l-8 -92q-55 -20 -120.5 -30.5t-131.5 -10.5 q-141 0 -216 64.5t-75 206.5q0 141 5.5 361t5.5 255z" />
<glyph unicode="u" horiz-adv-x="1191" d="M111 983q51 -6 97 -10t66 -4q49 0 99.5 6t70.5 8l-12 -313l-2 -107l2 -151q0 -141 39 -193.5t113 -52.5q70 0 104.5 51t46.5 129l6 143q0 82 -6 246t-6 248q57 -6 103.5 -10t72.5 -4q41 0 88 6t74 8q0 -84 -8 -252t-8 -250q0 -80 8 -239.5t8 -239.5l-156 4l-155 -4v137 q-59 -72 -146.5 -117t-177.5 -45q-135 0 -222 83t-87 219l2 217q0 84 -7 254t-7 233z" />
<glyph unicode="v" horiz-adv-x="983" d="M0 983q39 0 110.5 -5t84.5 -5q37 0 103.5 5t78.5 5l55 -205l139 -448q127 330 205 653l103 -10q23 0 61.5 5t46.5 5q-98 -238 -188 -476.5t-183 -506.5q-33 4 -72.5 7t-56.5 3q-29 0 -74.5 -5t-52.5 -5q-88 274 -169.5 501.5t-190.5 481.5z" />
<glyph unicode="w" horiz-adv-x="1536" d="M10 983q39 0 103.5 -5t76.5 -5q37 0 100.5 5t76.5 5q66 -309 163 -633l119 395l66 238q27 0 82 -5t59 -5q27 0 84 5t59 5q27 -119 51.5 -216t53.5 -202l61 -215l97 350q10 39 29.5 119t35.5 164q27 -2 58.5 -6t50.5 -4q37 0 64.5 4t45.5 6l-135 -360l-213 -623 q-53 4 -77.5 6t-47.5 2t-73 -4t-52 -4l-119 424l-59 199q-98 -297 -192 -623q-55 4 -82 6t-50 2q-31 0 -48 -1t-81 -7z" />
<glyph unicode="x" horiz-adv-x="950" d="M-8 0q88 111 169 219.5t167 233.5l-162 282l-156 248q45 0 116 -5t81 -5q41 0 109.5 5t82.5 5l140 -285q47 70 77.5 121t92.5 164l106 -10q27 0 71 5t52 5q-84 -100 -147.5 -183t-174.5 -233l175 -305q76 -131 161 -262q-39 0 -110.5 5t-81.5 5q-39 0 -110.5 -5t-82.5 -5 l-161 322l-179 -322l-104 8q-55 0 -82 -2q-33 -6 -49 -6z" />
<glyph unicode="y" horiz-adv-x="962" d="M0 983q33 0 98.5 -4t100.5 -4q29 0 98.5 4t73.5 4q39 -156 84 -298t106 -308l107 305q14 45 43.5 146.5t44.5 154.5l96 -8q23 0 68 4t67 4q-197 -430 -340 -778t-287 -756q-55 8 -116 8h-48.5t-68.5 -8q49 74 87 142.5t75 148.5l108 235l-284 734q-27 72 -57.5 145.5 t-55.5 128.5z" />
<glyph unicode="z" horiz-adv-x="978" d="M29 0v111q20 29 146 208t205 293.5t150 223.5l-153 2q-74 0 -154 -9.5t-127 -15.5l4 84l-4 86l402 -10q98 0 250.5 5t177.5 5v-117q-80 -100 -165 -215.5t-172 -242.5t-175 -263l139 -4q63 0 194.5 8.5t196.5 8.5q-2 -20 -3 -45t-1 -37v-25l4 -51q-106 0 -266 5t-186 5 q-109 0 -274 -5t-189 -5z" />
<glyph unicode="{" horiz-adv-x="1007" d="M154 418v205q143 0 201.5 53t58.5 192v248v111q18 129 110 176t240 47h102v-205h-69q-78 0 -105.5 -33.5t-33 -52t-5.5 -49.5v-59v-236q0 -129 -39 -189.5t-165 -103.5q117 -27 160.5 -98.5t43.5 -194.5v-237q0 -102 34 -147.5t132 -45.5h47v-207l-155 2 q-125 10 -204 60.5t-93 165.5v106v246q0 115 -50.5 180.5t-160.5 65.5h-49z" />
<glyph unicode="|" horiz-adv-x="1007" d="M401 -344v745h205v-745h-205zM401 659v750h205v-750h-205z" />
<glyph unicode="}" horiz-adv-x="1007" d="M137 -201q104 0 160.5 23.5t56.5 114.5v57v235q0 127 43 191.5t164 101.5q-123 37 -165 99.5t-42 193.5v236q0 86 -18.5 135t-89.5 57l-109 2v205h49q172 0 289 -41t117 -182l2 -111v-248q0 -113 29.5 -163t74.5 -64t97.5 -16t58.5 -2v-205q-143 0 -201.5 -49.5 t-58.5 -196.5v-246q0 -143 -44 -226t-131 -93t-154.5 -12.5t-127.5 -2.5v207z" />
<glyph unicode="~" horiz-adv-x="2015" d="M393 938q0 184 90 314t271 130q131 0 274 -124.5t221 -124.5q96 0 129 70.5t33 180.5h199q0 -193 -85 -319.5t-274 -126.5q-133 0 -275 124t-210 124q-96 0 -134 -71t-38 -177h-201z" />
<glyph unicode="&#xa3;" d="M72 0q2 25 6 70t4 61q0 43 -4 80t-6 57q78 0 134 24.5t68.5 81t12.5 89.5l-4 166l-56 4q-37 0 -80 -5t-63 -5l8 67l-8 66q37 -6 84 -9.5t104 -3.5q-18 72 -18 140q0 221 129 339.5t354 118.5q182 0 346 -90q-23 -57 -35 -103t-28 -122h-49q-18 92 -65.5 147.5 t-133.5 55.5q-100 0 -156.5 -67.5t-56.5 -170.5q0 -49 8 -130t11 -116h106h25q31 0 58.5 1.5t115.5 9.5l-6 -68l6 -65l-154 6h-151q-12 -129 -70.5 -205t-183.5 -152l477 7l268 10q-6 -31 -12 -73t-6 -71t3 -53t15 -92q-84 0 -245.5 6t-245.5 6t-252 -6t-254 -6z" />
<glyph unicode="&#xa5;" horiz-adv-x="1126" d="M12 1309q39 0 110 -5.5t83 -5.5q43 0 110.5 5.5t77.5 5.5q123 -283 248 -529q66 123 134.5 262.5t123.5 266.5q23 -2 47.5 -3t48.5 -1l115 4q-145 -233 -220 -362.5t-126 -229.5l303 12v-125q-80 0 -206 5t-144 5v-125l350 7v-123q-47 0 -174 4t-176 4q0 -66 7 -199 t7 -182l-160 8q-33 0 -103.5 -4t-76.5 -4q10 88 14.5 187.5t4.5 193.5q-61 0 -202 -4t-151 -4v123l181 -7h172v125q-76 0 -202 -5t-151 -5v125q72 -12 138 -12h143l-125 233q-43 88 -83 158t-118 201z" />
<glyph unicode="&#xa7;" horiz-adv-x="1095" d="M90 569q0 76 50 162t118 131q-41 45 -64.5 95.5t-23.5 105.5q0 154 133 245t297 91q106 0 183 -16.5t147 -63.5q-25 -51 -47.5 -101.5t-40.5 -105.5h-19q-14 86 -85.5 138.5t-164.5 52.5q-72 0 -130 -38t-58 -108q0 -100 155.5 -166.5t307.5 -130.5q162 -94 162 -250 q0 -88 -40 -164.5t-114 -126.5q33 -29 62.5 -99t29.5 -120q0 -176 -144.5 -272t-328.5 -96q-98 0 -184 15t-164 54q31 141 47 256h27q20 -104 105 -163.5t198 -59.5q84 0 147.5 42t63.5 122q0 111 -157 181.5t-306 135.5q-162 94 -162 254zM291 705q0 -115 167 -194 t310 -144q37 37 37 94q0 98 -166 176t-307 141q-35 -28 -41 -73z" />
<glyph unicode="&#xa8;" horiz-adv-x="964" d="M96 887q0 49 33 94l301 418l59 -23l-118 -471q-12 -63 -48 -106t-96 -43q-55 0 -93 37.5t-38 93.5zM510 883q0 51 31 98l301 418l57 -23l-117 -471q-8 -59 -47 -104t-96 -45q-53 0 -91 35.5t-38 91.5z" />
<glyph unicode="&#xa9;" horiz-adv-x="1677" d="M106 721q0 295 218.5 513t513.5 218q297 0 514 -219t217 -516q0 -295 -215 -510t-512 -215t-516.5 215t-219.5 514zM229 723q0 -246 179.5 -429t427.5 -183t430 180t182 428q0 254 -178 434t-432 180q-250 0 -429.5 -181t-179.5 -429zM444 711q0 180 103.5 315t277.5 135 q141 0 246 -74.5t121 -205.5h-184q0 59 -49.5 102t-112.5 43q-106 0 -152.5 -87t-46.5 -202t43 -213t141 -98q150 0 183 160h188q-14 -137 -116.5 -220t-243.5 -83q-180 0 -289 121.5t-109 306.5z" />
<glyph unicode="&#xab;" horiz-adv-x="927" d="M59 492l342 475l78 -84l-194 -387l196 -404l-80 -78zM426 492l342 475l80 -84l-195 -387l195 -404l-80 -78z" />
<glyph unicode="&#xad;" horiz-adv-x="1007" d="M0 410v211h1008v-211h-1008z" />
<glyph unicode="&#xae;" horiz-adv-x="1677" d="M106 721q0 295 218.5 513t513.5 218q299 0 516 -215t217 -516q0 -299 -217 -514t-516 -215q-297 0 -514.5 215t-217.5 514zM229 721q0 -248 179.5 -429t427.5 -181t431 181t183 427q0 250 -180 432t-432 182q-248 0 -428.5 -182t-180.5 -430zM532 330v811h320 q137 0 241.5 -49.5t104.5 -169.5q0 -82 -49 -144.5t-127 -87.5l180 -360h-217l-158 329h-94v-329h-201zM733 778h96q70 0 117 26.5t47 92.5q0 43 -25.5 76t-70.5 37q-35 8 -78 8h-86v-240z" />
<glyph unicode="&#xb0;" horiz-adv-x="1007" d="M244 1348q0 98 84 173.5t190 75.5q102 0 175 -64.5t73 -166.5q0 -106 -81 -179t-189 -73q-104 0 -178 66t-74 168zM356 1335q0 -61 40 -107t104 -46q74 0 112.5 54t38.5 132q0 74 -35.5 121t-105.5 47q-51 0 -93 -35t-51.5 -82t-9.5 -84z" />
<glyph unicode="&#xb1;" horiz-adv-x="1679" d="M250 0v195h1180v-195h-1180zM250 686v195h489v321h199v-321h492v-195h-492v-324h-199v324h-489z" />
<glyph unicode="&#xb2;" horiz-adv-x="729" d="M33 592q119 82 198.5 149.5t136 155.5t56.5 199q0 88 -28.5 121.5t-76.5 33.5q-72 0 -102.5 -46t-52.5 -134h-12l-107 111q127 147 317 147q121 0 207 -54t86 -167q0 -102 -48 -159.5t-310 -254.5h123q45 0 151.5 4t114.5 4q-12 -53 -12 -92q0 -18 4 -44.5t8 -43.5 q-78 0 -196.5 3t-120.5 3l-328 -6z" />
<glyph unicode="&#xb3;" horiz-adv-x="729" d="M27 578q66 88 108 167h15q0 -78 31.5 -126t105.5 -48q68 0 106.5 49.5t38.5 118.5q0 72 -41 118t-115 46l-53 -2v72l45 -2q70 0 115 39t45 110q0 59 -31.5 100.5t-89.5 41.5q-66 0 -98.5 -50.5t-32.5 -115.5l-12 -11q-51 61 -125 117q41 57 139 90t180 33 q106 0 187.5 -46t81.5 -142q0 -59 -38 -105.5t-145 -79.5q86 -4 152 -58t66 -138q0 -127 -106.5 -189.5t-244.5 -62.5q-86 0 -150.5 15.5t-133.5 58.5z" />
<glyph unicode="&#xb4;" horiz-adv-x="550" d="M104 780l119 471q10 59 47 103.5t90 44.5q57 0 97.5 -36t40.5 -91q0 -25 -8.5 -48.5t-22.5 -47.5l-303 -420z" />
<glyph unicode="&#xb6;" horiz-adv-x="870" d="M27 1098q0 119 107 224t306 105h344v-86h-86v-1335h-86v1335h-161v-1335h-86v817q-123 0 -217.5 64.5t-107.5 130t-13 80.5z" />
<glyph unicode="&#xb9;" horiz-adv-x="729" d="M98 1192q135 45 208 72.5t200 91.5l22 -13l-2 -417v16v-237v10v-81t9 -112l-78 6l-158 -6q10 94 12 246t2 168v135l-4 113q-35 -10 -77 -30.5t-80 -39.5z" />
<glyph unicode="&#xbb;" horiz-adv-x="927" d="M82 98l197 389l-197 404l82 76l338 -475l-338 -478zM451 98l196 389l-196 404l79 76l338 -475l-338 -478z" />
<glyph unicode="&#xbd;" horiz-adv-x="1726" d="M100 1200q94 31 188.5 69t200.5 85l25 -13q0 -96 -3 -242.5t-3 -148.5v8v-213v9v-77t8 -99l-74 4q-27 0 -77 -2t-72 -2l8 133l4 374l-4 107q-39 -14 -82 -34.5t-67 -31.5zM360 -184l885 1679h123l-885 -1679h-123zM1063 61q174 119 275.5 225.5t101.5 252.5 q0 63 -21.5 101t-83.5 38q-61 0 -96 -47t-51 -121h-14q-10 18 -41 49t-60 57q68 70 139.5 103t167.5 33q113 0 195 -52.5t82 -160.5q0 -139 -130 -230.5t-214 -146.5l119 -2q43 0 146 4t112 4q-16 -49 -17 -96q0 -16 6.5 -37t8.5 -35l-203 4l-410 -4z" />
<glyph unicode="&#xc4;" horiz-adv-x="1222" d="M-41 0l203 477q57 133 114.5 278.5t129 337t112.5 306.5l103 -4l104 4q135 -385 258 -715t268 -684l-192 4l-205 -4l-41 135l-80 248q-72 0 -144.5 2t-144.5 4l-145 -6l-131 -383q-27 4 -57.5 4h-47.5h-30zM276 1694q0 57 42.5 97t101.5 40q57 0 99 -40t42 -97 q0 -59 -39 -102.5t-98 -43.5q-61 0 -104.5 41t-43.5 105zM358 547l162 -4l162 4q-35 121 -68.5 209t-91.5 221zM662 1694q0 55 41 96t98 41q59 0 100 -39t41 -98q0 -61 -38 -103.5t-99 -42.5q-57 0 -100 41t-43 105z" />
<glyph unicode="&#xc9;" horiz-adv-x="1036" d="M135 0q10 88 17.5 173t7.5 157l2 356q0 231 -5 365.5t-22 324.5l393 -6l424 6l-6 -90l6 -90q-55 0 -167.5 8t-170.5 8h-110q0 -70 -4 -233.5t-4 -173.5l442 18q0 -16 -4 -53t-4 -41q0 -25 3 -52.5t5 -43.5q-70 0 -232.5 11t-209.5 11v-221q0 -66 2 -134.5t8 -135.5 q117 0 210 5t230 19q-8 -41 -8 -92q0 -27 1 -41t7 -55q-123 0 -313.5 5t-216.5 5q-55 0 -164 -5t-117 -5zM334 1511l274 291q51 51 81 73.5t73 22.5q45 0 75.5 -32.5t30.5 -73.5q0 -39 -27.5 -68.5t-72.5 -52.5l-332 -160h-102z" />
<glyph unicode="&#xd6;" horiz-adv-x="1665" d="M59 686q0 342 219.5 527.5t573.5 185.5q336 0 544 -176t208 -506q0 -354 -213 -547t-576 -193q-352 0 -554 180.5t-202 528.5zM424 686q0 -225 99 -403.5t306 -178.5q213 0 313.5 182.5t100.5 407.5t-100.5 400.5t-311.5 175.5t-309 -176t-98 -408zM498 1694q0 55 43 96 t100 41t98 -39t41 -98t-39 -102.5t-98 -43.5q-57 0 -101 44t-44 102zM885 1694q0 55 41 96t96 41q59 0 100 -39t41 -98t-39 -102.5t-98 -43.5t-100 43t-41 103z" />
<glyph unicode="&#xd7;" horiz-adv-x="1679" d="M272 158l443 444l-443 440l138 138l442 -441l442 441l138 -138l-443 -440l443 -444l-138 -138l-442 445l-442 -445z" />
<glyph unicode="&#xdc;" horiz-adv-x="1470" d="M121 1374l188 -6l189 6q0 -141 -12.5 -424.5t-12.5 -328.5q0 -201 58.5 -330t236.5 -129q131 0 232.5 76.5t114.5 173t17.5 208t4.5 189.5q0 305 -23 565l86 -6l141 6q0 -72 -10 -238.5t-10 -226.5l4 -200l-2 -156q0 -291 -150.5 -433.5t-443.5 -142.5q-254 0 -418 105.5 t-164 341.5q0 145 -13 489t-13 461zM440 1694q0 55 41.5 96t100.5 41q57 0 98 -39t41 -98q0 -61 -38 -103.5t-99 -42.5q-59 0 -101.5 42t-42.5 104zM823 1694q0 57 42.5 97t99.5 40q59 0 99 -40t40 -97q0 -59 -37 -102.5t-96 -43.5q-61 0 -104.5 41t-43.5 105z" />
<glyph unicode="&#xdf;" horiz-adv-x="1196" d="M125 2q0 66 5 176.5t5 134.5v207v441q0 266 112.5 407t373.5 141q152 0 270.5 -57t118.5 -192q0 -100 -114 -208t-114 -165q0 -27 19.5 -56.5t46.5 -44.5l168 -127q129 -100 129 -253q0 -184 -126 -306.5t-312 -122.5q-74 0 -156 35l45 226h20q27 -70 66 -107t109 -37 q57 0 95 40t38 97q0 92 -178.5 235.5t-188.5 235.5q0 104 122 257t122 253q0 76 -45 127.5t-123 51.5q-98 0 -148.5 -75t-50.5 -179q0 -248 3 -407t7.5 -379t4.5 -349l-156 4z" />
<glyph unicode="&#xe0;" horiz-adv-x="1040" d="M66 250q0 195 247.5 270.5t278.5 102.5q12 16 12 26q0 92 -53 147.5t-145 55.5q-133 0 -199 -98h-8l-29 110q72 70 169 107t200 37q168 0 263 -87t95 -253l-6 -353v-69.5t6 -62.5t25.5 -53t48.5 -17q12 0 30.5 6t34.5 14l6 -74q-45 -37 -93 -54t-118 -23 q-63 0 -121.5 29.5t-88.5 82.5q-103 -117 -271 -117q-123 0 -203.5 75t-80.5 198zM195 1395q0 45 32.5 75.5t77.5 30.5q39 0 68.5 -21.5t83.5 -72.5l272 -293h-102l-330 160q-61 31 -81.5 58.5t-20.5 62.5zM354 295q0 -61 31 -105.5t88 -44.5q68 0 98.5 48.5t30.5 117.5v207 q-109 -20 -178.5 -72.5t-69.5 -150.5z" />
<glyph unicode="&#xe2;" horiz-adv-x="1040" d="M66 250q0 195 247.5 270.5t278.5 102.5q12 16 12 26q0 92 -53 147.5t-145 55.5q-133 0 -199 -98h-8l-29 110q72 70 169 107t200 37q168 0 263 -87t95 -253l-6 -353v-69.5t6 -62.5t25.5 -53t48.5 -17q12 0 30.5 6t34.5 14l6 -74q-45 -37 -93 -54t-118 -23q-66 0 -122 28.5 t-88 83.5q-103 -117 -271 -117q-123 0 -203.5 75t-80.5 198zM205 1114l225 365h180l226 -365h-97l-221 180l-217 -180h-96zM354 295q0 -61 31 -105.5t88 -44.5q68 0 98.5 48.5t30.5 117.5v207q-109 -20 -178.5 -72.5t-69.5 -150.5z" />
<glyph unicode="&#xe4;" horiz-adv-x="1040" d="M66 250q0 195 247.5 270.5t278.5 102.5q12 16 12 26q0 92 -53 147.5t-145 55.5q-133 0 -199 -98h-8l-29 110q72 70 169 107t200 37q168 0 263 -87t95 -253l-6 -353v-69.5t6 -62.5t25.5 -53t48.5 -17q12 0 30.5 6t34.5 14l6 -74q-45 -37 -93 -54t-118 -23q-66 0 -122 28.5 t-88 83.5q-103 -117 -271 -117q-123 0 -203.5 75t-80.5 198zM184 1296q0 57 43.5 100.5t98.5 43.5q59 0 100 -41t41 -103q0 -57 -39 -98t-98 -41q-55 0 -100.5 41t-45.5 98zM354 295q0 -61 31 -105.5t88 -44.5q68 0 98.5 48.5t30.5 117.5v207q-109 -20 -178.5 -72.5 t-69.5 -150.5zM569 1296q0 57 41.5 100.5t100.5 43.5t100 -41t41 -103q0 -57 -39 -98t-98 -41q-57 0 -101.5 42t-44.5 97z" />
<glyph unicode="&#xe7;" horiz-adv-x="972" d="M53 479q0 236 154.5 380.5t394.5 144.5q164 0 316 -64q-31 -129 -52 -262h-37q-14 92 -66 149.5t-140 57.5q-113 0 -171.5 -105.5t-58.5 -228.5q0 -160 67.5 -291t215.5 -131q59 0 120.5 17.5t102.5 50.5l14 -11l-45 -157q-57 -27 -128.5 -39.5t-141.5 -12.5 q-233 0 -389 135.5t-156 366.5zM223 -391l35 92q113 -35 149.5 -42t84.5 -7q43 0 72.5 18.5t29.5 57.5q0 35 -26.5 59.5t-63.5 24.5q-18 0 -31.5 -3.5t-28.5 -7.5v201h84v-115l90 2q70 -8 115 -49t45 -110q0 -82 -58 -134.5t-147 -52.5q-92 0 -177 15.5t-173 50.5z" />
<glyph unicode="&#xe8;" horiz-adv-x="1075" d="M61 496q0 227 142.5 369.5t367.5 142.5q215 0 327 -120t112 -337v-62h-615q0 -147 86.5 -246.5t231.5 -99.5q74 0 124 21.5t113 71.5l27 -13q-14 -39 -27.5 -82t-21.5 -82q-76 -43 -158 -62.5t-174 -19.5q-240 0 -387.5 139.5t-147.5 379.5zM213 1395q0 45 31.5 74.5 t77.5 29.5q49 0 83.5 -30.5t67.5 -63.5l277 -293h-107l-330 160q-45 23 -72.5 50.5t-27.5 72.5zM393 645l2 -39h312q4 16 4 49q0 102 -32 181t-122 79q-88 0 -126 -85t-38 -185z" />
<glyph unicode="&#xe9;" horiz-adv-x="1075" d="M61 496q0 227 142.5 369.5t367.5 142.5q215 0 327 -120t112 -337v-62h-615q0 -147 86.5 -246.5t231.5 -99.5q74 0 124 21.5t113 71.5l27 -13q-14 -39 -27.5 -82t-21.5 -82q-76 -43 -158 -62.5t-174 -19.5q-240 0 -387.5 139.5t-147.5 379.5zM330 1112l274 293 q41 47 74 71.5t78 24.5t76.5 -33.5t31.5 -74.5t-29.5 -71t-72.5 -50l-330 -160h-102zM393 645l2 -39h312q4 16 4 49q0 102 -32 181t-122 79q-88 0 -126 -85t-38 -185z" />
<glyph unicode="&#xea;" horiz-adv-x="1075" d="M61 496q0 227 142.5 369.5t367.5 142.5q215 0 327 -120t112 -337v-62h-615q0 -147 86.5 -246.5t231.5 -99.5q74 0 124 21.5t113 71.5l27 -13q-14 -39 -27.5 -82t-21.5 -82q-76 -43 -158 -62.5t-174 -19.5q-240 0 -387.5 139.5t-147.5 379.5zM221 1112l225 365h183 l223 -365h-96l-217 180l-220 -180h-98zM393 645l2 -39h312q4 16 4 49q0 102 -32 181t-122 79q-88 0 -126 -85t-38 -185z" />
<glyph unicode="&#xeb;" horiz-adv-x="1075" d="M61 496q0 227 142.5 369.5t367.5 142.5q215 0 327 -120t112 -337v-62h-615q0 -147 86.5 -246.5t231.5 -99.5q74 0 124 21.5t113 71.5l27 -13q-14 -39 -27.5 -82t-21.5 -82q-76 -43 -158 -62.5t-174 -19.5q-240 0 -387.5 139.5t-147.5 379.5zM205 1296q0 59 42 101.5 t99 42.5t98 -41t41 -103q0 -57 -36.5 -98t-98.5 -41q-61 0 -103 40t-42 99zM393 645l2 -39h312q4 16 4 49q0 102 -32 181t-122 79q-88 0 -126 -85t-38 -185zM590 1296q0 57 41 100.5t98 43.5t98 -41t41 -103q0 -59 -37.5 -99t-97.5 -40q-59 0 -101 40t-42 99z" />
<glyph unicode="&#xee;" horiz-adv-x="583" d="M-23 1114l224 365h180l227 -365h-100l-215 180l-219 -180h-97zM121 0q16 98 16 186l-2 615q0 23 -7 87t-7 95q43 -4 88 -8t84 -4q37 0 84 4t90 8q-2 -12 -8 -66.5t-13 -113.5v-332q0 -158 3.5 -258t15.5 -213l-176 4z" />
<glyph unicode="&#xef;" horiz-adv-x="583" d="M-39 1296q0 57 41 100.5t98 43.5t97.5 -42t40.5 -102q0 -57 -37 -98t-97 -41q-59 0 -101 40t-42 99zM121 0q16 98 16 186l-2 615q0 23 -7 87t-7 95q43 -4 88 -8t84 -4q37 0 84 4t90 8q-2 -12 -8 -66.5t-13 -113.5v-332v-301l19 -170l-176 4zM342 1296q0 59 42 101.5 t99 42.5t98.5 -41t41.5 -103q0 -59 -38 -99t-100 -40q-59 0 -101 40t-42 99z" />
<glyph unicode="&#xf4;" horiz-adv-x="1142" d="M47 492q0 242 145.5 379t391.5 137q229 0 370.5 -139.5t141.5 -370.5q0 -242 -139.5 -381.5t-385.5 -139.5q-236 0 -380 138.5t-144 376.5zM256 1114l223 365h185l223 -365h-99l-217 180l-221 -180h-94zM381 492q0 -92 3 -131.5t13 -102.5q12 -80 56.5 -132t117.5 -52 q74 0 116 51t51.5 106.5t15.5 85.5q8 84 8 179q0 88 -8 170q-6 31 -15.5 87t-50.5 106t-117 50q-100 0 -137 -75.5t-45 -154.5t-8 -187z" />
<glyph unicode="&#xf6;" horiz-adv-x="1142" d="M47 492q0 242 145.5 379t391.5 137q229 0 370.5 -139.5t141.5 -370.5q0 -242 -139.5 -381.5t-385.5 -139.5q-236 0 -380 138.5t-144 376.5zM236 1296q0 59 42 101.5t101 42.5q57 0 98 -41t41 -103q0 -57 -39 -98t-98 -41q-55 0 -100 41t-45 98zM381 492q0 -92 3 -131.5 t13 -102.5q12 -80 56.5 -132t117.5 -52q74 0 116 51t51.5 106.5t15.5 85.5q8 84 8 179q0 88 -8 170q-6 31 -15.5 87t-50.5 106t-117 50q-100 0 -137 -75.5t-45 -154.5t-8 -187zM621 1296q0 59 42 101.5t99 42.5q59 0 100 -41t41 -103q0 -57 -39 -98t-98 -41t-102 41t-43 98z " />
<glyph unicode="&#xf7;" horiz-adv-x="1679" d="M250 504v194h1180v-194h-1180zM690 211q0 61 44 105t104 44q61 0 104 -40.5t43 -106.5q0 -59 -44 -103t-103 -44q-61 0 -104.5 43t-43.5 102zM690 987q0 61 43 104.5t105 43.5q63 0 106 -43.5t43 -106.5q0 -61 -45 -104t-106 -43q-59 0 -102.5 43t-43.5 106z" />
<glyph unicode="&#xf9;" horiz-adv-x="1191" d="M111 985q49 -6 88 -9t75 -3q37 0 83 4t89 8q-14 -143 -14 -313l-2 -105l2 -155q0 -143 39 -195.5t113 -52.5q68 0 105.5 54t47.5 128l4 141q0 125 -4 233.5t-8 264.5q35 -4 88 -8t88 -4q41 0 86 4t76 8q0 -63 -7 -239.5t-7 -264.5q0 -82 7 -250t7 -229l-154 4l-157 -4 v139q-63 -74 -148.5 -119t-175.5 -45q-133 0 -221 84t-88 218l2 219q0 84 -7 254t-7 233zM270 1397q0 45 33 75.5t78 30.5q39 0 69.5 -23.5t77.5 -70.5l275 -293h-101l-331 160q-49 27 -75 52.5t-26 68.5z" />
<glyph unicode="&#xfb;" horiz-adv-x="1191" d="M111 985q49 -6 88 -9t75 -3q37 0 83 4t89 8q-14 -143 -14 -313l-2 -105l2 -155q0 -143 39 -195.5t113 -52.5q68 0 105.5 54t47.5 128l4 141q0 125 -4 233.5t-8 264.5q35 -4 88 -8t88 -4q41 0 86 4t76 8q0 -63 -7 -239.5t-7 -264.5q0 -82 7 -250t7 -229l-154 4l-157 -4 v139q-63 -74 -148.5 -119t-175.5 -45q-133 0 -221 84t-88 218l2 219q0 84 -7 254t-7 233zM276 1116l228 365h182l225 -365h-98l-219 180l-217 -180h-101z" />
<glyph unicode="&#xfc;" horiz-adv-x="1191" d="M111 983q49 -6 88 -9t75 -3q37 0 83 4t89 8q-14 -143 -14 -313l-2 -103l2 -155q0 -143 39 -195.5t113 -52.5q68 0 105.5 54t47.5 128l4 141q0 82 -6 248t-6 248q35 -4 88 -8t88 -4q41 0 86 4t76 8q0 -100 -7 -276.5t-7 -225.5q0 -82 7 -250t7 -229l-154 4l-157 -4v139 q-63 -74 -148.5 -119t-175.5 -45q-133 0 -221 84t-88 218l2 219q0 84 -7 253t-7 232zM262 1296q0 59 42.5 101.5t101.5 42.5q55 0 96 -41t41 -103q0 -57 -39 -98t-96 -41q-59 0 -102.5 41t-43.5 98zM643 1296q0 59 42 101.5t101 42.5t100.5 -41t41.5 -103q0 -55 -40 -97 t-97 -42t-102.5 41t-45.5 98z" />
<glyph unicode="&#x153;" horiz-adv-x="1765" d="M53 494q0 229 140.5 371.5t371.5 142.5q195 0 365 -113q70 57 154.5 85t183.5 28q207 0 320.5 -122t113.5 -329l-2 -68h-615q0 -147 85 -246.5t233 -99.5q135 0 235 93l25 -13q-16 -47 -24.5 -73.5t-24.5 -90.5q-66 -43 -153 -62.5t-177 -19.5q-113 0 -200 27t-156 96 q-66 -66 -159.5 -94.5t-197.5 -28.5q-236 0 -377 139.5t-141 377.5zM389 485q0 -88 3.5 -124.5t15.5 -108.5q14 -82 57 -134t119 -52q43 0 85 25.5t66.5 78.5t32.5 131t8 184q0 117 -14 216.5t-59.5 150.5t-120.5 51q-98 0 -148 -88q-23 -47 -34 -120.5t-11 -209.5z M1085 606h314v51q0 141 -41 199.5t-113 58.5q-98 0 -129 -93t-31 -216z" />
<glyph unicode="&#x2000;" horiz-adv-x="949" />
<glyph unicode="&#x2001;" horiz-adv-x="1898" />
<glyph unicode="&#x2002;" horiz-adv-x="949" />
<glyph unicode="&#x2003;" horiz-adv-x="1898" />
<glyph unicode="&#x2004;" horiz-adv-x="632" />
<glyph unicode="&#x2005;" horiz-adv-x="474" />
<glyph unicode="&#x2006;" horiz-adv-x="316" />
<glyph unicode="&#x2007;" horiz-adv-x="316" />
<glyph unicode="&#x2008;" horiz-adv-x="237" />
<glyph unicode="&#x2009;" horiz-adv-x="379" />
<glyph unicode="&#x200a;" horiz-adv-x="105" />
<glyph unicode="&#x2010;" horiz-adv-x="659" d="M88 365q0 27 5 73t5 56q0 27 -5 72.5t-5 56.5h483l-10 -131l10 -127h-483z" />
<glyph unicode="&#x2011;" horiz-adv-x="659" d="M88 365q0 27 5 73t5 56q0 27 -5 72.5t-5 56.5h483l-10 -131l10 -127h-483z" />
<glyph unicode="&#x2012;" horiz-adv-x="659" d="M88 365q0 27 5 73t5 56q0 27 -5 72.5t-5 56.5h483l-10 -131l10 -127h-483z" />
<glyph unicode="&#x2013;" horiz-adv-x="1200" d="M88 365q0 27 10.5 73t10.5 56q0 27 -10.5 72.5t-10.5 56.5h1024l-21 -131l21 -127h-1024z" />
<glyph unicode="&#x2014;" horiz-adv-x="2013" d="M334 410v211h1345v-211h-1345z" />
<glyph unicode="&#x2018;" horiz-adv-x="550" d="M100 885q0 18 10.5 48t22.5 46l299 420l57 -21l-118 -473q-14 -66 -49 -107.5t-99 -41.5q-51 0 -87 37.5t-36 91.5z" />
<glyph unicode="&#x2019;" horiz-adv-x="550" d="M104 780l119 471q10 59 47 103.5t90 44.5q57 0 97.5 -36t40.5 -91q0 -25 -8.5 -48.5t-22.5 -47.5l-303 -420z" />
<glyph unicode="&#x201c;" horiz-adv-x="964" d="M96 887q0 49 33 94l301 418l59 -23l-118 -471q-12 -63 -48 -106t-96 -43q-55 0 -93 37.5t-38 93.5zM510 883q0 51 31 98l301 418l57 -23l-117 -471q-8 -59 -47 -104t-96 -45q-53 0 -91 35.5t-38 91.5z" />
<glyph unicode="&#x201d;" horiz-adv-x="964" d="M106 780l119 471q10 63 45 105.5t92 42.5q59 0 97.5 -34t38.5 -95q0 -49 -33 -94l-299 -420zM518 780l117 471q10 59 47 103.5t92 44.5t94 -35t39 -90q0 -27 -8 -50.5t-22 -47.5l-299 -420z" />
<glyph unicode="&#x2022;" horiz-adv-x="1509" d="M317 745q0 178 130.5 308.5t308.5 130.5q176 0 304 -130t128 -309q0 -174 -127 -303t-305 -129q-184 0 -311.5 127t-127.5 305z" />
<glyph unicode="&#x2026;" horiz-adv-x="1742" d="M137 131q0 61 45.5 106.5t106.5 45.5q59 0 106 -45t47 -107q0 -61 -46 -105t-107 -44t-106.5 43t-45.5 106zM694 131q0 61 45.5 106.5t108.5 45.5q59 0 106 -45t47 -107q0 -61 -46 -105t-107 -44q-63 0 -108.5 43t-45.5 106zM1247 131q0 61 45.5 106.5t106.5 45.5 q59 0 106 -45t47 -107q0 -61 -46 -105t-107 -44t-106.5 43t-45.5 106z" />
<glyph unicode="&#x202f;" horiz-adv-x="379" />
<glyph unicode="&#x205f;" horiz-adv-x="474" />
<glyph unicode="&#x2122;" horiz-adv-x="1677" d="M201 1327v111h479v-111h-164v-428h-149v428h-166zM788 899v539h195l125 -330l121 330h192v-539h-133v401l-149 -401h-62l-155 401v-401h-134z" />
<glyph unicode="&#xe000;" horiz-adv-x="983" d="M0 0v983h983v-983h-983z" />
</font>
</defs>
</svg>
