<?xml version="1.0" standalone="no"?>
<!DOCTYPE svg PUBLIC "-//W3C//DTD SVG 1.1//EN" "http://www.w3.org/Graphics/SVG/1.1/DTD/svg11.dtd" >
<svg xmlns="http://www.w3.org/2000/svg">
<metadata></metadata>
<defs>
<font id="newsgoth_lt_btlight_italic" horiz-adv-x="1024" >
<font-face units-per-em="2048" ascent="1638" descent="-410" />
<missing-glyph horiz-adv-x="608" />
<glyph horiz-adv-x="2048" />
<glyph horiz-adv-x="2048" />
<glyph unicode="&#xd;" horiz-adv-x="608" />
<glyph unicode=" "  horiz-adv-x="608" />
<glyph unicode="&#x09;" horiz-adv-x="608" />
<glyph unicode="&#xa0;" horiz-adv-x="608" />
<glyph unicode="!" horiz-adv-x="608" d="M72 0l41 184h170l-41 -184h-170zM203 451l182 1019h162l-258 -1019h-86z" />
<glyph unicode="&#x22;" horiz-adv-x="551" d="M100 881v553h86v-553h-86zM365 881v553h86v-553h-86z" />
<glyph unicode="#" horiz-adv-x="1575" d="M129 494l31 90h336l100 282h-360l28 90h365l176 498h110l-174 -498h271l176 498h110l-174 -498h322l-31 -90h-323l-101 -282h348l-30 -90h-351l-174 -494h-112l176 494h-270l-179 -494h-110l174 494h-334zM610 584h269l100 282h-270z" />
<glyph unicode="$" horiz-adv-x="1217" d="M66 322l92 49q45 -116 110.5 -177.5t159.5 -76.5l139 604q-161 77 -239 172.5t-78 214.5q0 166 111 265.5t298 99.5q33 0 50 -1t32 -4l39 162h88l-43 -178q115 -29 195 -101.5t131 -193.5l-94 -39q-48 96 -110 152.5t-144 79.5l-129 -557q185 -99 262.5 -191t77.5 -207 q0 -185 -124.5 -290t-344.5 -105q-8 0 -25 1t-26 1l-52 -219h-90l56 233q-117 22 -201 96.5t-141 209.5zM362 1120q0 -90 57.5 -161.5t174.5 -127.5l127 541q-8 1 -17.5 1.5t-27.5 0.5q-146 0 -230 -68t-84 -186zM514 98q7 0 21 -1t20 -1q156 0 250 79.5t94 209.5 q0 83 -56 149t-196 144z" />
<glyph unicode="%" horiz-adv-x="1806" d="M184 1165q0 68 25.5 129t73.5 109q49 49 110 74.5t129 25.5t128 -25.5t110 -74.5q48 -49 74 -110t26 -128q0 -68 -25 -127.5t-75 -109.5t-110 -75.5t-128 -25.5t-129 26t-110 75q-49 48 -74 108.5t-25 128.5zM285 1165q0 -98 69.5 -166.5t167.5 -68.5q99 0 167.5 68.5 t68.5 166.5q0 99 -68.5 167.5t-167.5 68.5q-98 0 -167.5 -69t-69.5 -167zM438 -23l854 1526h97l-857 -1526h-94zM971 315q0 67 25 127.5t73 108.5q49 49 110.5 74.5t129.5 25.5t129 -25.5t110 -74.5q48 -48 73.5 -108.5t25.5 -127.5q0 -70 -25 -130.5t-74 -108.5 q-49 -49 -110 -75t-129 -26t-129.5 26t-110.5 75q-48 48 -73 109t-25 130zM1071 313q0 -98 69.5 -166.5t168.5 -68.5q98 0 166.5 68.5t68.5 166.5q0 99 -68.5 167.5t-166.5 68.5q-99 0 -168.5 -69t-69.5 -167z" />
<glyph unicode="&#x26;" horiz-adv-x="1327" d="M94 383q0 147 86.5 263.5t261.5 205.5q-52 127 -73 202t-21 130q0 139 80.5 226t208.5 87q120 0 198 -78t78 -200q0 -114 -72 -212.5t-229 -195.5q75 -162 147.5 -282.5t149.5 -211.5q63 83 102.5 170.5t57.5 186.5l115 -23q-17 -105 -63 -209.5t-126 -218.5 q56 -47 113.5 -75.5t118.5 -41.5l-6 -124q-78 6 -153 43t-155 108q-90 -79 -184 -117.5t-199 -38.5q-195 0 -315.5 112.5t-120.5 293.5zM229 389q0 -127 87 -212t214 -85q78 0 150 30.5t145 94.5q-85 98 -164 225.5t-159 298.5q-139 -73 -206 -159.5t-67 -192.5zM475 1184 q0 -47 17.5 -107.5t64.5 -165.5q109 61 173.5 143.5t64.5 157.5t-43.5 122.5t-110.5 47.5q-76 0 -121 -53.5t-45 -144.5z" />
<glyph unicode="'" horiz-adv-x="285" d="M100 881v553h86v-553h-86z" />
<glyph unicode="(" horiz-adv-x="678" d="M117 463q0 309 121 568t360 462h152q-257 -217 -383.5 -475.5t-126.5 -564.5q0 -163 38.5 -318t116.5 -309h-127q-76 164 -113.5 322t-37.5 315z" />
<glyph unicode=")" horiz-adv-x="678" d="M-94 -174q257 216 383.5 475t126.5 565q0 161 -39 316t-119 311h129q77 -164 114.5 -322t37.5 -315q0 -309 -121 -568.5t-361 -461.5h-151z" />
<glyph unicode="*" d="M188 1126l43 131l328 -151l-29 364h119l-26 -362l327 149l41 -131l-348 -77l240 -267l-109 -82l-184 308l-180 -308l-113 82l240 265z" />
<glyph unicode="+" horiz-adv-x="1706" d="M254 569v82h559v570h80v-570h559v-82h-559v-569h-80v569h-559z" />
<glyph unicode="," horiz-adv-x="608" d="M-51 -295l170 295h-70l41 186h172l-45 -202l-201 -279h-67z" />
<glyph unicode="-" horiz-adv-x="676" d="M39 492l24 114h512l-24 -114h-512z" />
<glyph unicode="." horiz-adv-x="608" d="M55 0l41 184h170l-41 -184h-170z" />
<glyph unicode="/" horiz-adv-x="559" d="M-86 -190l598 1683h100l-598 -1683h-100z" />
<glyph unicode="0" horiz-adv-x="1217" d="M82 518q0 191 43 363t125 309q89 150 207 226.5t260 76.5q204 0 313 -140.5t109 -404.5q0 -189 -43.5 -364t-124.5 -316q-87 -150 -205.5 -228.5t-255.5 -78.5q-209 0 -318.5 142.5t-109.5 414.5zM201 496q0 -203 79.5 -314.5t223.5 -111.5q93 0 178 47t141 131 q94 139 146.5 322t52.5 370q0 216 -79 330t-228 114q-115 0 -208 -68.5t-167 -207.5q-65 -121 -102 -283.5t-37 -328.5z" />
<glyph unicode="1" horiz-adv-x="1217" d="M190 0l25 109h250l274 1241l-286 -47l18 81q96 22 184.5 49t169.5 60h72l-307 -1384h264l-25 -109h-639z" />
<glyph unicode="2" horiz-adv-x="1217" d="M33 0q40 139 109 251t173 208q87 79 286 194l12 7q233 136 297.5 221.5t64.5 205.5q0 136 -82 220t-215 84q-128 0 -216.5 -81t-135.5 -241l-121 31q64 193 184 296t283 103q193 0 310.5 -111t117.5 -294q0 -75 -24 -146.5t-70 -136.5q-77 -105 -313 -236 q-33 -19 -50 -28q-208 -118 -304 -214.5t-149 -223.5h785l-25 -109h-917z" />
<glyph unicode="3" horiz-adv-x="1217" d="M47 281l107 57q66 -132 163 -195t232 -63q157 0 255.5 96t98.5 248q0 159 -119 243.5t-344 84.5h-22l24 114q45 -6 86 -9t78 -3q181 0 277 72t96 209q0 109 -85 182.5t-214 73.5q-107 0 -191.5 -47t-148.5 -142l-96 64q93 116 200 173.5t232 57.5q191 0 308.5 -99 t117.5 -257q0 -141 -70.5 -230t-216.5 -133v-12q106 -63 159.5 -151t53.5 -199q0 -195 -138 -319t-358 -124q-168 0 -288 76t-197 232z" />
<glyph unicode="4" horiz-adv-x="1217" d="M43 371l23 106l854 993h176l-219 -993h217l-23 -106h-219l-88 -396h-117l90 396h-694zM197 477h565l196 891z" />
<glyph unicode="5" horiz-adv-x="1217" d="M86 258l100 74q57 -126 143.5 -189t202.5 -63q166 0 269.5 126t103.5 329q0 168 -76.5 253.5t-226.5 85.5q-89 0 -164 -42.5t-145 -133.5l-86 29l162 743h684l-25 -110h-582l-96 -447l19 -14q64 42 123.5 62t117.5 20q187 0 303.5 -123t116.5 -321q0 -252 -138 -408 t-360 -156q-153 0 -262.5 70t-183.5 215z" />
<glyph unicode="6" horiz-adv-x="1217" d="M117 532q0 215 64 417t177 345q79 99 183.5 151t222.5 52q106 0 193.5 -41t172.5 -131l-79 -78q-67 72 -137 105.5t-150 33.5q-186 0 -311 -157t-193 -473q81 85 172 128.5t189 43.5q194 0 313 -124t119 -327q0 -223 -131 -362.5t-342 -139.5q-227 0 -345 142.5 t-118 414.5zM242 467q0 -177 94 -280t256 -103q153 0 245.5 109.5t92.5 291.5q0 157 -83.5 246.5t-228.5 89.5q-110 0 -203 -59.5t-163 -175.5q-6 -46 -8 -72.5t-2 -46.5z" />
<glyph unicode="7" horiz-adv-x="1217" d="M176 -25l805 1366v19h-731l22 110h897l-14 -67l-829 -1428h-150z" />
<glyph unicode="8" horiz-adv-x="1217" d="M68 391q0 148 101 253.5t288 150.5q-115 71 -169.5 153t-54.5 185q0 161 114 262.5t296 101.5q200 0 324.5 -103.5t124.5 -267.5q0 -129 -89 -226t-249 -142q135 -66 201.5 -159t66.5 -214q0 -181 -125.5 -293t-329.5 -112q-223 0 -361 114t-138 297zM190 381 q0 -125 106 -209t267 -84q149 0 243.5 81t94.5 208q0 96 -74 178.5t-231 159.5q-203 -42 -304.5 -125t-101.5 -209zM354 1143q0 -95 70.5 -173t208.5 -136q174 45 255 116.5t81 179.5q0 112 -91.5 185.5t-232.5 73.5q-128 0 -209.5 -69.5t-81.5 -176.5z" />
<glyph unicode="9" horiz-adv-x="1217" d="M78 145l82 78q67 -72 136 -105.5t148 -33.5q186 0 312.5 157t193.5 474q-80 -85 -172 -128.5t-190 -43.5q-195 0 -313.5 123.5t-118.5 326.5q0 224 131 363t342 139q227 0 346 -142.5t119 -414.5q0 -215 -64.5 -417t-177.5 -345q-78 -98 -182.5 -150.5t-223.5 -52.5 q-106 0 -194.5 41.5t-173.5 130.5zM279 985q0 -156 83 -246t228 -90q111 0 204.5 60t163.5 175q6 45 8.5 73.5t2.5 48.5q0 176 -94 278t-257 102q-153 0 -246 -109t-93 -292z" />
<glyph unicode=":" horiz-adv-x="608" d="M57 0l43 184h170l-41 -184h-172zM193 623l40 186h170l-41 -186h-169z" />
<glyph unicode=";" horiz-adv-x="608" d="M-39 -295l174 295h-72l41 186h172l-45 -202l-198 -279h-72zM193 623l40 186h170l-41 -186h-169z" />
<glyph unicode="&#x3c;" horiz-adv-x="1706" d="M264 580v61l1178 483v-90l-1045 -424l1045 -424v-88z" />
<glyph unicode="=" horiz-adv-x="1706" d="M254 387v82h1198v-82h-1198zM254 752v79h1198v-79h-1198z" />
<glyph unicode="&#x3e;" horiz-adv-x="1706" d="M264 98v88l1045 424l-1045 424v90l1178 -483v-61z" />
<glyph unicode="?" horiz-adv-x="903" d="M129 0l43 184h170l-41 -184h-172zM184 1296q65 103 145 152t181 49q147 0 237.5 -87.5t90.5 -231.5q0 -77 -43 -155t-122 -143q-16 -13 -56 -40q-110 -75 -156 -142q-29 -42 -53 -99.5t-46 -135.5h-106q14 90 37.5 159.5t56.5 120.5q48 71 165 164l42 33q95 78 125.5 130 t30.5 116q0 95 -56 153t-147 58q-66 0 -122 -39t-112 -123z" />
<glyph unicode="@" horiz-adv-x="2048" d="M121 522q0 162 50.5 307t147.5 265q144 175 345.5 265.5t449.5 90.5q160 0 304.5 -44t248.5 -124q128 -98 194 -226.5t66 -277.5q0 -169 -63 -308t-181 -232q-67 -54 -145.5 -82.5t-159.5 -28.5q-95 0 -143.5 36.5t-48.5 108.5q0 12 3 34q1 3 1 5q-49 -88 -125 -136 t-166 -48q-154 0 -233.5 83t-79.5 243q0 228 134.5 386t326.5 158q95 0 160 -43t96 -127l61 129h80l-137 -553q-10 -36 -15.5 -64.5t-5.5 -43.5q0 -44 30.5 -68t86.5 -24q48 0 100 19.5t103 56.5q101 74 162 207t61 282q0 273 -199.5 439.5t-525.5 166.5q-168 0 -310.5 -48 t-258.5 -144q-154 -128 -232 -297t-78 -375q0 -327 221.5 -522t591.5 -195q161 0 324 50.5t299 142.5l29 -45q-146 -110 -308.5 -165t-339.5 -55q-187 0 -343 46.5t-277 138.5q-152 115 -226.5 267.5t-74.5 348.5zM690 446q0 -115 57.5 -180t159.5 -65q111 0 196 72.5 t116 193.5l63 254q-22 99 -81.5 151t-151.5 52q-152 0 -255.5 -138t-103.5 -340z" />
<glyph unicode="A" horiz-adv-x="1237" d="M-25 0l730 1470h194l148 -1470h-132l-51 477h-514l-233 -477h-142zM408 592h448l-68 745h-14z" />
<glyph unicode="B" horiz-adv-x="1354" d="M41 0l326 1470h370q230 0 345.5 -83t115.5 -248q0 -133 -62 -224.5t-196 -154.5q108 -72 157.5 -154t49.5 -188q0 -205 -147 -311.5t-429 -106.5h-530zM201 115h356q219 0 335 84.5t116 244.5q0 118 -91.5 186t-248.5 68h-338zM358 821h304q190 0 293.5 78t103.5 221 q0 115 -76.5 175.5t-222.5 60.5h-285z" />
<glyph unicode="C" horiz-adv-x="1239" d="M74 510q0 210 65.5 419t175.5 353q81 107 189 161t241 54q197 0 314 -110t143 -320l-117 -25q-29 175 -115 259.5t-233 84.5q-117 0 -209.5 -65.5t-167.5 -202.5q-71 -131 -111 -291t-40 -311q0 -202 93.5 -316t258.5 -114q120 0 219.5 75t186.5 232l100 -65 q-98 -177 -227 -266t-287 -89q-226 0 -352.5 141.5t-126.5 395.5z" />
<glyph unicode="D" horiz-adv-x="1354" d="M45 0l326 1470h315q280 0 429 -152.5t149 -440.5q0 -217 -68.5 -394.5t-200.5 -302.5q-102 -97 -229 -138.5t-346 -41.5h-375zM205 119h180q226 0 332 35.5t192 117.5q101 97 158 255t57 345q0 245 -114.5 362.5t-352.5 117.5h-180z" />
<glyph unicode="E" horiz-adv-x="1130" d="M57 0l326 1470h739l-24 -116h-604l-121 -539h497l-26 -117h-496l-131 -581h715l-25 -117h-850z" />
<glyph unicode="F" horiz-adv-x="1081" d="M57 0l326 1470h739l-24 -116h-606l-119 -539h497l-26 -117h-498l-153 -698h-136z" />
<glyph unicode="G" horiz-adv-x="1358" d="M74 510q0 180 49 364t133 320q94 152 215.5 227.5t271.5 75.5q205 0 327.5 -111.5t148.5 -320.5l-123 -25q-31 176 -121.5 261t-245.5 85q-110 0 -202.5 -68t-166.5 -202q-71 -131 -111 -291t-40 -311q0 -201 93 -314.5t257 -113.5q173 0 295.5 130t165.5 362h-381 l25 114h516l-156 -692h-135l39 147q-86 -87 -183.5 -130.5t-207.5 -43.5q-218 0 -340.5 142t-122.5 395z" />
<glyph unicode="H" horiz-adv-x="1464" d="M45 0l326 1470h135l-144 -653h775l143 653h137l-327 -1470h-136l156 702h-774l-156 -702h-135z" />
<glyph unicode="I" horiz-adv-x="567" d="M51 0l328 1470h135l-328 -1470h-135z" />
<glyph unicode="J" horiz-adv-x="786" d="M-127 172l109 61q46 -83 81.5 -112t86.5 -29q91 0 146 67.5t89 225.5l240 1085h135l-266 -1200q-33 -143 -120 -218t-222 -75q-96 0 -161 45.5t-118 149.5z" />
<glyph unicode="K" horiz-adv-x="1245" d="M57 0l326 1470h135l-172 -776l795 776h164l-582 -571l305 -899h-139l-273 795l-315 -297l-108 -498h-136z" />
<glyph unicode="L" horiz-adv-x="997" d="M63 0l328 1470h133l-299 -1353h699l-25 -117h-836z" />
<glyph unicode="M" horiz-adv-x="1700" d="M49 0l328 1470h246l94 -1269l684 1269h250l-326 -1470h-135l299 1343h-25l-729 -1343h-117l-110 1343h-25l-299 -1343h-135z" />
<glyph unicode="N" horiz-adv-x="1464" d="M41 0l326 1470h227l416 -1271l276 1271h135l-325 -1470h-156l-444 1348h-21l-299 -1348h-135z" />
<glyph unicode="O" horiz-adv-x="1354" d="M88 537q0 179 46 345t132 300q102 157 237 239t292 82q218 0 344.5 -148.5t126.5 -408.5q0 -177 -43.5 -342t-124.5 -297q-100 -163 -238.5 -249.5t-300.5 -86.5q-223 0 -347 148.5t-124 417.5zM225 518q0 -208 87.5 -320t250.5 -112q101 0 196 52.5t167 148.5 q98 132 149 304t51 370q0 203 -88 314t-247 111q-101 0 -192 -47.5t-161 -136.5q-102 -131 -157.5 -308t-55.5 -376z" />
<glyph unicode="P" horiz-adv-x="1239" d="M61 0l326 1470h371q230 0 348.5 -92.5t118.5 -273.5q0 -238 -157 -348.5t-497 -110.5q-46 0 -102.5 2.5t-125.5 7.5l-146 -655h-136zM367 768h321q192 0 295.5 85t103.5 243q0 126 -76.5 192t-222.5 66h-290z" />
<glyph unicode="Q" horiz-adv-x="1354" d="M92 537q0 177 45.5 342.5t130.5 298.5q101 155 235 237t288 82q220 0 346.5 -156t126.5 -430q0 -236 -86 -435.5t-252 -350.5q40 -78 101 -118.5t150 -50.5l-36 -112q-115 16 -191 67.5t-125 145.5q-85 -43 -154 -63.5t-130 -20.5q-209 0 -329 150t-120 414zM227 524 q0 -211 86 -322.5t248 -111.5q47 0 98.5 16t114.5 50q-26 61 -69.5 101.5t-112.5 68.5l41 114q79 -24 135.5 -73.5t97.5 -130.5q118 111 187 298.5t69 397.5q0 213 -86.5 332.5t-240.5 119.5q-100 0 -194 -49t-163 -137q-101 -130 -156 -305t-55 -369z" />
<glyph unicode="R" horiz-adv-x="1356" d="M55 0l326 1470h371q229 0 348 -93t119 -273q0 -182 -100.5 -287t-301.5 -133l234 -684h-140l-229 672h-344l-148 -672h-135zM365 784h319q191 0 294 84t103 238q0 120 -77 184t-222 64h-293z" />
<glyph unicode="S" horiz-adv-x="1128" d="M43 383l121 43q60 -176 148 -257t218 -81t213.5 79t83.5 202q0 87 -54.5 156.5t-258.5 199.5l-48 30q-154 95 -210 175q-30 42 -44.5 89t-14.5 99q0 176 112.5 276.5t311.5 100.5q165 0 279.5 -94.5t166.5 -274.5l-111 -39q-50 148 -139 221.5t-215 73.5 q-118 0 -192 -69.5t-74 -179.5q0 -136 254 -293q27 -16 41 -25q205 -129 270.5 -220t65.5 -212q0 -187 -121 -298.5t-326 -111.5q-172 0 -287 99t-190 311z" />
<glyph unicode="T" horiz-adv-x="1012" d="M141 1354l27 116h919l-24 -116h-377l-299 -1354h-135l299 1354h-410z" />
<glyph unicode="U" horiz-adv-x="1460" d="M137 387q0 33 4 68t13 73l208 942h136l-213 -955q-8 -32 -11.5 -61.5t-3.5 -58.5q0 -145 97 -227t268 -82q164 0 267.5 87t141.5 259l230 1038h135l-235 -1062q-48 -218 -180 -327.5t-347 -109.5q-244 0 -377 109t-133 307z" />
<glyph unicode="V" horiz-adv-x="1239" d="M195 1470h135l123 -1292l653 1292h149l-757 -1470h-154z" />
<glyph unicode="W" horiz-adv-x="1948" d="M209 1470h129l115 -1243l573 1243h137l86 -1243l588 1243h143l-702 -1470h-135l-94 1214l-566 -1214h-137z" />
<glyph unicode="X" horiz-adv-x="1128" d="M-39 0l531 770l-283 700h137l234 -571h12l391 571h162l-496 -714l312 -756h-136l-260 627h-14l-426 -627h-164z" />
<glyph unicode="Y" horiz-adv-x="1014" d="M141 1470h135l224 -682h14l447 682h149l-563 -858l-137 -612h-136l144 641z" />
<glyph unicode="Z" horiz-adv-x="1126" d="M12 0l19 82l889 1272h-660l27 116h827l-18 -88l-887 -1265h731l-27 -117h-901z" />
<glyph unicode="[" horiz-adv-x="678" d="M2 -137l356 1607h353l-15 -67h-235l-326 -1475h234l-15 -65h-352z" />
<glyph unicode="\" horiz-adv-x="559" d="M106 1493h95l286 -1683h-96z" />
<glyph unicode="]" horiz-adv-x="678" d="M-41 -137l14 65h236l326 1475h-234l14 67h353l-357 -1607h-352z" />
<glyph unicode="^" horiz-adv-x="2048" d="M424 901l539 557h118l541 -557h-125l-473 469l-475 -469h-125z" />
<glyph unicode="_" d="M0 -403h1024v-80h-1024v80z" />
<glyph unicode="`" d="M383 1540h147l224 -348h-90z" />
<glyph unicode="a" horiz-adv-x="1055" d="M16 248q0 188 178.5 294t559.5 144q8 45 12 74t4 49q0 83 -61.5 127.5t-176.5 44.5q-75 0 -142.5 -35.5t-137.5 -111.5l-90 67q81 92 170 136t192 44q171 0 269 -76.5t98 -209.5q0 -23 -6 -62.5t-21 -107.5l-106 -479q-5 -20 -7.5 -51t-2.5 -70v-25h-121l4 125 q-78 -73 -157.5 -108t-166.5 -35q-135 0 -213 71t-78 195zM141 258q0 -79 48.5 -128.5t125.5 -49.5q84 0 170.5 44.5t173.5 131.5l74 334q-319 -44 -455.5 -121t-136.5 -211z" />
<glyph unicode="b" horiz-adv-x="1112" d="M41 0l326 1470h122l-112 -509h14q70 63 138.5 93.5t140.5 30.5q161 0 251.5 -103t90.5 -286q0 -315 -146 -517t-370 -202q-104 0 -174 42t-123 137l-35 -156h-123zM233 305q38 -117 99 -172t153 -55q171 0 286.5 172.5t115.5 433.5q0 141 -63 223t-169 82 q-84 0 -163.5 -52t-153.5 -155z" />
<glyph unicode="c" horiz-adv-x="983" d="M53 403q0 119 35.5 242.5t95.5 216.5q70 106 164 163.5t197 57.5q143 0 233.5 -85t122.5 -250l-110 -27q-19 125 -83 195.5t-159 70.5q-66 0 -126 -35t-106 -100q-68 -97 -106.5 -219t-38.5 -242q0 -147 68.5 -230t189.5 -83q92 0 166.5 51.5t130.5 153.5l90 -58 q-69 -122 -165.5 -183.5t-219.5 -61.5q-173 0 -276 114.5t-103 308.5z" />
<glyph unicode="d" horiz-adv-x="1112" d="M41 391q0 301 145 495.5t365 194.5q107 0 181 -51t126 -162l133 602h123l-326 -1474h-122l32 151q-78 -87 -157.5 -129.5t-165.5 -42.5q-161 0 -247.5 107.5t-86.5 308.5zM162 369q0 -141 62.5 -219t174.5 -78q87 0 169 57t167 176l86 406q-29 143 -93 208.5t-173 65.5 q-85 0 -157 -47.5t-126 -138.5q-53 -95 -81.5 -205.5t-28.5 -224.5z" />
<glyph unicode="e" horiz-adv-x="1012" d="M27 403q0 118 36 240.5t99 216.5q73 111 172.5 168t216.5 57q172 0 264 -112.5t92 -321.5q0 -35 -2 -68t-6 -65h-733q-8 -43 -12 -78t-4 -65q0 -139 69.5 -220t190.5 -81q97 0 178.5 50.5t140.5 147.5l90 -57q-81 -119 -179.5 -178.5t-217.5 -59.5q-181 0 -288 115.5 t-107 310.5zM190 616h598q0 9 1.5 24t1.5 24q0 159 -62 240t-184 81q-120 0 -211 -94.5t-144 -274.5z" />
<glyph unicode="f" horiz-adv-x="561" d="M45 0l213 963h-184l22 100h185l41 188q25 119 93 180.5t173 61.5q35 0 71.5 -4.5t75.5 -14.5l-22 -91q-47 9 -71 12.5t-38 3.5q-67 0 -103.5 -32.5t-54.5 -109.5l-43 -194h209l-22 -100h-209l-213 -963h-123z" />
<glyph unicode="g" horiz-adv-x="1018" d="M-92 -98q0 75 54.5 133t162.5 96v10q-41 22 -60.5 50.5t-19.5 66.5q0 55 40.5 98t131.5 84v11q-45 56 -66.5 114.5t-21.5 124.5q0 170 113.5 281.5t287.5 111.5q70 0 134 -18t124 -55q32 35 79.5 55t113.5 24v-114q-5 0 -15.5 1t-15.5 1q-35 0 -61 -8.5t-45 -26.5 q30 -48 44.5 -101t14.5 -114q0 -174 -105.5 -280.5t-281.5 -106.5q-54 0 -104.5 12t-102.5 37q-72 -20 -105.5 -46t-33.5 -60q0 -61 181 -88q53 -8 84 -13q221 -38 311 -102.5t90 -179.5q0 -139 -118.5 -214t-336.5 -75q-230 0 -351.5 75t-121.5 216zM31 -98 q0 -94 91 -142.5t265 -48.5q152 0 238 48t86 132q0 77 -96 122t-341 77q-133 -31 -188 -74t-55 -114zM252 692q0 -118 70 -186t192 -68q112 0 189 81.5t77 201.5q0 127 -63 195.5t-180 68.5q-126 0 -205.5 -82t-79.5 -211z" />
<glyph unicode="h" horiz-adv-x="1126" d="M18 0l340 1470h111l-125 -557h16q86 85 171.5 124.5t181.5 39.5q123 0 197.5 -66.5t74.5 -176.5q0 -28 -6 -67t-21 -105l-147 -662h-125l152 680q12 53 17 89t5 65q0 65 -46 107t-120 42q-86 0 -182.5 -57t-202.5 -170l-168 -756h-123z" />
<glyph unicode="i" horiz-adv-x="449" d="M12 0l236 1063h123l-236 -1063h-123zM270 1292l39 178h158l-39 -178h-158z" />
<glyph unicode="j" horiz-adv-x="451" d="M-268 -370l20 98q29 -9 51.5 -13t40.5 -4q59 0 93 40t55 136l260 1176h123l-269 -1219q-26 -117 -88 -173t-165 -56q-30 0 -59.5 3.5t-61.5 11.5zM274 1292l39 178h158l-41 -178h-156z" />
<glyph unicode="k" horiz-adv-x="1018" d="M45 0l326 1470h123l-195 -882h14l543 475h143l-450 -404l270 -659h-131l-235 575l-197 -172l-88 -403h-123z" />
<glyph unicode="l" horiz-adv-x="449" d="M0 0l324 1470h125l-326 -1470h-123z" />
<glyph unicode="m" horiz-adv-x="1692" d="M14 0l236 1063h123l-33 -150h12q81 85 162 124.5t170 39.5q94 0 158 -46t90 -132h14q101 93 188 135.5t175 42.5q115 0 184.5 -66.5t69.5 -176.5q0 -36 -5.5 -77.5t-17.5 -94.5l-147 -662h-123l151 680q12 51 16.5 82.5t4.5 54.5q0 75 -44.5 120.5t-117.5 45.5 q-82 0 -169 -57t-177 -170l-168 -756h-125l151 679q10 44 14.5 79t4.5 61q0 75 -42.5 119.5t-113.5 44.5q-81 0 -170 -58t-180 -169l-168 -756h-123z" />
<glyph unicode="n" horiz-adv-x="1126" d="M25 0l235 1063h123l-35 -150h14q86 85 171.5 124.5t181.5 39.5q123 0 197.5 -66.5t74.5 -176.5q0 -28 -6 -67t-20 -105l-148 -662h-123l150 680q14 65 19 97t5 57q0 65 -47 107t-121 42q-88 0 -185.5 -57.5t-197.5 -169.5l-166 -756h-122z" />
<glyph unicode="o" horiz-adv-x="1010" d="M29 397q0 120 34.5 241.5t96.5 217.5q76 119 174.5 175t228.5 56q167 0 262 -109.5t95 -303.5q0 -117 -31 -232t-86 -209q-75 -126 -177 -189.5t-231 -63.5q-175 0 -270.5 108.5t-95.5 308.5zM152 389q0 -149 67 -232t187 -83q86 0 156.5 47t127.5 143q51 86 80 199 t29 227q0 139 -70 221t-186 82q-81 0 -149 -43.5t-124 -130.5q-54 -84 -86 -199.5t-32 -230.5z" />
<glyph unicode="p" horiz-adv-x="1114" d="M-55 -389l321 1452h123l-33 -152q79 88 157.5 130t164.5 42q159 0 247.5 -107.5t88.5 -303.5q0 -302 -146 -498.5t-366 -196.5q-115 0 -188.5 53.5t-114.5 166.5l-131 -586h-123zM233 348q28 -142 92.5 -208t174.5 -66q86 0 158.5 47.5t123.5 138.5q54 94 82.5 204 t28.5 226q0 141 -62.5 219t-175.5 78q-87 0 -169 -57t-167 -176z" />
<glyph unicode="q" horiz-adv-x="1128" d="M55 365q0 315 146 515.5t370 200.5q104 0 173 -41.5t122 -136.5l35 154h123l-319 -1446h-125l108 487l-14 2q-68 -63 -136.5 -94t-140.5 -31q-161 0 -251.5 103.5t-90.5 286.5zM178 375q0 -140 63.5 -221.5t170.5 -81.5q85 0 164 51t153 156l102 477q-35 116 -95.5 170.5 t-153.5 54.5q-172 0 -288 -172.5t-116 -433.5z" />
<glyph unicode="r" horiz-adv-x="676" d="M16 0l236 1063h123l-37 -166h10q71 93 145.5 135.5t165.5 42.5q18 0 52 -3q4 -1 6 -1l-25 -108q-16 3 -31 4.5t-30 1.5q-89 0 -166 -64t-174 -225l-152 -680h-123z" />
<glyph unicode="s" horiz-adv-x="872" d="M-8 211l82 63q48 -98 121 -147t172 -49q96 0 154.5 51t58.5 135q0 118 -202 226q-14 8 -22 12q-143 76 -192 141t-49 160q0 126 86 204t225 78q112 0 197.5 -54.5t150.5 -168.5l-88 -55q-47 91 -111 135.5t-147 44.5q-89 0 -140.5 -46t-51.5 -126q0 -110 190 -210 q18 -8 27 -13q150 -80 201 -145t51 -158q0 -140 -95 -227t-248 -87q-121 0 -212 58t-158 178z" />
<glyph unicode="t" horiz-adv-x="612" d="M90 963l21 100h178l76 336h122l-73 -336h209l-21 -100h-211l-158 -721q-6 -30 -9 -46.5t-3 -21.5q0 -46 31 -68t94 -22q22 0 54 3t71 9l-22 -102q-29 -4 -58 -6t-59 -2q-116 0 -174 43.5t-58 132.5q0 22 3 44t8 42l157 715h-178z" />
<glyph unicode="u" horiz-adv-x="1135" d="M80 223q0 29 6 69.5t20 104.5l148 666h123l-152 -684q-13 -67 -17.5 -99t-4.5 -57q0 -65 47 -107t121 -42q86 0 181.5 57.5t199.5 171.5l168 760h122l-235 -1063h-121l31 145h-15q-85 -84 -170.5 -123.5t-181.5 -39.5q-123 0 -196.5 65.5t-73.5 175.5z" />
<glyph unicode="v" horiz-adv-x="899" d="M109 1063h116l103 -893l428 893h127l-523 -1063h-120z" />
<glyph unicode="w" horiz-adv-x="1341" d="M84 1063h115l69 -893l379 893h115l63 -893l398 893h116l-481 -1063h-117l-61 881l-373 -881h-123z" />
<glyph unicode="x" horiz-adv-x="899" d="M-51 0l409 565l-237 498h127l190 -408l283 408h139l-360 -512l258 -551h-125l-217 455l-328 -455h-139z" />
<glyph unicode="y" horiz-adv-x="903" d="M-117 -365l33 97q31 -12 57 -17.5t47 -5.5q77 0 132 66t106 221l-133 1067h119l102 -877l428 877h127l-616 -1276q-47 -96 -104.5 -136t-147.5 -40q-31 0 -68 6t-82 18z" />
<glyph unicode="z" horiz-adv-x="874" d="M-23 0l17 74l670 899h-523l21 90h663l-20 -92l-660 -879h574l-17 -92h-725z" />
<glyph unicode="{" d="M176 485v90q10 -1 20.5 -1.5t28.5 -0.5q139 0 196.5 64.5t57.5 222.5v240q0 227 68.5 302t257.5 75h43v-88h-37q-135 0 -182 -51.5t-47 -213.5v-241q0 -175 -43 -248t-152 -105q109 -32 152 -104t43 -248v-241q0 -162 46.5 -212.5t180.5 -50.5h39v-88h-43 q-189 0 -257.5 74.5t-68.5 300.5v240q0 158 -58 222t-200 64q-7 0 -21.5 -1t-23.5 -1z" />
<glyph unicode="|" d="M467 -483v2048h90v-2048h-90z" />
<glyph unicode="}" d="M176 -326h39q134 0 180.5 50.5t46.5 212.5v241q0 174 43.5 247t153.5 105q-110 32 -153.5 105t-43.5 248v241q0 162 -47 213.5t-182 51.5h-37v88h43q189 0 257.5 -75t68.5 -302v-240q0 -158 58 -222.5t200 -64.5q7 0 21.5 1t23.5 1v-90q-9 0 -23.5 1t-21.5 1 q-142 0 -200 -64t-58 -222v-240q0 -226 -68.5 -300.5t-257.5 -74.5h-43v88z" />
<glyph unicode="~" horiz-adv-x="1706" d="M178 481v92q105 74 201 110t186 36q100 0 271 -61q12 -5 19 -7q8 -3 27 -10q168 -61 261 -61q83 0 175 37.5t212 121.5v-92q-106 -74 -202 -110.5t-185 -36.5q-99 0 -266 61q-16 6 -22 8q-12 4 -33 12q-167 60 -257 60q-83 0 -175 -37.5t-212 -122.5z" />
<glyph unicode="&#xa1;" horiz-adv-x="608" d="M90 0l258 1018h86l-182 -1018h-162zM354 1284l41 186h170l-41 -186h-170z" />
<glyph unicode="&#xa2;" horiz-adv-x="1217" d="M168 432q0 142 53 286t139 240q63 69 141 105.5t163 36.5q14 0 32.5 -1.5t40.5 -4.5l70 209h90l-78 -234q81 -41 128 -114.5t67 -188.5l-109 -27q-17 93 -45.5 148.5t-73.5 81.5l-290 -866q15 -4 30 -5.5t29 -1.5q84 0 157.5 52.5t129.5 152.5l88 -57 q-70 -123 -163 -183.5t-212 -60.5q-36 0 -55.5 2t-36.5 6l-86 -254h-88l90 281q-105 48 -158 148.5t-53 248.5zM287 410q0 -101 32.5 -172.5t96.5 -110.5l292 873q-14 3 -26 4.5t-23 1.5q-62 0 -122 -36t-105 -100q-68 -97 -106.5 -219t-38.5 -241z" />
<glyph unicode="&#xa3;" horiz-adv-x="1217" d="M74 690l24 109h215v16q0 328 121.5 505t345.5 177q171 0 277.5 -96t132.5 -275l-109 -18q-19 134 -97.5 207.5t-201.5 73.5q-172 0 -259 -133t-87 -394q0 -10 1 -31.5t1 -31.5h301l-24 -109h-276q-2 -123 -24.5 -235t-66.5 -211q111 -81 201.5 -120.5t165.5 -39.5 q106 0 171 68.5t95 209.5l113 -24q-40 -180 -138 -271.5t-251 -91.5q-93 0 -191.5 41.5t-212.5 128.5q-60 -68 -114 -107t-111 -56v129q124 71 180.5 202t56.5 351v26h-239z" />
<glyph unicode="&#xa4;" horiz-adv-x="1241" d="M94 418l207 205q-45 57 -68.5 123.5t-23.5 138.5q0 71 23.5 137.5t68.5 124.5l-207 205l58 59l206 -207q60 48 125 71t138 23q72 0 138 -23.5t126 -70.5l205 207l59 -59l-207 -205q45 -58 68.5 -124.5t23.5 -137.5q0 -73 -23 -138.5t-69 -123.5l207 -205l-59 -60 l-205 207q-58 -45 -125 -68.5t-139 -23.5q-74 0 -139 23t-124 69l-206 -207zM291 887q0 -138 97 -235t235 -97q137 0 234 97t97 235q0 137 -96.5 233.5t-234.5 96.5t-235 -97t-97 -233z" />
<glyph unicode="&#xa5;" horiz-adv-x="1217" d="M63 643l21 82h403l-69 209h-289l18 84h244l-149 452h106l244 -729l477 729h117l-297 -452h272l-18 -84h-309l-140 -209h404l-19 -82h-440l-18 -31l-136 -612h-110l141 643h-453z" />
<glyph unicode="&#xa6;" d="M467 -350v758h90v-758h-90zM467 674v758h90v-758h-90z" />
<glyph unicode="&#xa7;" d="M102 -4l86 61q52 -71 106 -107t109 -36q69 0 111.5 40t42.5 103q0 80 -116 261q-3 5 -5 8l-125 192q-67 103 -98 180.5t-31 141.5q0 91 60.5 151t150.5 60q14 0 33.5 -4t46.5 -13q-46 82 -66 138t-20 102q0 97 71 158t187 61q87 0 158.5 -40.5t128.5 -121.5l-84 -65 q-49 66 -95.5 97.5t-95.5 31.5q-65 0 -106 -35.5t-41 -91.5q0 -81 122 -265q6 -9 9 -14l104 -158q62 -93 94.5 -172.5t32.5 -134.5q0 -94 -57.5 -157.5t-142.5 -63.5q-21 0 -44.5 4.5t-54.5 14.5q49 -68 73 -134t24 -131q0 -107 -73.5 -177t-184.5 -70q-93 0 -169.5 46 t-140.5 140zM303 840q0 -48 32.5 -118.5t104.5 -176.5q63 -94 101.5 -124t85.5 -30q55 0 92 34.5t37 86.5q0 45 -38 126t-108 183q-55 80 -96.5 112t-87.5 32q-56 0 -89.5 -34t-33.5 -91z" />
<glyph unicode="&#xa8;" d="M410 1268l32 164h144l-35 -164h-141zM731 1268l35 164h141l-35 -164h-141z" />
<glyph unicode="&#xa9;" horiz-adv-x="1706" d="M123 721q0 145 56 279t161 241q101 103 232 157t280 54t282.5 -55t237.5 -160q103 -102 157 -235t54 -281q0 -150 -53.5 -280t-157.5 -232q-107 -106 -241.5 -162.5t-278.5 -56.5q-145 0 -277 55.5t-237 161.5q-105 104 -160 236t-55 278zM195 721q0 -130 50 -249.5 t144 -213.5t213.5 -144.5t249.5 -50.5t251.5 51t217.5 146q93 92 141.5 209.5t48.5 251.5q0 133 -49 252.5t-141 212.5q-95 95 -215 144.5t-254 49.5q-133 0 -251.5 -49t-209.5 -141q-95 -97 -145.5 -218t-50.5 -251zM471 725q0 205 107 328t282 123q132 0 222.5 -72 t103.5 -186h-105q-20 81 -79.5 126.5t-147.5 45.5q-126 0 -196 -97.5t-70 -273.5q0 -169 71.5 -267t194.5 -98q91 0 156 52.5t84 140.5h102q-11 -123 -108 -201t-240 -78q-173 0 -275 123.5t-102 333.5z" />
<glyph unicode="&#xaa;" horiz-adv-x="791" d="M12 901q0 131 134.5 206t418.5 101q6 28 9.5 49.5t3.5 36.5q0 57 -46.5 88t-132.5 31q-56 0 -107 -24.5t-104 -77.5l-67 47q61 64 128.5 95.5t143.5 31.5q128 0 201.5 -54t73.5 -147q0 -19 -5 -49.5t-14 -69.5l-80 -336q-4 -12 -6 -32.5t-2 -53.5v-16h-90l2 88 q-56 -50 -116.5 -75t-125.5 -25q-102 0 -160.5 49.5t-58.5 136.5zM106 907q0 -55 36.5 -90t95.5 -35q61 0 126 32t132 93l55 234q-241 -31 -343 -85.5t-102 -148.5z" />
<glyph unicode="&#xab;" horiz-adv-x="979" d="M141 541l281 323h121l-269 -323l201 -308h-119zM438 541l283 323h119l-269 -323l203 -308h-119z" />
<glyph unicode="&#xac;" horiz-adv-x="1706" d="M254 774v82h1198v-502h-78v420h-1120z" />
<glyph unicode="&#xad;" horiz-adv-x="676" d="M39 492l24 114h512l-24 -114h-512z" />
<glyph unicode="&#xae;" horiz-adv-x="1706" d="M123 721q0 145 56 279t161 241q101 103 232 157t280 54t282.5 -55t237.5 -160q103 -102 157 -235t54 -281q0 -150 -53.5 -280t-157.5 -232q-107 -106 -241.5 -162.5t-278.5 -56.5q-145 0 -277 55.5t-237 161.5q-105 104 -160 236t-55 278zM195 721q0 -130 50 -249.5 t144 -213.5t213.5 -144.5t249.5 -50.5t251.5 51t217.5 146q93 92 141.5 209.5t48.5 251.5q0 133 -49 252.5t-141 212.5q-95 95 -215 144.5t-254 49.5q-133 0 -251.5 -49t-209.5 -141q-95 -97 -145.5 -218t-50.5 -251zM569 309v846h305q180 0 264.5 -56.5t84.5 -176.5 q0 -89 -55.5 -149t-147.5 -71l190 -393h-131l-182 377h-213v-377h-115zM684 764h168q145 0 199.5 36t54.5 126q0 78 -61.5 114.5t-192.5 36.5h-168v-313z" />
<glyph unicode="&#xaf;" d="M391 1292l25 115h510l-25 -115h-510z" />
<glyph unicode="&#xb0;" horiz-adv-x="674" d="M63 1176q0 114 80.5 194t194.5 80q112 0 192 -80.5t80 -193.5q0 -114 -80 -193.5t-194 -79.5q-115 0 -194 79t-79 194zM125 1176q0 -89 62.5 -151t150.5 -62t150.5 62t62.5 151q0 87 -63 150t-150 63q-89 0 -151 -62t-62 -151z" />
<glyph unicode="&#xb1;" horiz-adv-x="1706" d="M254 59v82h1198v-82h-1198zM254 727v80h559v354h80v-354h559v-80h-559v-352h-80v352h-559z" />
<glyph unicode="&#xb2;" horiz-adv-x="803" d="M23 582q25 83 70.5 150t115.5 124q34 29 78 56.5t116 64.5q156 83 198 134.5t42 123.5q0 81 -54.5 130.5t-142.5 49.5q-84 0 -142.5 -48.5t-88.5 -143.5l-80 18q43 116 122 178t185 62q129 0 206 -66.5t77 -177.5q0 -45 -15.5 -87.5t-45.5 -80.5q-52 -65 -213 -146 l-28 -14q-134 -68 -198.5 -126.5t-99.5 -135.5h518l-16 -65h-604z" />
<glyph unicode="&#xb3;" horiz-adv-x="803" d="M31 750l71 34q44 -79 107.5 -117t152.5 -38q104 0 169 57.5t65 149.5q0 95 -78.5 145.5t-226.5 50.5h-15l17 70q26 -4 52.5 -6t53.5 -2q120 0 183 43t63 125q0 65 -56 109t-140 44q-71 0 -127 -28t-97 -84l-63 38q62 71 132.5 105.5t151.5 34.5q127 0 204 -59.5 t77 -155.5q0 -84 -46.5 -137.5t-141.5 -79.5v-9q68 -36 103.5 -89t35.5 -120q0 -116 -91 -191t-235 -75q-111 0 -190.5 46t-130.5 139z" />
<glyph unicode="&#xb4;" d="M506 1192l244 348h147l-299 -348h-92z" />
<glyph unicode="&#xb5;" horiz-adv-x="1094" d="M-111 -424l316 1487h121l-123 -590q-9 -43 -13 -77t-4 -64q0 -126 60 -192t174 -66q127 0 219.5 109t136.5 313l125 567h121l-166 -786q-2 -9 -5 -24q-20 -92 -20 -112q0 -31 17.5 -47t50.5 -16q9 0 18.5 0.5t20.5 1.5l-18 -96q-3 -1 -8 -2q-49 -11 -68 -11 q-68 0 -100.5 31.5t-32.5 95.5q0 7 0.5 16t3.5 29q-43 -83 -123.5 -127.5t-188.5 -44.5q-97 0 -169.5 45.5t-104.5 126.5l-119 -567h-121z" />
<glyph unicode="&#xb6;" d="M90 1130q0 157 108.5 253t286.5 96h447v-64h-129v-1415h-70v1415h-192v-1415h-70v782q-175 8 -278 102.5t-103 245.5z" />
<glyph unicode="&#xb7;" horiz-adv-x="608" d="M197 758q0 44 32 76t76 32t75.5 -31.5t31.5 -76.5q0 -43 -32 -75t-75 -32q-44 0 -76 31.5t-32 75.5z" />
<glyph unicode="&#xb8;" d="M61 -416l27 78q66 -19 120.5 -29t92.5 -10q68 0 103.5 28.5t35.5 82.5q0 47 -39 67.5t-131 20.5h-30l61 178h64l-37 -111h20q100 0 152.5 -39.5t52.5 -115.5q0 -92 -62.5 -143.5t-175.5 -51.5q-54 0 -115.5 11t-138.5 34z" />
<glyph unicode="&#xb9;" horiz-adv-x="803" d="M125 582l16 65h166l180 744l-188 -27l12 49q53 10 110.5 25.5t123.5 38.5h47l-203 -830h174l-16 -65h-422z" />
<glyph unicode="&#xba;" horiz-adv-x="758" d="M23 1006q0 85 25.5 170t72.5 151q56 82 130 122t171 40q126 0 197 -77t71 -214q0 -80 -23 -161t-65 -146q-57 -89 -133 -133.5t-172 -44.5q-132 0 -203 75.5t-71 217.5zM115 999q0 -104 50.5 -162.5t139.5 -58.5q64 0 116.5 33t96.5 100q39 61 60.5 140t21.5 159 q0 97 -52.5 155t-139.5 58q-60 0 -111.5 -30.5t-93.5 -92.5q-41 -59 -64.5 -140t-23.5 -161z" />
<glyph unicode="&#xbb;" horiz-adv-x="979" d="M82 233l268 324l-203 307h121l215 -307l-282 -324h-119zM379 233l268 324l-201 307h119l217 -307l-282 -324h-121z" />
<glyph unicode="&#xbc;" horiz-adv-x="1874" d="M121 639l14 61h158l174 695l-180 -27l10 47q63 12 118 26.5t105 33.5h45l-192 -775h166l-17 -61h-401zM424 -25l936 1528h88l-936 -1528h-88zM1135 207l14 59l539 557h110l-137 -557h135l-14 -59h-137l-56 -221h-73l57 221h-438zM1231 266h356l125 500z" />
<glyph unicode="&#xbd;" horiz-adv-x="1874" d="M121 639l14 61h158l174 695l-180 -27l10 47q63 12 118 26.5t105 33.5h45l-192 -775h166l-17 -61h-401zM424 -25l936 1528h88l-936 -1528h-88zM1128 0q25 78 68.5 141t110.5 115q54 45 175 107l10 5q148 76 189 124.5t41 115.5q0 76 -51 123t-135 47q-81 0 -137 -44.5 t-86 -135.5l-76 18q40 109 115.5 166.5t179.5 57.5q121 0 194.5 -62.5t73.5 -165.5q0 -41 -15 -81.5t-44 -75.5q-48 -61 -199 -134q-19 -9 -29 -14q-133 -67 -192.5 -121t-91.5 -125h493l-16 -61h-578z" />
<glyph unicode="&#xbe;" horiz-adv-x="1874" d="M29 797l67 30q42 -72 103.5 -107.5t146.5 -35.5q99 0 161 53.5t62 139.5q0 89 -75.5 136.5t-217.5 47.5h-12l15 63q27 -3 53 -4.5t49 -1.5q115 0 175 40t60 116q0 61 -53.5 102t-134.5 41q-66 0 -119.5 -26t-93.5 -78l-61 35q57 65 124.5 97t147.5 32q120 0 194 -55.5 t74 -143.5q0 -79 -44.5 -129.5t-135.5 -73.5v-8q66 -35 99.5 -84t33.5 -111q0 -109 -86.5 -178t-224.5 -69q-107 0 -183 42.5t-124 129.5zM424 -25l936 1528h88l-936 -1528h-88zM1135 207l14 59l539 557h110l-137 -557h135l-14 -59h-137l-56 -221h-73l57 221h-438zM1231 266 h356l125 500z" />
<glyph unicode="&#xbf;" horiz-adv-x="903" d="M66 293q0 76 42.5 153t121.5 142q16 13 56 40q111 76 156 142q29 41 53 99t46 139h106q-14 -90 -37 -159.5t-57 -121.5q-48 -71 -165 -163q-28 -22 -42 -34q-97 -80 -127.5 -131t-30.5 -114q0 -95 57 -154t148 -59q65 0 121 39t113 125l92 -64q-65 -102 -145 -151.5 t-181 -49.5q-147 0 -237 88.5t-90 233.5zM561 1284l41 186h170l-41 -186h-170z" />
<glyph unicode="&#xc0;" horiz-adv-x="1237" d="M-25 0l730 1470h194l148 -1470h-132l-51 477h-514l-233 -477h-142zM408 592h448l-68 745h-14zM584 1952h147l224 -348h-90z" />
<glyph unicode="&#xc1;" horiz-adv-x="1237" d="M-25 0l730 1470h194l148 -1470h-132l-51 477h-514l-233 -477h-142zM408 592h448l-68 745h-14zM707 1604l244 348h147l-299 -348h-92z" />
<glyph unicode="&#xc2;" horiz-adv-x="1237" d="M-25 0l730 1470h194l148 -1470h-132l-51 477h-514l-233 -477h-142zM408 592h448l-68 745h-14zM535 1618l266 348h133l152 -348h-80l-146 248l-233 -248h-92z" />
<glyph unicode="&#xc3;" horiz-adv-x="1237" d="M-25 0l730 1470h194l148 -1470h-132l-51 477h-514l-233 -477h-142zM408 592h448l-68 745h-14zM576 1655q37 102 80 143t108 41q16 0 29.5 -2t25.5 -6l92 -28q22 -6 35 -8.5t23 -2.5q34 0 56 17.5t36 54.5h80q-33 -97 -77.5 -139.5t-110.5 -42.5q-16 0 -32.5 2.5 t-35.5 7.5l-96 31q-1 0 -4 1q-25 7 -39 7q-31 0 -53.5 -19.5t-36.5 -56.5h-80z" />
<glyph unicode="&#xc4;" horiz-adv-x="1237" d="M-25 0l730 1470h194l148 -1470h-132l-51 477h-514l-233 -477h-142zM408 592h448l-68 745h-14zM611 1680l32 164h144l-35 -164h-141zM932 1680l35 164h141l-35 -164h-141z" />
<glyph unicode="&#xc5;" horiz-adv-x="1237" d="M-25 0l736 1475q-66 30 -103 87.5t-37 129.5q0 101 70.5 171t171.5 70q100 0 170 -70.5t70 -170.5q0 -79 -41 -138t-113 -84l148 -1470h-132l-51 477h-514l-233 -477h-142zM408 592h448l-63 803zM657 1692q0 -65 45.5 -110.5t110.5 -45.5q64 0 109 45.5t45 110.5 t-44.5 110t-109.5 45q-66 0 -111 -44.5t-45 -110.5z" />
<glyph unicode="&#xc6;" horiz-adv-x="1925" d="M61 0l918 1470h924l-25 -116h-578l-118 -539h475l-27 -117h-475l-129 -581h694l-24 -117h-832l107 469h-465l-293 -469h-152zM578 586h417l172 782h-100z" />
<glyph unicode="&#xc7;" horiz-adv-x="1239" d="M74 510q0 210 65.5 419t175.5 353q81 107 189 161t241 54q197 0 314 -110t143 -320l-117 -25q-29 175 -115 259.5t-233 84.5q-117 0 -209.5 -65.5t-167.5 -202.5q-71 -131 -111 -291t-40 -311q0 -202 93.5 -316t258.5 -114q120 0 219.5 75t186.5 232l100 -65 q-98 -177 -227 -266t-287 -89q-226 0 -352.5 141.5t-126.5 395.5zM188 -416l27 78q66 -19 120.5 -29t92.5 -10q68 0 103.5 28.5t35.5 82.5q0 47 -39 67.5t-131 20.5h-30l61 178h64l-37 -111h20q100 0 152.5 -39.5t52.5 -115.5q0 -92 -62.5 -143.5t-175.5 -51.5 q-54 0 -115.5 11t-138.5 34z" />
<glyph unicode="&#xc8;" horiz-adv-x="1130" d="M57 0l326 1470h739l-24 -116h-604l-121 -539h497l-26 -117h-496l-131 -581h715l-25 -117h-850zM533 1952h147l224 -348h-90z" />
<glyph unicode="&#xc9;" horiz-adv-x="1130" d="M57 0l326 1470h739l-24 -116h-604l-121 -539h497l-26 -117h-496l-131 -581h715l-25 -117h-850zM656 1604l244 348h147l-299 -348h-92z" />
<glyph unicode="&#xca;" horiz-adv-x="1130" d="M57 0l326 1470h739l-24 -116h-604l-121 -539h497l-26 -117h-496l-131 -581h715l-25 -117h-850zM484 1618l266 348h133l152 -348h-80l-146 248l-233 -248h-92z" />
<glyph unicode="&#xcb;" horiz-adv-x="1130" d="M57 0l326 1470h739l-24 -116h-604l-121 -539h497l-26 -117h-496l-131 -581h715l-25 -117h-850zM560 1680l32 164h144l-35 -164h-141zM881 1680l35 164h141l-35 -164h-141z" />
<glyph unicode="&#xcc;" horiz-adv-x="567" d="M51 0l328 1470h135l-328 -1470h-135zM252 1952h147l224 -348h-90z" />
<glyph unicode="&#xcd;" horiz-adv-x="567" d="M51 0l328 1470h135l-328 -1470h-135zM375 1604l244 348h147l-299 -348h-92z" />
<glyph unicode="&#xce;" horiz-adv-x="567" d="M51 0l328 1470h135l-328 -1470h-135zM203 1618l266 348h133l152 -348h-80l-146 248l-233 -248h-92z" />
<glyph unicode="&#xcf;" horiz-adv-x="567" d="M51 0l328 1470h135l-328 -1470h-135zM279 1680l32 164h144l-35 -164h-141zM600 1680l35 164h141l-35 -164h-141z" />
<glyph unicode="&#xd0;" horiz-adv-x="1364" d="M-6 709l24 104h218l145 657h315q280 0 429 -152.5t149 -440.5q0 -217 -68.5 -394.5t-199.5 -302.5q-103 -97 -230.5 -138.5t-347.5 -41.5h-373l156 709h-217zM213 119h182q225 0 330.5 35.5t192.5 117.5q101 97 159 256t58 344q0 245 -114.5 362.5t-352.5 117.5h-183 l-118 -539h348l-25 -104h-346z" />
<glyph unicode="&#xd1;" horiz-adv-x="1464" d="M41 0l326 1470h227l416 -1271l276 1271h135l-325 -1470h-156l-444 1348h-21l-299 -1348h-135zM705 1655q37 102 80 143t108 41q16 0 29.5 -2t25.5 -6l92 -28q22 -6 35 -8.5t23 -2.5q34 0 56 17.5t36 54.5h80q-33 -97 -77.5 -139.5t-110.5 -42.5q-16 0 -32.5 2.5 t-35.5 7.5l-96 31q-1 0 -4 1q-25 7 -39 7q-31 0 -53.5 -19.5t-36.5 -56.5h-80z" />
<glyph unicode="&#xd2;" horiz-adv-x="1354" d="M88 537q0 179 46 345t132 300q102 157 237 239t292 82q218 0 344.5 -148.5t126.5 -408.5q0 -177 -43.5 -342t-124.5 -297q-100 -163 -238.5 -249.5t-300.5 -86.5q-223 0 -347 148.5t-124 417.5zM225 518q0 -208 87.5 -320t250.5 -112q101 0 196 52.5t167 148.5 q98 132 149 304t51 370q0 203 -88 314t-247 111q-101 0 -192 -47.5t-161 -136.5q-102 -131 -157.5 -308t-55.5 -376zM610 1952h147l224 -348h-90z" />
<glyph unicode="&#xd3;" horiz-adv-x="1354" d="M88 537q0 179 46 345t132 300q102 157 237 239t292 82q218 0 344.5 -148.5t126.5 -408.5q0 -177 -43.5 -342t-124.5 -297q-100 -163 -238.5 -249.5t-300.5 -86.5q-223 0 -347 148.5t-124 417.5zM225 518q0 -208 87.5 -320t250.5 -112q101 0 196 52.5t167 148.5 q98 132 149 304t51 370q0 203 -88 314t-247 111q-101 0 -192 -47.5t-161 -136.5q-102 -131 -157.5 -308t-55.5 -376zM733 1604l244 348h147l-299 -348h-92z" />
<glyph unicode="&#xd4;" horiz-adv-x="1354" d="M88 537q0 179 46 345t132 300q102 157 237 239t292 82q218 0 344.5 -148.5t126.5 -408.5q0 -177 -43.5 -342t-124.5 -297q-100 -163 -238.5 -249.5t-300.5 -86.5q-223 0 -347 148.5t-124 417.5zM225 518q0 -208 87.5 -320t250.5 -112q101 0 196 52.5t167 148.5 q98 132 149 304t51 370q0 203 -88 314t-247 111q-101 0 -192 -47.5t-161 -136.5q-102 -131 -157.5 -308t-55.5 -376zM561 1618l266 348h133l152 -348h-80l-146 248l-233 -248h-92z" />
<glyph unicode="&#xd5;" horiz-adv-x="1354" d="M88 537q0 179 46 345t132 300q102 157 237 239t292 82q218 0 344.5 -148.5t126.5 -408.5q0 -177 -43.5 -342t-124.5 -297q-100 -163 -238.5 -249.5t-300.5 -86.5q-223 0 -347 148.5t-124 417.5zM225 518q0 -208 87.5 -320t250.5 -112q101 0 196 52.5t167 148.5 q98 132 149 304t51 370q0 203 -88 314t-247 111q-101 0 -192 -47.5t-161 -136.5q-102 -131 -157.5 -308t-55.5 -376zM602 1655q37 102 80 143t108 41q16 0 29.5 -2t25.5 -6l92 -28q22 -6 35 -8.5t23 -2.5q34 0 56 17.5t36 54.5h80q-33 -97 -77.5 -139.5t-110.5 -42.5 q-16 0 -32.5 2.5t-35.5 7.5l-96 31q-1 0 -4 1q-25 7 -39 7q-31 0 -53.5 -19.5t-36.5 -56.5h-80z" />
<glyph unicode="&#xd6;" horiz-adv-x="1354" d="M88 537q0 179 46 345t132 300q102 157 237 239t292 82q218 0 344.5 -148.5t126.5 -408.5q0 -177 -43.5 -342t-124.5 -297q-100 -163 -238.5 -249.5t-300.5 -86.5q-223 0 -347 148.5t-124 417.5zM225 518q0 -208 87.5 -320t250.5 -112q101 0 196 52.5t167 148.5 q98 132 149 304t51 370q0 203 -88 314t-247 111q-101 0 -192 -47.5t-161 -136.5q-102 -131 -157.5 -308t-55.5 -376zM637 1680l32 164h144l-35 -164h-141zM958 1680l35 164h141l-35 -164h-141z" />
<glyph unicode="&#xd7;" horiz-adv-x="1706" d="M309 123l488 487l-488 488l58 57l487 -487l487 487l58 -57l-488 -488l488 -487l-58 -57l-487 487l-487 -487z" />
<glyph unicode="&#xd8;" horiz-adv-x="1354" d="M90 -63l125 184q-63 83 -94 189.5t-31 242.5q0 171 45.5 333t130.5 292q101 155 237.5 237t293.5 82q70 0 135.5 -20t132.5 -62l98 150l86 -52l-108 -170q64 -82 94.5 -180t30.5 -223q0 -174 -44 -339t-124 -294q-100 -162 -236.5 -247t-296.5 -85q-72 0 -138.5 19.5 t-129.5 58.5l-117 -180zM221 537q0 -92 17.5 -166t52.5 -133l704 1075q-46 33 -98.5 49t-112.5 16q-97 0 -186.5 -47t-159.5 -135q-99 -126 -158 -304.5t-59 -354.5zM362 152q52 -32 102.5 -47t102.5 -15q102 0 194 51t165 148q98 131 149 300.5t51 364.5q0 83 -15.5 150.5 t-47.5 122.5z" />
<glyph unicode="&#xd9;" horiz-adv-x="1460" d="M137 387q0 33 4 68t13 73l208 942h136l-213 -955q-8 -32 -11.5 -61.5t-3.5 -58.5q0 -145 97 -227t268 -82q164 0 267.5 87t141.5 259l230 1038h135l-235 -1062q-48 -218 -180 -327.5t-347 -109.5q-244 0 -377 109t-133 307zM676 1952h147l224 -348h-90z" />
<glyph unicode="&#xda;" horiz-adv-x="1460" d="M137 387q0 33 4 68t13 73l208 942h136l-213 -955q-8 -32 -11.5 -61.5t-3.5 -58.5q0 -145 97 -227t268 -82q164 0 267.5 87t141.5 259l230 1038h135l-235 -1062q-48 -218 -180 -327.5t-347 -109.5q-244 0 -377 109t-133 307zM799 1604l244 348h147l-299 -348h-92z" />
<glyph unicode="&#xdb;" horiz-adv-x="1460" d="M137 387q0 33 4 68t13 73l208 942h136l-213 -955q-8 -32 -11.5 -61.5t-3.5 -58.5q0 -145 97 -227t268 -82q164 0 267.5 87t141.5 259l230 1038h135l-235 -1062q-48 -218 -180 -327.5t-347 -109.5q-244 0 -377 109t-133 307zM627 1618l266 348h133l152 -348h-80l-146 248 l-233 -248h-92z" />
<glyph unicode="&#xdc;" horiz-adv-x="1460" d="M137 387q0 33 4 68t13 73l208 942h136l-213 -955q-8 -32 -11.5 -61.5t-3.5 -58.5q0 -145 97 -227t268 -82q164 0 267.5 87t141.5 259l230 1038h135l-235 -1062q-48 -218 -180 -327.5t-347 -109.5q-244 0 -377 109t-133 307zM703 1680l32 164h144l-35 -164h-141z M1024 1680l35 164h141l-35 -164h-141z" />
<glyph unicode="&#xdd;" horiz-adv-x="1014" d="M141 1470h135l224 -682h14l447 682h149l-563 -858l-137 -612h-136l144 641zM598 1604l244 348h147l-299 -348h-92z" />
<glyph unicode="&#xde;" horiz-adv-x="1239" d="M61 0l326 1470h131l-55 -256h239q230 0 348.5 -93t118.5 -273q0 -238 -156 -347.5t-495 -109.5q-46 0 -102.5 2.5t-128.5 7.5l-90 -401h-136zM311 512h322q191 0 294 85.5t103 244.5q0 126 -76.5 192t-222.5 66h-291z" />
<glyph unicode="&#xdf;" horiz-adv-x="1014" d="M2 0l256 1120q40 178 130 265.5t235 87.5q156 0 247 -89.5t91 -244.5q0 -123 -63.5 -207t-192.5 -133l-5 -17q93 -43 140 -125t47 -202q0 -208 -101.5 -341.5t-255.5 -133.5q-66 0 -127.5 27.5t-121.5 84.5l61 64q53 -40 98 -59t86 -19q105 0 170.5 106.5t65.5 278.5 q0 140 -71 213t-222 88l20 86h19q157 0 243.5 75t86.5 210q0 110 -58 174.5t-155 64.5q-96 0 -158 -70t-94 -217l-246 -1087h-125z" />
<glyph unicode="&#xe0;" horiz-adv-x="1055" d="M16 248q0 188 178.5 294t559.5 144q8 45 12 74t4 49q0 83 -61.5 127.5t-176.5 44.5q-75 0 -142.5 -35.5t-137.5 -111.5l-90 67q81 92 170 136t192 44q171 0 269 -76.5t98 -209.5q0 -23 -6 -62.5t-21 -107.5l-106 -479q-5 -20 -7.5 -51t-2.5 -70v-25h-121l4 125 q-78 -73 -157.5 -108t-166.5 -35q-135 0 -213 71t-78 195zM141 258q0 -79 48.5 -128.5t125.5 -49.5q84 0 170.5 44.5t173.5 131.5l74 334q-319 -44 -455.5 -121t-136.5 -211zM344 1540h147l224 -348h-90z" />
<glyph unicode="&#xe1;" horiz-adv-x="1055" d="M16 248q0 188 178.5 294t559.5 144q8 45 12 74t4 49q0 83 -61.5 127.5t-176.5 44.5q-75 0 -142.5 -35.5t-137.5 -111.5l-90 67q81 92 170 136t192 44q171 0 269 -76.5t98 -209.5q0 -23 -6 -62.5t-21 -107.5l-106 -479q-5 -20 -7.5 -51t-2.5 -70v-25h-121l4 125 q-78 -73 -157.5 -108t-166.5 -35q-135 0 -213 71t-78 195zM141 258q0 -79 48.5 -128.5t125.5 -49.5q84 0 170.5 44.5t173.5 131.5l74 334q-319 -44 -455.5 -121t-136.5 -211zM467 1192l244 348h147l-299 -348h-92z" />
<glyph unicode="&#xe2;" horiz-adv-x="1055" d="M16 248q0 188 178.5 294t559.5 144q8 45 12 74t4 49q0 83 -61.5 127.5t-176.5 44.5q-75 0 -142.5 -35.5t-137.5 -111.5l-90 67q81 92 170 136t192 44q171 0 269 -76.5t98 -209.5q0 -23 -6 -62.5t-21 -107.5l-106 -479q-5 -20 -7.5 -51t-2.5 -70v-25h-121l4 125 q-78 -73 -157.5 -108t-166.5 -35q-135 0 -213 71t-78 195zM141 258q0 -79 48.5 -128.5t125.5 -49.5q84 0 170.5 44.5t173.5 131.5l74 334q-319 -44 -455.5 -121t-136.5 -211zM295 1206l266 348h133l152 -348h-80l-146 248l-233 -248h-92z" />
<glyph unicode="&#xe3;" horiz-adv-x="1055" d="M16 248q0 188 178.5 294t559.5 144q8 45 12 74t4 49q0 83 -61.5 127.5t-176.5 44.5q-75 0 -142.5 -35.5t-137.5 -111.5l-90 67q81 92 170 136t192 44q171 0 269 -76.5t98 -209.5q0 -23 -6 -62.5t-21 -107.5l-106 -479q-5 -20 -7.5 -51t-2.5 -70v-25h-121l4 125 q-78 -73 -157.5 -108t-166.5 -35q-135 0 -213 71t-78 195zM141 258q0 -79 48.5 -128.5t125.5 -49.5q84 0 170.5 44.5t173.5 131.5l74 334q-319 -44 -455.5 -121t-136.5 -211zM336 1243q37 102 80 143t108 41q16 0 29.5 -2t25.5 -6l92 -28q22 -6 35 -8.5t23 -2.5 q34 0 56 17.5t36 54.5h80q-33 -97 -77.5 -139.5t-110.5 -42.5q-16 0 -32.5 2.5t-35.5 7.5l-96 31q-1 0 -4 1q-25 7 -39 7q-31 0 -53.5 -19.5t-36.5 -56.5h-80z" />
<glyph unicode="&#xe4;" horiz-adv-x="1055" d="M16 248q0 188 178.5 294t559.5 144q8 45 12 74t4 49q0 83 -61.5 127.5t-176.5 44.5q-75 0 -142.5 -35.5t-137.5 -111.5l-90 67q81 92 170 136t192 44q171 0 269 -76.5t98 -209.5q0 -23 -6 -62.5t-21 -107.5l-106 -479q-5 -20 -7.5 -51t-2.5 -70v-25h-121l4 125 q-78 -73 -157.5 -108t-166.5 -35q-135 0 -213 71t-78 195zM141 258q0 -79 48.5 -128.5t125.5 -49.5q84 0 170.5 44.5t173.5 131.5l74 334q-319 -44 -455.5 -121t-136.5 -211zM371 1268l32 164h144l-35 -164h-141zM692 1268l35 164h141l-35 -164h-141z" />
<glyph unicode="&#xe5;" horiz-adv-x="1055" d="M12 248q0 188 179 294t561 144q8 45 12 74t4 49q0 83 -61.5 127.5t-176.5 44.5q-75 0 -142.5 -35.5t-137.5 -111.5l-90 67q80 92 169.5 136t192.5 44q171 0 269 -76.5t98 -209.5q0 -23 -6 -62.5t-21 -107.5l-106 -480q-6 -33 -9.5 -63.5t-3.5 -58.5v-23h-120l4 125 q-78 -73 -157 -108t-165 -35q-136 0 -214.5 71t-78.5 195zM137 258q0 -79 48.5 -128.5t125.5 -49.5q83 0 170 44.5t174 131.5l74 334q-319 -44 -455.5 -121t-136.5 -211zM389 1384q0 102 69.5 172t170.5 70t171 -70t70 -172q0 -101 -69.5 -170t-171.5 -69t-171 69t-69 170z M473 1384q0 -65 45 -110t111 -45q64 0 109.5 45.5t45.5 109.5q0 66 -45 111t-110 45q-66 0 -111 -45t-45 -111z" />
<glyph unicode="&#xe6;" horiz-adv-x="1597" d="M14 246q0 183 170 287.5t543 148.5q7 39 10.5 69t3.5 54q0 81 -55.5 125.5t-157.5 44.5q-67 0 -127 -35t-125 -113l-116 68q81 92 172.5 137t195.5 45q110 0 186.5 -43t123.5 -131q72 93 155.5 138.5t177.5 45.5q165 0 253.5 -112.5t88.5 -321.5q0 -36 -2 -70t-6 -67 h-700q-8 -47 -12.5 -82.5t-4.5 -62.5q0 -141 66.5 -221t181.5 -80q93 0 171.5 50.5t135.5 147.5l84 -57q-77 -121 -171.5 -180.5t-208.5 -59.5q-106 0 -192.5 48t-158.5 147q-85 -93 -183.5 -139.5t-209.5 -46.5q-131 0 -210 72.5t-79 193.5zM139 258q0 -81 46 -130.5 t122 -49.5q93 0 176 43t152 127l72 338q-308 -45 -438 -120.5t-130 -207.5zM827 616h568v41q0 165 -59 247.5t-175 82.5q-113 0 -198.5 -95t-135.5 -276z" />
<glyph unicode="&#xe7;" horiz-adv-x="983" d="M53 403q0 119 35.5 242.5t95.5 216.5q70 106 164 163.5t197 57.5q143 0 233.5 -85t122.5 -250l-110 -27q-19 125 -83 195.5t-159 70.5q-66 0 -126 -35t-106 -100q-68 -97 -106.5 -219t-38.5 -242q0 -147 68.5 -230t189.5 -83q92 0 166.5 51.5t130.5 153.5l90 -58 q-69 -122 -165.5 -183.5t-219.5 -61.5q-173 0 -276 114.5t-103 308.5zM79 -416l27 78q66 -19 120.5 -29t92.5 -10q68 0 103.5 28.5t35.5 82.5q0 47 -39 67.5t-131 20.5h-30l61 178h64l-37 -111h20q100 0 152.5 -39.5t52.5 -115.5q0 -92 -62.5 -143.5t-175.5 -51.5 q-54 0 -115.5 11t-138.5 34z" />
<glyph unicode="&#xe8;" horiz-adv-x="1012" d="M27 403q0 118 36 240.5t99 216.5q73 111 172.5 168t216.5 57q172 0 264 -112.5t92 -321.5q0 -35 -2 -68t-6 -65h-733q-8 -43 -12 -78t-4 -65q0 -139 69.5 -220t190.5 -81q97 0 178.5 50.5t140.5 147.5l90 -57q-81 -119 -179.5 -178.5t-217.5 -59.5q-181 0 -288 115.5 t-107 310.5zM190 616h598q0 9 1.5 24t1.5 24q0 159 -62 240t-184 81q-120 0 -211 -94.5t-144 -274.5zM358 1540h147l224 -348h-90z" />
<glyph unicode="&#xe9;" horiz-adv-x="1012" d="M27 403q0 118 36 240.5t99 216.5q73 111 172.5 168t216.5 57q172 0 264 -112.5t92 -321.5q0 -35 -2 -68t-6 -65h-733q-8 -43 -12 -78t-4 -65q0 -139 69.5 -220t190.5 -81q97 0 178.5 50.5t140.5 147.5l90 -57q-81 -119 -179.5 -178.5t-217.5 -59.5q-181 0 -288 115.5 t-107 310.5zM190 616h598q0 9 1.5 24t1.5 24q0 159 -62 240t-184 81q-120 0 -211 -94.5t-144 -274.5zM481 1192l244 348h147l-299 -348h-92z" />
<glyph unicode="&#xea;" horiz-adv-x="1012" d="M27 403q0 118 36 240.5t99 216.5q73 111 172.5 168t216.5 57q172 0 264 -112.5t92 -321.5q0 -35 -2 -68t-6 -65h-733q-8 -43 -12 -78t-4 -65q0 -139 69.5 -220t190.5 -81q97 0 178.5 50.5t140.5 147.5l90 -57q-81 -119 -179.5 -178.5t-217.5 -59.5q-181 0 -288 115.5 t-107 310.5zM190 616h598q0 9 1.5 24t1.5 24q0 159 -62 240t-184 81q-120 0 -211 -94.5t-144 -274.5zM309 1206l266 348h133l152 -348h-80l-146 248l-233 -248h-92z" />
<glyph unicode="&#xeb;" horiz-adv-x="1012" d="M27 403q0 118 36 240.5t99 216.5q73 111 172.5 168t216.5 57q172 0 264 -112.5t92 -321.5q0 -35 -2 -68t-6 -65h-733q-8 -43 -12 -78t-4 -65q0 -139 69.5 -220t190.5 -81q97 0 178.5 50.5t140.5 147.5l90 -57q-81 -119 -179.5 -178.5t-217.5 -59.5q-181 0 -288 115.5 t-107 310.5zM190 616h598q0 9 1.5 24t1.5 24q0 159 -62 240t-184 81q-120 0 -211 -94.5t-144 -274.5zM385 1268l32 164h144l-35 -164h-141zM706 1268l35 164h141l-35 -164h-141z" />
<glyph unicode="&#xec;" horiz-adv-x="449" d="M12 0l236 1063h123l-236 -1063h-123zM96 1540h147l224 -348h-90z" />
<glyph unicode="&#xed;" horiz-adv-x="449" d="M12 0l236 1063h123l-236 -1063h-123zM219 1192l244 348h147l-299 -348h-92z" />
<glyph unicode="&#xee;" horiz-adv-x="449" d="M12 0l236 1063h123l-236 -1063h-123zM47 1206l266 348h133l152 -348h-80l-146 248l-233 -248h-92z" />
<glyph unicode="&#xef;" horiz-adv-x="449" d="M12 0l236 1063h123l-236 -1063h-123zM123 1268l32 164h144l-35 -164h-141zM444 1268l35 164h141l-35 -164h-141z" />
<glyph unicode="&#xf0;" horiz-adv-x="1010" d="M29 369q0 116 34.5 232t96.5 210q72 109 169.5 164t217.5 55q67 0 124.5 -25t106.5 -75q-30 86 -65 158.5t-78 134.5l-258 -109l-35 70l246 104q-16 24 -44 59t-77 91l63 57q40 -35 78.5 -77t75.5 -91l229 98l37 -69l-219 -94q96 -143 143.5 -288.5t47.5 -297.5 q0 -308 -148 -502t-379 -194q-173 0 -269.5 102.5t-96.5 286.5zM152 367q0 -141 67.5 -220t186.5 -79q86 0 156 45t128 137q50 79 79.5 185.5t29.5 207.5q0 141 -68.5 220t-189.5 79q-81 0 -148.5 -41t-122.5 -123q-54 -81 -86 -192.5t-32 -218.5z" />
<glyph unicode="&#xf1;" horiz-adv-x="1126" d="M25 0l235 1063h123l-35 -150h14q86 85 171.5 124.5t181.5 39.5q123 0 197.5 -66.5t74.5 -176.5q0 -28 -6 -67t-20 -105l-148 -662h-123l150 680q14 65 19 97t5 57q0 65 -47 107t-121 42q-88 0 -185.5 -57.5t-197.5 -169.5l-166 -756h-122zM438 1243q37 102 80 143t108 41 q16 0 29.5 -2t25.5 -6l92 -28q22 -6 35 -8.5t23 -2.5q34 0 56 17.5t36 54.5h80q-33 -97 -77.5 -139.5t-110.5 -42.5q-16 0 -32.5 2.5t-35.5 7.5l-96 31q-1 0 -4 1q-25 7 -39 7q-31 0 -53.5 -19.5t-36.5 -56.5h-80z" />
<glyph unicode="&#xf2;" horiz-adv-x="1010" d="M29 397q0 120 34.5 241.5t96.5 217.5q76 119 174.5 175t228.5 56q167 0 262 -109.5t95 -303.5q0 -117 -31 -232t-86 -209q-75 -126 -177 -189.5t-231 -63.5q-175 0 -270.5 108.5t-95.5 308.5zM152 389q0 -149 67 -232t187 -83q86 0 156.5 47t127.5 143q51 86 80 199 t29 227q0 139 -70 221t-186 82q-81 0 -149 -43.5t-124 -130.5q-54 -84 -86 -199.5t-32 -230.5zM363 1540h147l224 -348h-90z" />
<glyph unicode="&#xf3;" horiz-adv-x="1010" d="M29 397q0 120 34.5 241.5t96.5 217.5q76 119 174.5 175t228.5 56q167 0 262 -109.5t95 -303.5q0 -117 -31 -232t-86 -209q-75 -126 -177 -189.5t-231 -63.5q-175 0 -270.5 108.5t-95.5 308.5zM152 389q0 -149 67 -232t187 -83q86 0 156.5 47t127.5 143q51 86 80 199 t29 227q0 139 -70 221t-186 82q-81 0 -149 -43.5t-124 -130.5q-54 -84 -86 -199.5t-32 -230.5zM486 1192l244 348h147l-299 -348h-92z" />
<glyph unicode="&#xf4;" horiz-adv-x="1010" d="M29 397q0 120 34.5 241.5t96.5 217.5q76 119 174.5 175t228.5 56q167 0 262 -109.5t95 -303.5q0 -117 -31 -232t-86 -209q-75 -126 -177 -189.5t-231 -63.5q-175 0 -270.5 108.5t-95.5 308.5zM152 389q0 -149 67 -232t187 -83q86 0 156.5 47t127.5 143q51 86 80 199 t29 227q0 139 -70 221t-186 82q-81 0 -149 -43.5t-124 -130.5q-54 -84 -86 -199.5t-32 -230.5zM314 1206l266 348h133l152 -348h-80l-146 248l-233 -248h-92z" />
<glyph unicode="&#xf5;" horiz-adv-x="1010" d="M29 397q0 120 34.5 241.5t96.5 217.5q76 119 174.5 175t228.5 56q167 0 262 -109.5t95 -303.5q0 -117 -31 -232t-86 -209q-75 -126 -177 -189.5t-231 -63.5q-175 0 -270.5 108.5t-95.5 308.5zM152 389q0 -149 67 -232t187 -83q86 0 156.5 47t127.5 143q51 86 80 199 t29 227q0 139 -70 221t-186 82q-81 0 -149 -43.5t-124 -130.5q-54 -84 -86 -199.5t-32 -230.5zM355 1243q37 102 80 143t108 41q16 0 29.5 -2t25.5 -6l92 -28q22 -6 35 -8.5t23 -2.5q34 0 56 17.5t36 54.5h80q-33 -97 -77.5 -139.5t-110.5 -42.5q-16 0 -32.5 2.5t-35.5 7.5 l-96 31q-1 0 -4 1q-25 7 -39 7q-31 0 -53.5 -19.5t-36.5 -56.5h-80z" />
<glyph unicode="&#xf6;" horiz-adv-x="1010" d="M29 397q0 120 34.5 241.5t96.5 217.5q76 119 174.5 175t228.5 56q167 0 262 -109.5t95 -303.5q0 -117 -31 -232t-86 -209q-75 -126 -177 -189.5t-231 -63.5q-175 0 -270.5 108.5t-95.5 308.5zM152 389q0 -149 67 -232t187 -83q86 0 156.5 47t127.5 143q51 86 80 199 t29 227q0 139 -70 221t-186 82q-81 0 -149 -43.5t-124 -130.5q-54 -84 -86 -199.5t-32 -230.5zM390 1268l32 164h144l-35 -164h-141zM711 1268l35 164h141l-35 -164h-141z" />
<glyph unicode="&#xf7;" horiz-adv-x="1706" d="M254 569v82h1198v-82h-1198zM756 264q0 41 29 71t69 30q41 0 69.5 -29.5t28.5 -71.5q0 -40 -28.5 -69t-69.5 -29t-69.5 28.5t-28.5 69.5zM756 956q0 41 28.5 70t69.5 29t69.5 -28.5t28.5 -70.5q0 -40 -28.5 -70t-69.5 -30t-69.5 29.5t-28.5 70.5z" />
<glyph unicode="&#xf8;" horiz-adv-x="1010" d="M25 375q0 307 150 508.5t378 201.5q57 0 102.5 -10.5t83.5 -32.5l97 148l71 -45l-96 -154q60 -65 87.5 -139.5t27.5 -171.5q0 -118 -31.5 -234.5t-87.5 -212.5q-75 -125 -178 -188t-232 -63q-49 0 -96.5 10t-91.5 31l-94 -152l-70 45l94 158q-60 60 -87 131.5t-27 169.5z M147 375q0 -66 14 -113.5t44 -85.5l479 774q-27 22 -56.5 32.5t-66.5 10.5q-72 0 -132 -26.5t-105 -77.5q-80 -88 -128.5 -228t-48.5 -286zM266 113q43 -19 77.5 -28t66.5 -9q84 0 154.5 47t127.5 141q51 84 81 197.5t30 222.5q0 66 -13.5 115.5t-41.5 89.5z" />
<glyph unicode="&#xf9;" horiz-adv-x="1135" d="M80 223q0 29 6 69.5t20 104.5l148 666h123l-152 -684q-13 -67 -17.5 -99t-4.5 -57q0 -65 47 -107t121 -42q86 0 181.5 57.5t199.5 171.5l168 760h122l-235 -1063h-121l31 145h-15q-85 -84 -170.5 -123.5t-181.5 -39.5q-123 0 -196.5 65.5t-73.5 175.5zM438 1540h147 l224 -348h-90z" />
<glyph unicode="&#xfa;" horiz-adv-x="1135" d="M80 223q0 29 6 69.5t20 104.5l148 666h123l-152 -684q-13 -67 -17.5 -99t-4.5 -57q0 -65 47 -107t121 -42q86 0 181.5 57.5t199.5 171.5l168 760h122l-235 -1063h-121l31 145h-15q-85 -84 -170.5 -123.5t-181.5 -39.5q-123 0 -196.5 65.5t-73.5 175.5zM561 1192l244 348 h147l-299 -348h-92z" />
<glyph unicode="&#xfb;" horiz-adv-x="1135" d="M80 223q0 29 6 69.5t20 104.5l148 666h123l-152 -684q-13 -67 -17.5 -99t-4.5 -57q0 -65 47 -107t121 -42q86 0 181.5 57.5t199.5 171.5l168 760h122l-235 -1063h-121l31 145h-15q-85 -84 -170.5 -123.5t-181.5 -39.5q-123 0 -196.5 65.5t-73.5 175.5zM389 1206l266 348 h133l152 -348h-80l-146 248l-233 -248h-92z" />
<glyph unicode="&#xfc;" horiz-adv-x="1135" d="M80 223q0 29 6 69.5t20 104.5l148 666h123l-152 -684q-13 -67 -17.5 -99t-4.5 -57q0 -65 47 -107t121 -42q86 0 181.5 57.5t199.5 171.5l168 760h122l-235 -1063h-121l31 145h-15q-85 -84 -170.5 -123.5t-181.5 -39.5q-123 0 -196.5 65.5t-73.5 175.5zM465 1268l32 164 h144l-35 -164h-141zM786 1268l35 164h141l-35 -164h-141z" />
<glyph unicode="&#xfd;" horiz-adv-x="903" d="M-117 -365l33 97q31 -12 57 -17.5t47 -5.5q77 0 132 66t106 221l-133 1067h119l102 -877l428 877h127l-616 -1276q-47 -96 -104.5 -136t-147.5 -40q-31 0 -68 6t-82 18zM447 1192l244 348h147l-299 -348h-92z" />
<glyph unicode="&#xfe;" horiz-adv-x="1114" d="M-55 -389l413 1859h121l-123 -559q79 88 157.5 130t164.5 42q159 0 247.5 -107.5t88.5 -303.5q0 -303 -145.5 -499t-366.5 -196q-115 0 -189 53.5t-114 166.5l-131 -586h-123zM233 348q28 -142 92.5 -208t174.5 -66q86 0 158.5 47.5t123.5 138.5q54 94 82.5 204t28.5 226 q0 141 -62.5 219t-175.5 78q-87 0 -169 -57t-167 -176z" />
<glyph unicode="&#xff;" horiz-adv-x="903" d="M-117 -365l33 97q31 -12 57 -17.5t47 -5.5q77 0 132 66t106 221l-133 1067h119l102 -877l428 877h127l-616 -1276q-47 -96 -104.5 -136t-147.5 -40q-31 0 -68 6t-82 18zM351 1268l32 164h144l-35 -164h-141zM672 1268l35 164h141l-35 -164h-141z" />
<glyph unicode="&#x152;" horiz-adv-x="1929" d="M88 530q0 181 43.5 350t124.5 302q94 156 219 237.5t270 81.5q132 0 232 -63t172 -191l51 223h715l-27 -116h-577l-121 -539h477l-27 -117h-475l-131 -581h699l-27 -117h-834l37 162q-72 -99 -164.5 -148t-205.5 -49q-213 0 -332 149t-119 416zM227 516q0 -208 84.5 -322 t237.5 -114q129 0 234.5 88.5t185.5 263.5l135 606q-44 169 -136.5 258.5t-222.5 89.5q-92 0 -175 -47.5t-146 -136.5q-95 -131 -146 -308.5t-51 -377.5z" />
<glyph unicode="&#x153;" horiz-adv-x="1696" d="M31 397q0 122 32.5 244t90.5 219q70 119 168 177.5t225 58.5q113 0 194 -63.5t117 -180.5q85 120 178 177.5t203 57.5q165 0 254.5 -111.5t89.5 -318.5q0 -30 -2.5 -64.5t-7.5 -75.5l-701 -1q-8 -47 -12 -82.5t-4 -62.5q0 -140 67 -220.5t183 -80.5q92 0 169.5 50 t135.5 148l86 -57q-77 -120 -171.5 -179t-211.5 -59q-133 0 -215.5 55.5t-128.5 176.5q-83 -117 -179 -173.5t-214 -56.5q-165 0 -255.5 110.5t-90.5 311.5zM156 391q0 -152 63.5 -236.5t177.5 -84.5q85 0 151.5 47t121.5 145q47 86 75.5 199t28.5 219q0 150 -65.5 234.5 t-180.5 84.5q-78 0 -143 -43t-117 -131q-52 -86 -82 -203t-30 -231zM895 616h567v41q0 165 -57.5 247.5t-173.5 82.5q-114 0 -200.5 -95.5t-135.5 -275.5z" />
<glyph unicode="&#x178;" horiz-adv-x="1014" d="M141 1470h135l224 -682h14l447 682h149l-563 -858l-137 -612h-136l144 641zM502 1680l32 164h144l-35 -164h-141zM823 1680l35 164h141l-35 -164h-141z" />
<glyph unicode="&#x2c6;" d="M334 1206l266 348h133l152 -348h-80l-146 248l-233 -248h-92z" />
<glyph unicode="&#x2dc;" d="M375 1243q37 102 80 143t108 41q16 0 29.5 -2t25.5 -6l92 -28q22 -6 35 -8.5t23 -2.5q34 0 56 17.5t36 54.5h80q-33 -97 -77.5 -139.5t-110.5 -42.5q-16 0 -32.5 2.5t-35.5 7.5l-96 31q-1 0 -4 1q-25 7 -39 7q-31 0 -53.5 -19.5t-36.5 -56.5h-80z" />
<glyph unicode="&#x2000;" horiz-adv-x="983" />
<glyph unicode="&#x2001;" horiz-adv-x="1966" />
<glyph unicode="&#x2002;" horiz-adv-x="983" />
<glyph unicode="&#x2003;" horiz-adv-x="1966" />
<glyph unicode="&#x2004;" horiz-adv-x="655" />
<glyph unicode="&#x2005;" horiz-adv-x="491" />
<glyph unicode="&#x2006;" horiz-adv-x="327" />
<glyph unicode="&#x2007;" horiz-adv-x="327" />
<glyph unicode="&#x2008;" horiz-adv-x="245" />
<glyph unicode="&#x2009;" horiz-adv-x="393" />
<glyph unicode="&#x200a;" horiz-adv-x="109" />
<glyph unicode="&#x2010;" horiz-adv-x="676" d="M39 492l24 114h512l-24 -114h-512z" />
<glyph unicode="&#x2011;" horiz-adv-x="676" d="M39 492l24 114h512l-24 -114h-512z" />
<glyph unicode="&#x2012;" horiz-adv-x="676" d="M39 492l24 114h512l-24 -114h-512z" />
<glyph unicode="&#x2013;" d="M-41 506l18 86h1027l-19 -86h-1026z" />
<glyph unicode="&#x2014;" horiz-adv-x="2048" d="M-41 506l18 86h2048l-18 -86h-2048z" />
<glyph unicode="&#x2018;" horiz-adv-x="426" d="M184 989l45 203l201 278h72l-174 -294h69l-41 -187h-172z" />
<glyph unicode="&#x2019;" horiz-adv-x="426" d="M137 989l174 295h-69l41 186h172l-45 -202l-201 -279h-72z" />
<glyph unicode="&#x201a;" horiz-adv-x="426" d="M-145 -295l174 295h-70l41 186h172l-45 -202l-201 -279h-71z" />
<glyph unicode="&#x201c;" horiz-adv-x="762" d="M184 989l45 203l201 278h72l-174 -294h69l-41 -187h-172zM520 989l45 203l201 278h72l-174 -294h71l-43 -187h-172z" />
<glyph unicode="&#x201d;" horiz-adv-x="762" d="M137 989l174 295h-71l41 186h174l-45 -202l-201 -279h-72zM473 989l174 295h-72l41 186h172l-45 -202l-198 -279h-72z" />
<glyph unicode="&#x201e;" horiz-adv-x="762" d="M-145 -295l174 295h-70l41 186h172l-45 -202l-201 -279h-71zM190 -295l175 295h-70l41 186h172l-45 -202l-201 -279h-72z" />
<glyph unicode="&#x2022;" horiz-adv-x="1208" d="M307 762q0 123 87 209t210 86q122 0 208.5 -86.5t86.5 -208.5t-87.5 -209.5t-209.5 -87.5q-123 0 -209 87t-86 210z" />
<glyph unicode="&#x2026;" horiz-adv-x="2048" d="M92 0l41 184h170l-41 -184h-170zM774 0l41 184h170l-41 -184h-170zM1458 0l41 184h170l-41 -184h-170z" />
<glyph unicode="&#x202f;" horiz-adv-x="393" />
<glyph unicode="&#x2039;" horiz-adv-x="680" d="M141 541l281 323h121l-269 -323l201 -308h-119z" />
<glyph unicode="&#x203a;" horiz-adv-x="680" d="M82 233l268 324l-203 307h121l215 -307l-282 -324h-119z" />
<glyph unicode="&#x205f;" horiz-adv-x="491" />
<glyph unicode="&#x2122;" horiz-adv-x="1706" d="M274 1403v51h420v-51h-174v-479h-67v479h-179zM825 924v530h101l174 -440l162 440h102v-530h-59v479l-181 -479h-49l-190 479v-479h-60z" />
<glyph unicode="&#xe000;" horiz-adv-x="1065" d="M0 0v1065h1065v-1065h-1065z" />
</font>
</defs>
</svg>
